<svg width="80" height="80" viewBox="0 0 80 80" fill="none" xmlns="http://www.w3.org/2000/svg">
<rect x="0.5" y="0.5" width="79" height="79" rx="12.8333" fill="url(#paint0_linear_105_30)" stroke="url(#paint1_linear_105_30)"/>
<g clip-path="url(#clip0_105_30)">
<path d="M33.5 57.875L33.5 54.125" stroke="#FFD56B" stroke-width="1.5" stroke-linecap="round" stroke-linejoin="round"/>
<path d="M47 54.75L47 51" stroke="#FFD56B" stroke-width="1.5" stroke-linecap="round" stroke-linejoin="round"/>
<path d="M47 29.75L47 26" stroke="#FFD56B" stroke-width="1.5" stroke-linecap="round" stroke-linejoin="round"/>
<path d="M33.5 22L33.5 26" stroke="#FFD56B" stroke-width="1.5" stroke-linecap="round" stroke-linejoin="round"/>
<path d="M51.25 48.75V31.25C51.25 30.5596 50.6904 30 50 30H43.75C43.0596 30 42.5 30.5596 42.5 31.25V48.75C42.5 49.4404 43.0596 50 43.75 50H50C50.6904 50 51.25 49.4404 51.25 48.75Z" stroke="#FFD56B" stroke-width="1.5" stroke-linecap="round" stroke-linejoin="round"/>
<path d="M36.25 26.25H30C29.3096 26.25 28.75 26.8096 28.75 27.5V52.5C28.75 53.1904 29.3096 53.75 30 53.75H36.25C36.9404 53.75 37.5 53.1904 37.5 52.5V27.5C37.5 26.8096 36.9404 26.25 36.25 26.25Z" stroke="#FFD56B" stroke-width="1.5" stroke-linecap="round" stroke-linejoin="round"/>
</g>
<defs>
<linearGradient id="paint0_linear_105_30" x1="-4.5" y1="-2.5" x2="65.5" y2="65" gradientUnits="userSpaceOnUse">
<stop stop-color="#FFC32B" stop-opacity="0.2"/>
<stop offset="1" stop-color="#FFC32B" stop-opacity="0.03"/>
</linearGradient>
<linearGradient id="paint1_linear_105_30" x1="0" y1="0" x2="86.9225" y2="71.5955" gradientUnits="userSpaceOnUse">
<stop offset="0.0562644" stop-color="#FFDC84"/>
<stop offset="0.156444" stop-color="#FFC32B" stop-opacity="0.75"/>
<stop offset="1" stop-color="#FFC32B" stop-opacity="0.15"/>
</linearGradient>
<clipPath id="clip0_105_30">
<rect width="40" height="40" fill="white" transform="translate(20 20)"/>
</clipPath>
</defs>
</svg>
