<?xml version="1.0" encoding="UTF-8"?>
<!DOCTYPE svg PUBLIC "-//W3C//DTD SVG 1.1//EN" "http://www.w3.org/Graphics/SVG/1.1/DTD/svg11.dtd">
<svg xmlns="http://www.w3.org/2000/svg" version="1.1" width="476px" height="407px" style="shape-rendering:geometricPrecision; text-rendering:geometricPrecision; image-rendering:optimizeQuality; fill-rule:evenodd; clip-rule:evenodd" xmlns:xlink="http://www.w3.org/1999/xlink">
<g><path style="opacity:0.004" fill="#fefffe" d="M 42.5,11.5 C 43.8333,12.1667 43.8333,12.1667 42.5,11.5 Z"/></g>
<g><path style="opacity:0.004" fill="#fefffe" d="M 215.5,17.5 C 216.833,18.1667 216.833,18.1667 215.5,17.5 Z"/></g>
<g><path style="opacity:0.004" fill="#fefffe" d="M 241.5,21.5 C 242.833,22.1667 242.833,22.1667 241.5,21.5 Z"/></g>
<g><path style="opacity:0.004" fill="#fefffe" d="M 399.5,24.5 C 400.833,25.1667 400.833,25.1667 399.5,24.5 Z"/></g>
<g><path style="opacity:0.69" fill="#ecda62" d="M 249.5,31.5 C 246.341,29.9205 243.007,28.9205 239.5,28.5C 234.015,27.3483 228.349,27.1816 222.5,28C 217.378,31.2898 212.711,35.1231 208.5,39.5C 215.063,27.7236 225.063,23.2236 238.5,26C 242.776,26.8047 246.443,28.6381 249.5,31.5 Z"/></g>
<g><path style="opacity:1" fill="#fed502" d="M 239.5,28.5 C 243.007,28.9205 246.341,29.9205 249.5,31.5C 250.203,33.7157 251.536,35.549 253.5,37C 252.833,37.3333 252.167,37.6667 251.5,38C 258.027,42.9597 260.194,49.4597 258,57.5C 257.153,59.8543 256.32,62.1877 255.5,64.5C 253.901,66.309 251.901,67.6424 249.5,68.5C 248.218,70.1792 247.218,72.0126 246.5,74C 244.212,74.8221 241.878,75.4888 239.5,76C 238.851,80.1054 239.517,84.1054 241.5,88C 240.978,88.5613 240.645,89.228 240.5,90C 243.312,93.6724 244.645,97.8391 244.5,102.5C 245.5,102.5 246.5,102.5 247.5,102.5C 247.928,105.785 248.928,108.785 250.5,111.5C 250.336,114.187 250.503,116.854 251,119.5C 253.221,124.271 254.554,129.271 255,134.5C 256.188,138.613 258.021,142.28 260.5,145.5C 261.252,154.999 263.752,163.999 268,172.5C 268.93,179.686 270.597,186.686 273,193.5C 274.459,195.432 275.625,197.432 276.5,199.5C 276.575,206.801 278.075,213.801 281,220.5C 282.667,221.833 284.333,221.833 286,220.5C 287.707,218.091 288.54,215.425 288.5,212.5C 289.496,212.586 290.329,212.252 291,211.5C 293.025,204.668 296.025,198.335 300,192.5C 300.494,190.866 300.66,189.199 300.5,187.5C 301.376,187.631 302.043,187.298 302.5,186.5C 304.329,182.172 306.662,178.172 309.5,174.5C 315.454,158.26 323.287,142.926 333,128.5C 333.744,123.833 335.244,119.499 337.5,115.5C 338.451,112.955 339.451,112.955 340.5,115.5C 339.674,116.451 339.508,117.451 340,118.5C 340.333,118.167 340.667,117.833 341,117.5C 342.657,119.567 344.324,120.9 346,121.5C 346.325,140.863 346.491,160.196 346.5,179.5C 343.69,194.59 344.357,209.256 348.5,223.5C 348.105,227.185 347.938,230.852 348,234.5C 352.528,236.152 354.695,234.486 354.5,229.5C 356.142,227.919 358.142,227.253 360.5,227.5C 361.124,223.016 363.29,219.35 367,216.5C 367.758,212.644 369.758,209.644 373,207.5C 373.608,205.846 374.108,204.179 374.5,202.5C 380.554,196.104 385.888,189.104 390.5,181.5C 391.82,180.058 393.486,179.392 395.5,179.5C 396.863,175.806 399.03,172.473 402,169.5C 402.49,168.207 402.657,166.873 402.5,165.5C 405.453,160.55 408.786,155.883 412.5,151.5C 413.598,150.399 413.765,149.066 413,147.5C 411.581,145.007 410.081,142.674 408.5,140.5C 408.818,132.005 412.484,125.171 419.5,120C 425.942,117.846 432.275,118.013 438.5,120.5C 439.343,123.516 440.843,126.183 443,128.5C 443.824,131.785 444.324,135.118 444.5,138.5C 442.65,142.325 440.984,146.325 439.5,150.5C 433.965,152.132 428.299,153.299 422.5,154C 419.397,157.571 418.064,161.737 418.5,166.5C 417.254,172.515 415.254,178.182 412.5,183.5C 410.307,185.522 409.307,188.189 409.5,191.5C 407.076,191.192 404.743,191.526 402.5,192.5C 405.412,198.788 404.912,204.788 401,210.5C 400.503,212.81 400.337,215.143 400.5,217.5C 398.435,225.786 395.768,233.786 392.5,241.5C 390.603,243.698 389.603,246.364 389.5,249.5C 387.876,249.36 386.71,250.027 386,251.5C 385.667,250.833 385.333,250.167 385,249.5C 385.711,254.151 385.544,258.818 384.5,263.5C 383.178,263.33 382.011,263.663 381,264.5C 380.127,267.618 378.961,270.618 377.5,273.5C 378.009,276.927 376.675,279.76 373.5,282C 374.609,283.813 373.942,284.646 371.5,284.5C 371.5,285.5 371.5,286.5 371.5,287.5C 372.5,287.5 373.5,287.5 374.5,287.5C 374.205,289.735 374.539,291.735 375.5,293.5C 375.5,294.167 375.167,294.5 374.5,294.5C 371.145,296.412 369.645,299.412 370,303.5C 368.585,305.873 367.085,308.207 365.5,310.5C 365.833,311.167 366.167,311.833 366.5,312.5C 364.126,315.028 363.126,318.028 363.5,321.5C 276.175,322.468 188.842,322.801 101.5,322.5C 100.833,322.167 100.167,321.833 99.5,321.5C 96.5983,314.795 94.2649,307.795 92.5,300.5C 90.5166,290.164 87.1833,280.498 82.5,271.5C 81.4009,266.173 80.2343,260.84 79,255.5C 78.5831,254.244 77.7498,253.577 76.5,253.5C 73.8408,244.704 72.0074,235.704 71,226.5C 70.3333,227.833 69.6667,227.833 69,226.5C 67.4028,223.708 66.4028,220.708 66,217.5C 64.9702,215.654 63.8036,213.987 62.5,212.5C 62.1966,207.751 61.3632,203.084 60,198.5C 59.5776,196.574 58.4109,195.574 56.5,195.5C 55.129,193.064 54.129,190.397 53.5,187.5C 51.625,177.77 49.4583,168.103 47,158.5C 46,156.5 45,154.5 44,152.5C 42.1335,152.686 40.1335,152.353 38,151.5C 37,152.167 36,152.833 35,153.5C 32.0416,151.767 28.8749,150.767 25.5,150.5C 21.9932,148.634 19.9932,145.634 19.5,141.5C 18.8818,135.415 20.5485,130.082 24.5,125.5C 24.6255,127.916 24.9589,130.25 25.5,132.5C 31.3577,133.637 34.0244,131.304 33.5,125.5C 31.8327,124.334 30.166,124.334 28.5,125.5C 27.234,124.91 25.9007,124.41 24.5,124C 28.786,119.19 34.1193,117.19 40.5,118C 43.6956,119.468 47.0289,120.635 50.5,121.5C 52.8305,126.219 54.1639,131.385 54.5,137C 53.7099,141.66 52.3766,146.16 50.5,150.5C 50.9673,153.148 52.1339,155.481 54,157.5C 54.3925,160.633 55.2259,163.633 56.5,166.5C 57.1667,166.167 57.8333,165.833 58.5,165.5C 61.5488,168.552 64.8822,171.218 68.5,173.5C 69.8333,176.5 69.8333,179.5 68.5,182.5C 73.2702,183.261 76.6036,185.927 78.5,190.5C 80.8252,191.518 82.8252,192.851 84.5,194.5C 85.3281,199.152 87.4947,203.152 91,206.5C 91.4935,208.134 91.6602,209.801 91.5,211.5C 92.552,211.351 93.552,211.517 94.5,212C 98.867,216.506 103.2,221.006 107.5,225.5C 107.343,226.873 107.51,228.207 108,229.5C 110.24,231.028 111.907,233.028 113,235.5C 114.518,234.837 115.685,233.837 116.5,232.5C 117.314,230.369 117.814,228.036 118,225.5C 118.17,188.929 118.67,152.429 119.5,116C 116.301,113.723 112.635,112.89 108.5,113.5C 108.5,111.167 108.5,108.833 108.5,106.5C 105.671,106.325 104.004,107.658 103.5,110.5C 99.9319,108.67 96.5986,106.67 93.5,104.5C 89.9599,96.6696 89.6266,88.6696 92.5,80.5C 93.3279,79.5853 94.3279,78.9186 95.5,78.5C 95.393,81.1922 95.7263,83.8589 96.5,86.5C 100.846,88.1618 104.512,87.1618 107.5,83.5C 109.539,82.089 110.539,80.089 110.5,77.5C 111.234,76.2921 111.567,74.9587 111.5,73.5C 109.5,73.5 107.5,73.5 105.5,73.5C 105.33,72.1779 105.663,71.0113 106.5,70C 112.402,67.7792 118.068,68.2792 123.5,71.5C 124.246,72.7362 124.579,74.0695 124.5,75.5C 128.372,75.1791 131.539,76.5124 134,79.5C 134.235,83.32 135.068,86.9867 136.5,90.5C 136.182,91.6473 135.516,92.4806 134.5,93C 135.517,94.0495 135.684,95.2161 135,96.5C 134.667,96.1667 134.333,95.8333 134,95.5C 133.501,99.1516 133.335,102.818 133.5,106.5C 131.194,106.993 128.861,107.326 126.5,107.5C 126.666,112.511 126.499,117.511 126,122.5C 125.5,123 125,123.5 124.5,124C 126.74,124.977 129.073,125.477 131.5,125.5C 131.343,126.873 131.51,128.207 132,129.5C 133.739,132.879 135.572,136.212 137.5,139.5C 138.302,142.449 138.636,145.449 138.5,148.5C 144.377,149.242 146.044,152.409 143.5,158C 148.333,157.5 150.5,159.667 150,164.5C 152.395,168.576 155.228,172.243 158.5,175.5C 159.192,180.891 161.025,185.891 164,190.5C 164.333,193.167 164.667,195.833 165,198.5C 167.561,199.234 169.727,200.567 171.5,202.5C 174.949,207.735 177.616,213.402 179.5,219.5C 179.5,220.833 179.5,222.167 179.5,223.5C 181.833,223.5 184.167,223.5 186.5,223.5C 186.02,219.694 187.02,216.361 189.5,213.5C 189.58,211.047 189.247,208.547 188.5,206C 190.467,201.701 192.8,197.534 195.5,193.5C 194.706,189.215 194.706,184.882 195.5,180.5C 196.835,175.33 198.668,170.33 201,165.5C 201.994,160.882 202.494,156.215 202.5,151.5C 205.845,147.945 207.345,143.611 207,138.5C 210.551,132.004 212.384,125.004 212.5,117.5C 217.328,107.743 220.662,97.4098 222.5,86.5C 222.457,85.5836 222.124,84.9169 221.5,84.5C 222.511,82.5976 222.678,80.5976 222,78.5C 219.833,77.5119 218,76.1786 216.5,74.5C 215.748,72.8997 214.748,71.3997 213.5,70C 215.5,69.6667 217.5,69.3333 219.5,69C 219,68.5 218.5,68 218,67.5C 216,68.8333 214,68.8333 212,67.5C 208.903,64.1405 207.736,60.1405 208.5,55.5C 209.552,55.6495 210.552,55.4828 211.5,55C 210.327,51.8897 210.827,51.723 213,54.5C 214.25,53.4267 215.584,53.4267 217,54.5C 219.819,54.0179 222.319,53.0179 224.5,51.5C 227.643,48.0114 229.977,44.0114 231.5,39.5C 231.575,36.0398 229.909,34.0398 226.5,33.5C 226.859,31.629 227.859,30.129 229.5,29C 232.817,28.5017 236.15,28.335 239.5,28.5 Z M 25.5,132.5 C 25.6878,129.794 26.6878,127.461 28.5,125.5C 30.166,124.334 31.8327,124.334 33.5,125.5C 34.0244,131.304 31.3577,133.637 25.5,132.5 Z M 417.5,126.5 C 424.438,123.272 425.938,124.938 422,131.5C 416.679,134.223 415.179,132.556 417.5,126.5 Z"/></g>
<g><path style="opacity:0.004" fill="#fefffe" d="M 257.5,33.5 C 258.833,34.1667 258.833,34.1667 257.5,33.5 Z"/></g>
<g><path style="opacity:1" fill="#f5d41d" d="M 239.5,28.5 C 236.15,28.335 232.817,28.5017 229.5,29C 227.859,30.129 226.859,31.629 226.5,33.5C 222.995,32.8909 220.328,34.0576 218.5,37C 217.552,37.4828 216.552,37.6495 215.5,37.5C 215.167,39.5 214.833,41.5 214.5,43.5C 213.252,44.3339 212.585,45.6672 212.5,47.5C 212.833,48.8333 213.167,50.1667 213.5,51.5C 217.134,52.5107 220.801,52.5107 224.5,51.5C 222.319,53.0179 219.819,54.0179 217,54.5C 215.584,53.4267 214.25,53.4267 213,54.5C 210.827,51.723 210.327,51.8897 211.5,55C 210.552,55.4828 209.552,55.6495 208.5,55.5C 207.736,60.1405 208.903,64.1405 212,67.5C 214,68.8333 216,68.8333 218,67.5C 218.5,68 219,68.5 219.5,69C 217.5,69.3333 215.5,69.6667 213.5,70C 214.748,71.3997 215.748,72.8997 216.5,74.5C 210.718,71.6099 207.385,66.9432 206.5,60.5C 206.109,53.349 206.775,46.349 208.5,39.5C 212.711,35.1231 217.378,31.2898 222.5,28C 228.349,27.1816 234.015,27.3483 239.5,28.5 Z"/></g>
<g><path style="opacity:0.847" fill="#e9d337" d="M 226.5,33.5 C 229.909,34.0398 231.575,36.0398 231.5,39.5C 229.977,44.0114 227.643,48.0114 224.5,51.5C 220.801,52.5107 217.134,52.5107 213.5,51.5C 213.167,50.1667 212.833,48.8333 212.5,47.5C 212.585,45.6672 213.252,44.3339 214.5,43.5C 214.833,41.5 215.167,39.5 215.5,37.5C 216.552,37.6495 217.552,37.4828 218.5,37C 220.328,34.0576 222.995,32.8909 226.5,33.5 Z M 214.5,43.5 C 216.5,41.0284 218.833,38.8617 221.5,37C 228.077,35.4094 230.244,37.9094 228,44.5C 225.411,49.1194 221.577,50.9528 216.5,50C 214.771,48.2111 214.104,46.0444 214.5,43.5 Z"/></g>
<g><path style="opacity:0.004" fill="#fefffe" d="M 74.5,37.5 C 75.8333,38.1667 75.8333,38.1667 74.5,37.5 Z"/></g>
<g><path style="opacity:0.004" fill="#fefffe" d="M 154.5,42.5 C 155.833,43.1667 155.833,43.1667 154.5,42.5 Z"/></g>
<g><path style="opacity:0.004" fill="#fefffe" d="M 368.5,45.5 C 369.833,46.1667 369.833,46.1667 368.5,45.5 Z"/></g>
<g><path style="opacity:0.004" fill="#fefffe" d="M 323.5,50.5 C 324.833,51.1667 324.833,51.1667 323.5,50.5 Z"/></g>
<g><path style="opacity:0.553" fill="#edd95f" d="M 208.5,39.5 C 206.775,46.349 206.109,53.349 206.5,60.5C 204.114,55.3994 203.947,50.0661 206,44.5C 206.374,42.5087 207.207,40.842 208.5,39.5 Z"/></g>
<g><path style="opacity:0.547" fill="#e8d64d" d="M 249.5,31.5 C 257.583,38.2359 261.083,46.9026 260,57.5C 259.156,61.2292 257.656,64.5626 255.5,67.5C 255.5,66.5 255.5,65.5 255.5,64.5C 256.32,62.1877 257.153,59.8543 258,57.5C 260.194,49.4597 258.027,42.9597 251.5,38C 252.167,37.6667 252.833,37.3333 253.5,37C 251.536,35.549 250.203,33.7157 249.5,31.5 Z"/></g>
<g><path style="opacity:0.004" fill="#fefffe" d="M 334.5,57.5 C 335.833,58.1667 335.833,58.1667 334.5,57.5 Z"/></g>
<g><path style="opacity:0.004" fill="#fefffe" d="M 305.5,61.5 C 306.833,62.1667 306.833,62.1667 305.5,61.5 Z"/></g>
<g><path style="opacity:0.298" fill="#ecd963" d="M 135.5,78.5 C 126.97,68.5465 116.303,65.2132 103.5,68.5C 112.455,64.5931 121.122,65.4265 129.5,71C 132.118,73.1057 134.118,75.6057 135.5,78.5 Z"/></g>
<g><path style="opacity:0.396" fill="#ecd85d" d="M 347.5,66.5 C 336.833,69.8333 329.833,76.8333 326.5,87.5C 328.5,75.5 335.5,68.5 347.5,66.5 Z"/></g>
<g><path style="opacity:1" fill="#fbd50e" d="M 368.5,73.5 C 370.893,79.4945 372.56,85.8279 373.5,92.5C 372.357,97.2588 371.023,101.925 369.5,106.5C 366.41,108.07 363.41,109.903 360.5,112C 357.247,113.036 353.914,113.703 350.5,114C 349.874,114.75 349.374,115.584 349,116.5C 348.5,152.165 348.333,187.832 348.5,223.5C 344.357,209.256 343.69,194.59 346.5,179.5C 346.491,160.196 346.325,140.863 346,121.5C 344.324,120.9 342.657,119.567 341,117.5C 340.667,117.833 340.333,118.167 340,118.5C 339.508,117.451 339.674,116.451 340.5,115.5C 339.451,112.955 338.451,112.955 337.5,115.5C 337.579,112.729 337.079,110.063 336,107.5C 334.644,106.62 333.144,106.286 331.5,106.5C 326.655,100.922 324.989,94.5883 326.5,87.5C 329.833,76.8333 336.833,69.8333 347.5,66.5C 355.755,65.1302 362.755,67.4635 368.5,73.5 Z M 334.5,85.5 C 335.12,78.0215 338.953,75.0215 346,76.5C 346.912,82.4311 344.412,86.0977 338.5,87.5C 336.927,87.2483 335.594,86.5817 334.5,85.5 Z"/></g>
<g><path style="opacity:1" fill="#f1d320" d="M 135.5,78.5 C 137.202,84.9587 137.869,91.6254 137.5,98.5C 137.206,101.754 135.873,104.421 133.5,106.5C 133.335,102.818 133.501,99.1516 134,95.5C 134.333,95.8333 134.667,96.1667 135,96.5C 135.684,95.2161 135.517,94.0495 134.5,93C 135.516,92.4806 136.182,91.6473 136.5,90.5C 135.068,86.9867 134.235,83.32 134,79.5C 131.539,76.5124 128.372,75.1791 124.5,75.5C 124.579,74.0695 124.246,72.7362 123.5,71.5C 118.068,68.2792 112.402,67.7792 106.5,70C 105.663,71.0113 105.33,72.1779 105.5,73.5C 107.5,73.5 109.5,73.5 111.5,73.5C 111.567,74.9587 111.234,76.2921 110.5,77.5C 109.733,76.828 109.066,75.9947 108.5,75C 106.19,74.5034 103.857,74.3367 101.5,74.5C 101.604,72.2972 102.27,70.2972 103.5,68.5C 116.303,65.2132 126.97,68.5465 135.5,78.5 Z"/></g>
<g><path style="opacity:0.004" fill="#fefffe" d="M 424.5,73.5 C 425.833,74.1667 425.833,74.1667 424.5,73.5 Z"/></g>
<g><path style="opacity:0.004" fill="#fefffe" d="M 196.5,74.5 C 197.833,75.1667 197.833,75.1667 196.5,74.5 Z"/></g>
<g><path style="opacity:0.569" fill="#ebd446" d="M 334.5,85.5 C 333.458,82.1426 334.125,78.9759 336.5,76C 340.395,74.7338 344.395,74.2338 348.5,74.5C 349.317,84.1814 344.983,88.6814 335.5,88C 334.748,87.3292 334.414,86.4959 334.5,85.5 Z M 334.5,85.5 C 335.594,86.5817 336.927,87.2483 338.5,87.5C 344.412,86.0977 346.912,82.4311 346,76.5C 338.953,75.0215 335.12,78.0215 334.5,85.5 Z"/></g>
<g><path style="opacity:0.957" fill="#ecd44b" d="M 103.5,68.5 C 102.27,70.2972 101.604,72.2972 101.5,74.5C 103.857,74.3367 106.19,74.5034 108.5,75C 109.066,75.9947 109.733,76.828 110.5,77.5C 110.539,80.089 109.539,82.089 107.5,83.5C 108.39,81.2181 108.556,78.8848 108,76.5C 100.448,75.2037 96.6145,78.537 96.5,86.5C 95.7263,83.8589 95.393,81.1922 95.5,78.5C 94.3279,78.9186 93.3279,79.5853 92.5,80.5C 89.6266,88.6696 89.9599,96.6696 93.5,104.5C 86.3393,92.2399 88.006,81.0732 98.5,71C 100.078,69.9055 101.745,69.0722 103.5,68.5 Z"/></g>
<g><path style="opacity:0.004" fill="#fefffe" d="M 68.5,78.5 C 69.8333,79.1667 69.8333,79.1667 68.5,78.5 Z"/></g>
<g><path style="opacity:0.004" fill="#fefffe" d="M 206.5,78.5 C 207.833,79.1667 207.833,79.1667 206.5,78.5 Z"/></g>
<g><path style="opacity:0.965" fill="#edd131" d="M 255.5,64.5 C 255.5,65.5 255.5,66.5 255.5,67.5C 254.094,70.4135 252.094,72.9135 249.5,75C 246.274,76.1058 243.607,77.9391 241.5,80.5C 244.97,90.7178 247.97,101.051 250.5,111.5C 248.928,108.785 247.928,105.785 247.5,102.5C 246.5,102.5 245.5,102.5 244.5,102.5C 244.645,97.8391 243.312,93.6724 240.5,90C 240.645,89.228 240.978,88.5613 241.5,88C 239.517,84.1054 238.851,80.1054 239.5,76C 241.878,75.4888 244.212,74.8221 246.5,74C 247.218,72.0126 248.218,70.1792 249.5,68.5C 251.901,67.6424 253.901,66.309 255.5,64.5 Z"/></g>
<g><path style="opacity:0.004" fill="#fefffe" d="M 26.5,91.5 C 27.8333,92.1667 27.8333,92.1667 26.5,91.5 Z"/></g>
<g><path style="opacity:0.337" fill="#e2d348" d="M 135.5,78.5 C 139.455,84.9086 140.121,91.5752 137.5,98.5C 137.869,91.6254 137.202,84.9587 135.5,78.5 Z"/></g>
<g><path style="opacity:0.004" fill="#fefffe" d="M 452.5,95.5 C 453.833,96.1667 453.833,96.1667 452.5,95.5 Z"/></g>
<g><path style="opacity:0.004" fill="#fefffe" d="M 150.5,98.5 C 151.833,99.1667 151.833,99.1667 150.5,98.5 Z"/></g>
<g><path style="opacity:0.004" fill="#fefffe" d="M 290.5,101.5 C 291.833,102.167 291.833,102.167 290.5,101.5 Z"/></g>
<g><path style="opacity:0.643" fill="#ecd848" d="M 221.5,84.5 C 222.124,84.9169 222.457,85.5836 222.5,86.5C 220.662,97.4098 217.328,107.743 212.5,117.5C 215.3,106.434 218.3,95.4341 221.5,84.5 Z"/></g>
<g><path style="opacity:0.004" fill="#fefffe" d="M 132.5,108.5 C 133.833,109.167 133.833,109.167 132.5,108.5 Z"/></g>
<g><path style="opacity:0.004" fill="#fefffe" d="M 446.5,109.5 C 447.833,110.167 447.833,110.167 446.5,109.5 Z"/></g>
<g><path style="opacity:0.004" fill="#fefffe" d="M 313.5,112.5 C 314.833,113.167 314.833,113.167 313.5,112.5 Z"/></g>
<g><path style="opacity:0.004" fill="#fefffe" d="M 156.5,114.5 C 157.833,115.167 157.833,115.167 156.5,114.5 Z"/></g>
<g><path style="opacity:0.976" fill="#ecd64f" d="M 438.5,120.5 C 432.275,118.013 425.942,117.846 419.5,120C 412.484,125.171 408.818,132.005 408.5,140.5C 406.412,126.397 412.578,118.397 427,116.5C 431.532,116.176 435.366,117.509 438.5,120.5 Z"/></g>
<g><path style="opacity:0.004" fill="#fefffe" d="M 299.5,123.5 C 300.833,124.167 300.833,124.167 299.5,123.5 Z"/></g>
<g><path style="opacity:0.004" fill="#fefffe" d="M 362.5,123.5 C 363.833,124.167 363.833,124.167 362.5,123.5 Z"/></g>
<g><path style="opacity:0.91" fill="#ead449" d="M 212.5,117.5 C 212.384,125.004 210.551,132.004 207,138.5C 207.345,143.611 205.845,147.945 202.5,151.5C 205.259,139.901 208.592,128.567 212.5,117.5 Z"/></g>
<g><path style="opacity:1" fill="#ecd650" d="M 50.5,121.5 C 47.0289,120.635 43.6956,119.468 40.5,118C 34.1193,117.19 28.786,119.19 24.5,124C 25.9007,124.41 27.234,124.91 28.5,125.5C 26.6878,127.461 25.6878,129.794 25.5,132.5C 24.9589,130.25 24.6255,127.916 24.5,125.5C 20.5485,130.082 18.8818,135.415 19.5,141.5C 16.519,129.634 20.8523,121.468 32.5,117C 39.3939,115.44 45.3939,116.94 50.5,121.5 Z"/></g>
<g><path style="opacity:0.004" fill="#fefffe" d="M 353.5,126.5 C 354.833,127.167 354.833,127.167 353.5,126.5 Z"/></g>
<g><path style="opacity:0.004" fill="#fefffe" d="M 403.5,127.5 C 404.833,128.167 404.833,128.167 403.5,127.5 Z"/></g>
<g><path style="opacity:0.676" fill="#ecd750" d="M 107.5,114.5 C 110.545,114.508 113.545,114.841 116.5,115.5C 116.5,154.5 116.5,193.5 116.5,232.5C 115.685,233.837 114.518,234.837 113,235.5C 111.907,233.028 110.24,231.028 108,229.5C 107.51,228.207 107.343,226.873 107.5,225.5C 109.887,227.913 112.054,230.58 114,233.5C 114.5,194.501 114.667,155.501 114.5,116.5C 111.933,116.279 109.599,115.612 107.5,114.5 Z"/></g>
<g><path style="opacity:0.812" fill="#e8d03e" d="M 250.5,111.5 C 254.746,122.468 258.079,133.802 260.5,145.5C 258.021,142.28 256.188,138.613 255,134.5C 254.554,129.271 253.221,124.271 251,119.5C 250.503,116.854 250.336,114.187 250.5,111.5 Z"/></g>
<g><path style="opacity:0.878" fill="#ecd23a" d="M 417.5,126.5 C 417.532,124.433 418.532,123.1 420.5,122.5C 422.135,123.046 423.801,123.38 425.5,123.5C 427.281,132.724 423.781,136.39 415,134.5C 413.834,131.073 414.668,128.407 417.5,126.5 Z M 417.5,126.5 C 415.179,132.556 416.679,134.223 422,131.5C 425.938,124.938 424.438,123.272 417.5,126.5 Z"/></g>
<g><path style="opacity:0.592" fill="#e6d34b" d="M 131.5,120.5 C 137.63,131.095 142.964,142.095 147.5,153.5C 140.65,143.31 135.316,132.31 131.5,120.5 Z"/></g>
<g><path style="opacity:0.004" fill="#fefffe" d="M 159.5,136.5 C 160.833,137.167 160.833,137.167 159.5,136.5 Z"/></g>
<g><path style="opacity:0.004" fill="#fefffe" d="M 470.5,141.5 C 471.833,142.167 471.833,142.167 470.5,141.5 Z"/></g>
<g><path style="opacity:1" fill="#f1d323" d="M 133.5,106.5 C 133.167,107.167 132.833,107.833 132.5,108.5C 130.648,109.52 129.315,111.02 128.5,113C 129.651,115.465 130.651,117.965 131.5,120.5C 135.316,132.31 140.65,143.31 147.5,153.5C 151.675,160.516 155.341,167.849 158.5,175.5C 155.228,172.243 152.395,168.576 150,164.5C 150.5,159.667 148.333,157.5 143.5,158C 146.044,152.409 144.377,149.242 138.5,148.5C 138.636,145.449 138.302,142.449 137.5,139.5C 135.572,136.212 133.739,132.879 132,129.5C 131.51,128.207 131.343,126.873 131.5,125.5C 129.073,125.477 126.74,124.977 124.5,124C 125,123.5 125.5,123 126,122.5C 126.499,117.511 126.666,112.511 126.5,107.5C 128.861,107.326 131.194,106.993 133.5,106.5 Z"/></g>
<g><path style="opacity:0.502" fill="#e8d661" d="M 408.5,140.5 C 410.081,142.674 411.581,145.007 413,147.5C 413.765,149.066 413.598,150.399 412.5,151.5C 410.908,147.971 409.574,144.305 408.5,140.5 Z"/></g>
<g><path style="opacity:0.004" fill="#fefffe" d="M 374.5,143.5 C 375.833,144.167 375.833,144.167 374.5,143.5 Z"/></g>
<g><path style="opacity:1" fill="#e6d03c" d="M 438.5,120.5 C 446.546,126.686 448.713,134.686 445,144.5C 443.669,146.996 441.836,148.996 439.5,150.5C 440.984,146.325 442.65,142.325 444.5,138.5C 444.324,135.118 443.824,131.785 443,128.5C 440.843,126.183 439.343,123.516 438.5,120.5 Z"/></g>
<g><path style="opacity:0.004" fill="#fefffe" d="M 77.5,147.5 C 78.8333,148.167 78.8333,148.167 77.5,147.5 Z"/></g>
<g><path style="opacity:0.004" fill="#fefffe" d="M 388.5,150.5 C 389.833,151.167 389.833,151.167 388.5,150.5 Z"/></g>
<g><path style="opacity:0.004" fill="#fefffe" d="M 392.5,150.5 C 393.833,151.167 393.833,151.167 392.5,150.5 Z"/></g>
<g><path style="opacity:0.929" fill="#ead034" d="M 25.5,150.5 C 28.8749,150.767 32.0416,151.767 35,153.5C 36,152.833 37,152.167 38,151.5C 40.1335,152.353 42.1335,152.686 44,152.5C 45,154.5 46,156.5 47,158.5C 49.4583,168.103 51.625,177.77 53.5,187.5C 49.6737,177.363 46.0071,167.029 42.5,156.5C 38.4681,155.775 34.4681,154.942 30.5,154C 28.4156,153.303 26.7489,152.136 25.5,150.5 Z"/></g>
<g><path style="opacity:0.004" fill="#fefffe" d="M 362.5,153.5 C 363.833,154.167 363.833,154.167 362.5,153.5 Z"/></g>
<g><path style="opacity:0.62" fill="#ecd749" d="M 331.5,106.5 C 333.144,106.286 334.644,106.62 336,107.5C 337.079,110.063 337.579,112.729 337.5,115.5C 335.244,119.499 333.744,123.833 333,128.5C 323.287,142.926 315.454,158.26 309.5,174.5C 306.662,178.172 304.329,182.172 302.5,186.5C 302.043,187.298 301.376,187.631 300.5,187.5C 311.778,162.944 323.611,138.61 336,114.5C 336.667,113.5 336.667,112.5 336,111.5C 334.293,109.963 332.793,108.296 331.5,106.5 Z"/></g>
<g><path style="opacity:0.487" fill="#ebd048" d="M 368.5,73.5 C 378.806,85.6746 378.472,97.8413 367.5,110C 362.723,113.556 357.39,115.722 351.5,116.5C 350.822,154.852 350.155,193.185 349.5,231.5C 349.833,232.167 350.167,232.833 350.5,233.5C 351.521,231.812 352.855,230.479 354.5,229.5C 354.695,234.486 352.528,236.152 348,234.5C 347.938,230.852 348.105,227.185 348.5,223.5C 348.333,187.832 348.5,152.165 349,116.5C 349.374,115.584 349.874,114.75 350.5,114C 353.914,113.703 357.247,113.036 360.5,112C 363.41,109.903 366.41,108.07 369.5,106.5C 371.023,101.925 372.357,97.2588 373.5,92.5C 372.56,85.8279 370.893,79.4945 368.5,73.5 Z"/></g>
<g><path style="opacity:0.004" fill="#fefffe" d="M 13.5,161.5 C 14.8333,162.167 14.8333,162.167 13.5,161.5 Z"/></g>
<g><path style="opacity:1" fill="#edd332" d="M 50.5,121.5 C 57.0107,127.542 58.844,134.875 56,143.5C 55.1166,146.102 53.6166,148.269 51.5,150C 57.4099,157.73 63.0765,165.563 68.5,173.5C 64.8822,171.218 61.5488,168.552 58.5,165.5C 57.8333,165.833 57.1667,166.167 56.5,166.5C 55.2259,163.633 54.3925,160.633 54,157.5C 52.1339,155.481 50.9673,153.148 50.5,150.5C 52.3766,146.16 53.7099,141.66 54.5,137C 54.1639,131.385 52.8305,126.219 50.5,121.5 Z"/></g>
<g><path style="opacity:0.573" fill="#e4d042" d="M 439.5,150.5 C 438.251,152.136 436.584,153.303 434.5,154C 430.5,154.833 426.5,155.667 422.5,156.5C 421.155,159.938 419.821,163.271 418.5,166.5C 418.064,161.737 419.397,157.571 422.5,154C 428.299,153.299 433.965,152.132 439.5,150.5 Z"/></g>
<g><path style="opacity:0.004" fill="#fefffe" d="M 273.5,165.5 C 274.833,166.167 274.833,166.167 273.5,165.5 Z"/></g>
<g><path style="opacity:0.682" fill="#eed94e" d="M 202.5,151.5 C 202.494,156.215 201.994,160.882 201,165.5C 198.668,170.33 196.835,175.33 195.5,180.5C 194.883,180.611 194.383,180.944 194,181.5C 192.609,187.428 190.776,193.095 188.5,198.5C 192.39,182.507 197.056,166.84 202.5,151.5 Z"/></g>
<g><path style="opacity:1" fill="#f4d41b" d="M 93.5,104.5 C 96.5986,106.67 99.9319,108.67 103.5,110.5C 104.004,107.658 105.671,106.325 108.5,106.5C 108.5,108.833 108.5,111.167 108.5,113.5C 112.635,112.89 116.301,113.723 119.5,116C 118.67,152.429 118.17,188.929 118,225.5C 117.814,228.036 117.314,230.369 116.5,232.5C 116.5,193.5 116.5,154.5 116.5,115.5C 113.545,114.841 110.545,114.508 107.5,114.5C 103.813,113.824 100.48,112.324 97.5,110C 95.5359,108.549 94.2026,106.716 93.5,104.5 Z"/></g>
<g><path style="opacity:0.898" fill="#ead03e" d="M 402.5,165.5 C 402.657,166.873 402.49,168.207 402,169.5C 399.03,172.473 396.863,175.806 395.5,179.5C 393.486,179.392 391.82,180.058 390.5,181.5C 394.016,175.8 398.016,170.467 402.5,165.5 Z"/></g>
<g><path style="opacity:0.004" fill="#fefffe" d="M 74.5,171.5 C 75.8333,172.167 75.8333,172.167 74.5,171.5 Z"/></g>
<g><path style="opacity:0.004" fill="#fefffe" d="M 466.5,173.5 C 467.833,174.167 467.833,174.167 466.5,173.5 Z"/></g>
<g><path style="opacity:0.004" fill="#fefffe" d="M 301.5,178.5 C 302.833,179.167 302.833,179.167 301.5,178.5 Z"/></g>
<g><path style="opacity:1" fill="#ecd233" d="M 68.5,173.5 C 74.0645,180.282 79.3978,187.282 84.5,194.5C 82.8252,192.851 80.8252,191.518 78.5,190.5C 76.6036,185.927 73.2702,183.261 68.5,182.5C 69.8333,179.5 69.8333,176.5 68.5,173.5 Z"/></g>
<g><path style="opacity:0.843" fill="#e7d344" d="M 260.5,145.5 C 266.749,163.15 272.083,181.15 276.5,199.5C 275.625,197.432 274.459,195.432 273,193.5C 270.597,186.686 268.93,179.686 268,172.5C 263.752,163.999 261.252,154.999 260.5,145.5 Z"/></g>
<g><path style="opacity:0.282" fill="#efda55" d="M 390.5,181.5 C 385.888,189.104 380.554,196.104 374.5,202.5C 379.073,194.926 384.406,187.926 390.5,181.5 Z"/></g>
<g><path style="opacity:1" fill="#f3d422" d="M 195.5,180.5 C 194.706,184.882 194.706,189.215 195.5,193.5C 192.8,197.534 190.467,201.701 188.5,206C 189.247,208.547 189.58,211.047 189.5,213.5C 187.02,216.361 186.02,219.694 186.5,223.5C 184.167,223.5 181.833,223.5 179.5,223.5C 179.5,222.167 179.5,220.833 179.5,219.5C 181.124,221.137 182.124,220.803 182.5,218.5C 183.933,211.546 185.933,204.879 188.5,198.5C 190.776,193.095 192.609,187.428 194,181.5C 194.383,180.944 194.883,180.611 195.5,180.5 Z"/></g>
<g><path style="opacity:1" fill="#efd32f" d="M 412.5,183.5 C 409.072,195.123 405.072,206.456 400.5,217.5C 400.337,215.143 400.503,212.81 401,210.5C 404.912,204.788 405.412,198.788 402.5,192.5C 404.743,191.526 407.076,191.192 409.5,191.5C 409.307,188.189 410.307,185.522 412.5,183.5 Z"/></g>
<g><path style="opacity:0.635" fill="#ead542" d="M 300.5,187.5 C 300.66,189.199 300.494,190.866 300,192.5C 296.025,198.335 293.025,204.668 291,211.5C 290.329,212.252 289.496,212.586 288.5,212.5C 291.718,203.732 295.718,195.399 300.5,187.5 Z"/></g>
<g><path style="opacity:1" fill="#ecd431" d="M 158.5,175.5 C 163.615,184.065 167.948,193.065 171.5,202.5C 169.727,200.567 167.561,199.234 165,198.5C 164.667,195.833 164.333,193.167 164,190.5C 161.025,185.891 159.192,180.891 158.5,175.5 Z"/></g>
<g><path style="opacity:0.004" fill="#fefffe" d="M 442.5,198.5 C 443.833,199.167 443.833,199.167 442.5,198.5 Z"/></g>
<g><path style="opacity:0.667" fill="#e4d03e" d="M 56.5,195.5 C 58.4109,195.574 59.5776,196.574 60,198.5C 61.3632,203.084 62.1966,207.751 62.5,212.5C 59.7481,207.193 57.7481,201.527 56.5,195.5 Z"/></g>
<g><path style="opacity:0.949" fill="#e8ce37" d="M 276.5,199.5 C 278.969,206.344 281.303,213.344 283.5,220.5C 285.192,217.769 286.858,215.102 288.5,212.5C 288.54,215.425 287.707,218.091 286,220.5C 284.333,221.833 282.667,221.833 281,220.5C 278.075,213.801 276.575,206.801 276.5,199.5 Z"/></g>
<g><path style="opacity:1" fill="#ebd236" d="M 84.5,194.5 C 92.5451,204.546 100.212,214.879 107.5,225.5C 103.2,221.006 98.867,216.506 94.5,212C 93.552,211.517 92.552,211.351 91.5,211.5C 91.6602,209.801 91.4935,208.134 91,206.5C 87.4947,203.152 85.3281,199.152 84.5,194.5 Z"/></g>
<g><path style="opacity:0.004" fill="#fefffe" d="M 358.5,213.5 C 359.833,214.167 359.833,214.167 358.5,213.5 Z"/></g>
<g><path style="opacity:1" fill="#ecd53e" d="M 374.5,202.5 C 374.108,204.179 373.608,205.846 373,207.5C 369.758,209.644 367.758,212.644 367,216.5C 363.29,219.35 361.124,223.016 360.5,227.5C 358.142,227.253 356.142,227.919 354.5,229.5C 360.438,219.957 367.104,210.957 374.5,202.5 Z"/></g>
<g><path style="opacity:0.004" fill="#fefffe" d="M 417.5,220.5 C 418.833,221.167 418.833,221.167 417.5,220.5 Z"/></g>
<g><path style="opacity:0.004" fill="#fefffe" d="M 446.5,239.5 C 447.833,240.167 447.833,240.167 446.5,239.5 Z"/></g>
<g><path style="opacity:0.451" fill="#ead13f" d="M 62.5,212.5 C 63.8036,213.987 64.9702,215.654 66,217.5C 66.4028,220.708 67.4028,223.708 69,226.5C 69.6667,227.833 70.3333,227.833 71,226.5C 72.0074,235.704 73.8408,244.704 76.5,253.5C 71.0711,240.216 66.4045,226.549 62.5,212.5 Z"/></g>
<g><path style="opacity:0.729" fill="#e5d14b" d="M 76.5,253.5 C 77.7498,253.577 78.5831,254.244 79,255.5C 80.2343,260.84 81.4009,266.173 82.5,271.5C 79.9222,265.767 77.9222,259.767 76.5,253.5 Z"/></g>
<g><path style="opacity:0.004" fill="#fefffe" d="M 387.5,264.5 C 388.833,265.167 388.833,265.167 387.5,264.5 Z"/></g>
<g><path style="opacity:0.004" fill="#fefffe" d="M 21.5,268.5 C 22.8333,269.167 22.8333,269.167 21.5,268.5 Z"/></g>
<g><path style="opacity:0.004" fill="#fefffe" d="M 35.5,269.5 C 36.8333,270.167 36.8333,270.167 35.5,269.5 Z"/></g>
<g><path style="opacity:0.004" fill="#fefffe" d="M 41.5,281.5 C 42.8333,282.167 42.8333,282.167 41.5,281.5 Z"/></g>
<g><path style="opacity:0.004" fill="#fefffe" d="M 34.5,284.5 C 35.8333,285.167 35.8333,285.167 34.5,284.5 Z"/></g>
<g><path style="opacity:0.592" fill="#e3d04f" d="M 82.5,271.5 C 87.1833,280.498 90.5166,290.164 92.5,300.5C 88.401,291.206 85.0677,281.54 82.5,271.5 Z"/></g>
<g><path style="opacity:1" fill="#f0d229" d="M 392.5,241.5 C 386.837,258.822 381.171,276.155 375.5,293.5C 374.539,291.735 374.205,289.735 374.5,287.5C 373.5,287.5 372.5,287.5 371.5,287.5C 371.5,286.5 371.5,285.5 371.5,284.5C 373.942,284.646 374.609,283.813 373.5,282C 376.675,279.76 378.009,276.927 377.5,273.5C 378.961,270.618 380.127,267.618 381,264.5C 382.011,263.663 383.178,263.33 384.5,263.5C 385.544,258.818 385.711,254.151 385,249.5C 385.333,250.167 385.667,250.833 386,251.5C 386.71,250.027 387.876,249.36 389.5,249.5C 389.603,246.364 390.603,243.698 392.5,241.5 Z"/></g>
<g><path style="opacity:0.004" fill="#fefffe" d="M 465.5,284.5 C 466.833,285.167 466.833,285.167 465.5,284.5 Z"/></g>
<g><path style="opacity:0.004" fill="#fefffe" d="M 384.5,285.5 C 385.833,286.167 385.833,286.167 384.5,285.5 Z"/></g>
<g><path style="opacity:0.004" fill="#fefffe" d="M 1.5,288.5 C 2.83333,289.167 2.83333,289.167 1.5,288.5 Z"/></g>
<g><path style="opacity:0.004" fill="#fefffe" d="M 394.5,291.5 C 395.833,292.167 395.833,292.167 394.5,291.5 Z"/></g>
<g><path style="opacity:0.004" fill="#fefffe" d="M 465.5,295.5 C 466.833,296.167 466.833,296.167 465.5,295.5 Z"/></g>
<g><path style="opacity:0.677" fill="#f6d43f" d="M 374.5,294.5 C 371.948,303.733 368.948,312.733 365.5,321.5C 364.711,321.783 364.044,322.283 363.5,323C 275.999,323.832 188.666,323.666 101.5,322.5C 188.842,322.801 276.175,322.468 363.5,321.5C 363.126,318.028 364.126,315.028 366.5,312.5C 366.167,311.833 365.833,311.167 365.5,310.5C 367.085,308.207 368.585,305.873 370,303.5C 369.645,299.412 371.145,296.412 374.5,294.5 Z"/></g>
<g><path style="opacity:0.078" fill="#e5cb67" d="M 99.5,321.5 C 100.167,321.833 100.833,322.167 101.5,322.5C 188.666,323.666 275.999,323.832 363.5,323C 364.044,322.283 364.711,321.783 365.5,321.5C 365.586,322.496 365.252,323.329 364.5,324C 276.5,324.667 188.5,324.667 100.5,324C 99.7476,323.329 99.4142,322.496 99.5,321.5 Z"/></g>
<g><path style="opacity:0.004" fill="#fefffe" d="M 399.5,332.5 C 400.833,333.167 400.833,333.167 399.5,332.5 Z"/></g>
<g><path style="opacity:0.59" fill="#e3c947" d="M 344.5,380.5 C 346.833,379.833 349.167,379.167 351.5,378.5C 353.527,378.662 355.527,378.495 357.5,378C 358.685,376.647 360.019,375.48 361.5,374.5C 362.824,362.673 362.824,351.007 361.5,339.5C 275.002,338.501 188.335,338.167 101.5,338.5C 101.172,350.345 101.505,362.012 102.5,373.5C 102.737,374.791 102.404,375.791 101.5,376.5C 100.175,363.333 100.175,350.167 101.5,337C 188.833,336.333 276.167,336.333 363.5,337C 364.574,337.739 365.241,338.739 365.5,340C 364.697,351.8 364.197,363.633 364,375.5C 362.5,377 361,378.5 359.5,380C 354.511,380.499 349.511,380.666 344.5,380.5 Z"/></g>
<g><path style="opacity:1" fill="#fbd11b" d="M 361.5,339.5 C 275.792,340.611 189.792,340.778 103.5,340C 102.513,351.085 102.179,362.252 102.5,373.5C 101.505,362.012 101.172,350.345 101.5,338.5C 188.335,338.167 275.002,338.501 361.5,339.5 Z"/></g>
<g><path style="opacity:1" fill="#fed501" d="M 361.5,339.5 C 362.824,351.007 362.824,362.673 361.5,374.5C 360.019,375.48 358.685,376.647 357.5,378C 355.527,378.495 353.527,378.662 351.5,378.5C 268.811,378.822 186.144,378.489 103.5,377.5C 103.768,375.901 103.434,374.568 102.5,373.5C 102.179,362.252 102.513,351.085 103.5,340C 189.792,340.778 275.792,340.611 361.5,339.5 Z"/></g>
<g><path style="opacity:0.004" fill="#fefffe" d="M 446.5,342.5 C 447.833,343.167 447.833,343.167 446.5,342.5 Z"/></g>
<g><path style="opacity:0.004" fill="#fefffe" d="M 87.5,347.5 C 88.8333,348.167 88.8333,348.167 87.5,347.5 Z"/></g>
<g><path style="opacity:0.004" fill="#fefffe" d="M 457.5,348.5 C 458.833,349.167 458.833,349.167 457.5,348.5 Z"/></g>
<g><path style="opacity:0.004" fill="#fefffe" d="M 369.5,351.5 C 370.833,352.167 370.833,352.167 369.5,351.5 Z"/></g>
<g><path style="opacity:0.004" fill="#fefffe" d="M 58.5,356.5 C 59.8333,357.167 59.8333,357.167 58.5,356.5 Z"/></g>
<g><path style="opacity:0.004" fill="#fefffe" d="M 35.5,357.5 C 36.8333,358.167 36.8333,358.167 35.5,357.5 Z"/></g>
<g><path style="opacity:0.004" fill="#fefffe" d="M 64.5,357.5 C 65.8333,358.167 65.8333,358.167 64.5,357.5 Z"/></g>
<g><path style="opacity:0.004" fill="#fefffe" d="M 455.5,358.5 C 456.833,359.167 456.833,359.167 455.5,358.5 Z"/></g>
<g><path style="opacity:0.861" fill="#e8c829" d="M 102.5,373.5 C 103.434,374.568 103.768,375.901 103.5,377.5C 186.144,378.489 268.811,378.822 351.5,378.5C 349.167,379.167 346.833,379.833 344.5,380.5C 264.833,380.667 185.166,380.5 105.5,380C 103.907,379.051 102.574,377.885 101.5,376.5C 102.404,375.791 102.737,374.791 102.5,373.5 Z"/></g>
<g><path style="opacity:0.004" fill="#fefffe" d="M 6.5,382.5 C 7.83333,383.167 7.83333,383.167 6.5,382.5 Z"/></g>
<g><path style="opacity:0.004" fill="#fefffe" d="M 263.5,387.5 C 264.833,388.167 264.833,388.167 263.5,387.5 Z"/></g>
<g><path style="opacity:0.004" fill="#fefffe" d="M 320.5,389.5 C 321.833,390.167 321.833,390.167 320.5,389.5 Z"/></g>
<g><path style="opacity:0.004" fill="#fefffe" d="M 222.5,392.5 C 223.833,393.167 223.833,393.167 222.5,392.5 Z"/></g>
<g><path style="opacity:0.004" fill="#fefffe" d="M 160.5,395.5 C 161.833,396.167 161.833,396.167 160.5,395.5 Z"/></g>
<g><path style="opacity:0.004" fill="#fefffe" d="M 160.5,400.5 C 161.833,401.167 161.833,401.167 160.5,400.5 Z"/></g>
<g><path style="opacity:0.004" fill="#fefffe" d="M 158.5,402.5 C 159.833,403.167 159.833,403.167 158.5,402.5 Z"/></g>
<g><path style="opacity:0.004" fill="#fefffe" d="M 445.5,403.5 C 446.833,404.167 446.833,404.167 445.5,403.5 Z"/></g>
</svg>
