<?xml version="1.0" encoding="UTF-8"?>
<svg version="1.1" xmlns="http://www.w3.org/2000/svg" width="500" height="431">
<path d="M0 0 C1.96147154 -0.00391162 1.96147154 -0.00391162 3.96256876 -0.00790226 C5.43278167 -0.00573973 6.90299445 -0.00348306 8.37320709 -0.0011425 C9.92015797 -0.00229333 11.46710857 -0.00388059 13.01405859 -0.00586975 C17.28546615 -0.01006838 21.55685156 -0.00796998 25.82825923 -0.00488353 C30.42680564 -0.00263181 35.0253481 -0.0061079 39.62389374 -0.00886345 C48.64054266 -0.0133226 57.65718328 -0.01234404 66.67383254 -0.00945081 C73.99836332 -0.00719734 81.32289176 -0.00688401 88.64742279 -0.00797462 C89.68775904 -0.00812786 90.72809529 -0.00828109 91.79995689 -0.00843897 C93.91302462 -0.00875868 96.02609236 -0.00908289 98.1391601 -0.00941156 C117.97842246 -0.01226677 137.81768022 -0.00897868 157.65694183 -0.00361119 C174.69977638 0.00085688 191.74260411 0.00008096 208.78543854 -0.00452995 C228.55111189 -0.00987498 248.31678119 -0.01199208 268.08245516 -0.00891769 C270.18798351 -0.00859912 272.29351187 -0.00828475 274.39904022 -0.00797462 C275.43514587 -0.00782035 276.47125152 -0.00766607 277.53875431 -0.00750712 C284.85903574 -0.00664175 292.17931461 -0.00810527 299.49959564 -0.01045418 C308.41403872 -0.01325159 317.32847298 -0.01251517 326.24291503 -0.00717343 C330.79584989 -0.00453562 335.34877002 -0.0035327 339.90170479 -0.00682259 C344.06271185 -0.00978391 348.22369043 -0.0081955 352.38469487 -0.00284503 C353.89678555 -0.00172014 355.40887858 -0.0023136 356.92096776 -0.00472082 C358.96279791 -0.00772414 361.00463471 -0.00407187 363.04646301 0 C364.18470221 0.00016235 365.32294141 0.0003247 366.4956727 0.00049198 C369.02323151 0.12584114 369.02323151 0.12584114 370.02323151 1.12584114 C370.12131123 3.32024644 370.14694276 5.51788445 370.14627934 7.7144804 C370.14743318 8.41462095 370.14858702 9.1147615 370.14977583 9.83611843 C370.15244923 12.21181432 370.14791445 14.58744413 370.14348602 16.96313667 C370.14392158 18.67166724 370.14479619 20.38019775 370.14607519 22.08872789 C370.14832325 26.80672854 370.14429464 31.52470672 370.13929713 36.24270451 C370.13499724 41.32180733 370.13643872 46.40090877 370.1371994 51.48001289 C370.13772493 60.28757276 370.13457511 69.09512525 370.12896156 77.90268326 C370.12085048 90.63709089 370.11823175 103.37149493 370.11697357 116.10590487 C370.11478243 136.76432641 370.10812068 157.42274401 370.09867096 178.08116341 C370.08949843 198.1544054 370.08242828 218.22764631 370.07816315 238.30088997 C370.07789515 239.54986822 370.07762715 240.79884648 370.07735103 242.08567256 C370.07527173 251.85283007 370.07331477 261.61998761 370.07139647 271.38714516 C370.06195489 319.30004744 370.04183846 367.21293986 370.02323151 415.12584114 C245.61323151 415.12584114 121.20323151 415.12584114 -6.97676849 415.12584114 C-6.97676849 405.55584114 -6.97676849 395.98584114 -6.97676849 386.12584114 C-15.96688298 386.28371156 -15.96688298 386.28371156 -24.95601654 386.4861927 C-26.08048187 386.49618294 -27.2049472 386.50617317 -28.36348724 386.51646614 C-29.51035004 386.53741341 -30.65721283 386.55836067 -31.83882904 386.5799427 C-35.64119264 386.02969013 -37.25802058 384.78312923 -39.97676849 382.12584114 C-41.59106773 378.89724267 -41.57247506 375.61590461 -40.97676849 372.12584114 C-39.24074744 369.10075969 -37.14096712 366.70794046 -33.97676849 365.12584114 C-31.94444215 365.04056486 -29.90929844 365.01867979 -27.87520599 365.02818489 C-26.23817719 365.03193123 -26.23817719 365.03193123 -24.56807709 365.03575325 C-22.48100433 365.04940926 -22.48100433 365.04940926 -20.35176849 365.06334114 C-15.93801849 365.08396614 -11.52426849 365.10459114 -6.97676849 365.12584114 C-6.97676849 354.23584114 -6.97676849 343.34584114 -6.97676849 332.12584114 C-15.96688298 332.28371156 -15.96688298 332.28371156 -24.95601654 332.4861927 C-26.08048187 332.49618294 -27.2049472 332.50617317 -28.36348724 332.51646614 C-29.51035004 332.53741341 -30.65721283 332.55836067 -31.83882904 332.5799427 C-35.64119264 332.02969013 -37.25802058 330.78312923 -39.97676849 328.12584114 C-41.58524031 324.9088975 -41.58985998 321.60446892 -40.97676849 318.12584114 C-38.80102434 315.43478916 -37.06610993 313.67051186 -33.97676849 312.12584114 C-31.9460208 311.97173008 -29.91070429 311.87601661 -27.87520599 311.80943489 C-26.78385345 311.77132698 -25.69250092 311.73321907 -24.56807709 311.69395638 C-23.17669525 311.65085335 -21.78531342 311.60775032 -20.35176849 311.56334114 C-15.93801849 311.41896614 -11.52426849 311.27459114 -6.97676849 311.12584114 C-6.97676849 300.56584114 -6.97676849 290.00584114 -6.97676849 279.12584114 C-15.96607901 278.95559858 -15.96607901 278.95559858 -24.95601654 278.82798958 C-26.08048187 278.79737434 -27.2049472 278.76675911 -28.36348724 278.73521614 C-30.08378143 278.70379524 -30.08378143 278.70379524 -31.83882904 278.67173958 C-35.58943432 278.0192574 -37.27121509 276.7530217 -39.97676849 274.12584114 C-41.58524031 270.9088975 -41.58985998 267.60446892 -40.97676849 264.12584114 C-38.80102434 261.43478916 -37.06610993 259.67051186 -33.97676849 258.12584114 C-31.87147916 258.04040219 -29.76345692 258.0186939 -27.65645599 258.02818489 C-26.52449799 258.03068245 -25.39253998 258.03318001 -24.22628021 258.03575325 C-22.06089691 258.04940926 -22.06089691 258.04940926 -19.85176849 258.06334114 C-15.27301849 258.08396614 -10.69426849 258.10459114 -5.97676849 258.12584114 C-6.30676849 247.56584114 -6.63676849 237.00584114 -6.97676849 226.12584114 C-15.96607901 225.95559858 -15.96607901 225.95559858 -24.95601654 225.82798958 C-26.64271454 225.78206673 -26.64271454 225.78206673 -28.36348724 225.73521614 C-29.51035004 225.71426888 -30.65721283 225.69332161 -31.83882904 225.67173958 C-35.58943432 225.0192574 -37.27121509 223.7530217 -39.97676849 221.12584114 C-41.59106773 217.89724267 -41.57247506 214.61590461 -40.97676849 211.12584114 C-39.24074744 208.10075969 -37.14096712 205.70794046 -33.97676849 204.12584114 C-31.87147916 204.04040219 -29.76345692 204.0186939 -27.65645599 204.02818489 C-26.52449799 204.03068245 -25.39253998 204.03318001 -24.22628021 204.03575325 C-22.78269135 204.04485725 -21.33910248 204.05396126 -19.85176849 204.06334114 C-15.27301849 204.08396614 -10.69426849 204.10459114 -5.97676849 204.12584114 C-6.30676849 193.23584114 -6.63676849 182.34584114 -6.97676849 171.12584114 C-15.96688298 171.28371156 -15.96688298 171.28371156 -24.95601654 171.4861927 C-26.08048187 171.49618294 -27.2049472 171.50617317 -28.36348724 171.51646614 C-29.51035004 171.53741341 -30.65721283 171.55836067 -31.83882904 171.5799427 C-35.64119264 171.02969013 -37.25802058 169.78312923 -39.97676849 167.12584114 C-41.57763476 163.9241086 -41.47593939 160.60007055 -40.97676849 157.12584114 C-39.18312938 154.31580654 -37.95795914 152.61643646 -34.97676849 151.12584114 C-32.87301853 150.97142905 -30.76481731 150.87591475 -28.65645599 150.80943489 C-27.52449799 150.77132698 -26.39253998 150.73321907 -25.22628021 150.69395638 C-23.78269135 150.65085335 -22.33910248 150.60775032 -20.85176849 150.56334114 C-16.27301849 150.41896614 -11.69426849 150.27459114 -6.97676849 150.12584114 C-6.97676849 139.23584114 -6.97676849 128.34584114 -6.97676849 117.12584114 C-15.96688298 117.28371156 -15.96688298 117.28371156 -24.95601654 117.4861927 C-26.08048187 117.49618294 -27.2049472 117.50617317 -28.36348724 117.51646614 C-29.51035004 117.53741341 -30.65721283 117.55836067 -31.83882904 117.5799427 C-35.64119264 117.02969013 -37.25802058 115.78312923 -39.97676849 113.12584114 C-41.50891737 110.06154338 -41.20615397 107.50927694 -40.97676849 104.12584114 C-39.74177476 101.34710525 -38.81921214 99.68239528 -36.27462006 98.00132942 C-33.2405398 96.84533582 -30.70525055 96.90103676 -27.46114349 96.93052864 C-26.3341806 96.93552376 -25.20721771 96.94051888 -24.04610443 96.94566536 C-21.90803314 96.97297737 -21.90803314 96.97297737 -19.72676849 97.00084114 C-12.92051849 97.06271614 -12.92051849 97.06271614 -5.97676849 97.12584114 C-6.30676849 86.56584114 -6.63676849 76.00584114 -6.97676849 65.12584114 C-15.96607901 64.95559858 -15.96607901 64.95559858 -24.95601654 64.82798958 C-26.08048187 64.79737434 -27.2049472 64.76675911 -28.36348724 64.73521614 C-29.51035004 64.71426888 -30.65721283 64.69332161 -31.83882904 64.67173958 C-35.58943432 64.0192574 -37.27121509 62.7530217 -39.97676849 60.12584114 C-41.59217722 56.89502369 -41.56639599 53.61825016 -40.97676849 50.12584114 C-39.02019652 46.59796813 -36.86821786 44.42299093 -32.97676849 43.12584114 C-30.91177957 43.04268362 -28.8441896 43.01848236 -26.77754974 43.02818489 C-25.56905365 43.03140755 -24.36055756 43.0346302 -23.11544037 43.03795052 C-21.85280365 43.04632942 -20.59016693 43.05470833 -19.28926849 43.06334114 C-17.37791107 43.07010872 -17.37791107 43.07010872 -15.42794037 43.07701302 C-12.27750286 43.08881241 -9.12715901 43.10527517 -5.97676849 43.12584114 C-6.03006317 41.22523933 -6.03006317 41.22523933 -6.08443451 39.28624153 C-6.21441299 34.60310319 -6.33770986 29.91980899 -6.45894623 25.23643684 C-6.51244852 23.20611419 -6.56778396 21.175839 -6.62496185 19.14561653 C-6.70664399 16.234181 -6.7818185 13.32264062 -6.85567474 10.41099739 C-6.88270981 9.49745995 -6.90974487 8.5839225 -6.93759918 7.6427021 C-6.9895062 5.47099612 -6.98866086 3.29813481 -6.97676849 1.12584114 C-5.17367525 -0.67725211 -2.42967414 0.00034656 0 0 Z " fill="#FEAF03" transform="translate(85.97676849365234,15.87415885925293)"/>
<path d="M0 0 C0.75449263 -0.00467997 1.50898526 -0.00935994 2.28634131 -0.01418173 C4.82214443 -0.02617645 7.35741157 -0.01665719 9.89321899 -0.00723267 C11.70818905 -0.01129646 13.52315663 -0.01663725 15.33811951 -0.02316284 C20.27413199 -0.03686713 25.20995686 -0.03152446 30.14597273 -0.02202559 C35.30730167 -0.01444277 40.46861429 -0.02147097 45.62994385 -0.02618408 C54.30057668 -0.03164664 62.97113294 -0.02443794 71.64175415 -0.01016235 C81.66820496 0.00615482 91.69447267 0.00088443 101.72091901 -0.01564157 C110.32397478 -0.02925447 118.92697542 -0.03117674 127.53003848 -0.02332556 C132.67051165 -0.01864665 137.81089877 -0.01803 142.95136642 -0.02793503 C147.78587856 -0.03659917 152.62015471 -0.03059281 157.45464134 -0.01325226 C159.22957785 -0.00928403 161.00453419 -0.01042721 162.77946281 -0.01704025 C165.20163233 -0.02523288 167.62304479 -0.01496208 170.04516602 0 C170.74838088 -0.00669217 171.45159575 -0.01338433 172.17612016 -0.02027929 C176.460325 0.03108417 179.3474854 0.57096315 182.64956665 3.38095093 C183.27039242 5.44121456 183.27039242 5.44121456 183.26429749 7.8528595 C183.27406113 8.76834564 183.28382477 9.68383179 183.29388428 10.62705994 C183.27904999 11.62922043 183.2642157 12.63138092 183.24893188 13.66390991 C183.2528746 14.72106201 183.25681732 15.77821411 183.26087952 16.86740112 C183.26760668 20.37109355 183.23838759 23.87349114 183.2081604 27.37704468 C183.20391177 29.80697883 183.20158189 32.23691704 183.20109558 34.66685486 C183.19492243 39.76387881 183.17218582 44.86046465 183.1366272 49.95736694 C183.0913783 56.49578187 183.07660302 63.0337992 183.07289028 69.57235622 C183.06846381 74.59175043 183.05316325 79.6110609 183.03401375 84.63041878 C183.0251242 87.04139579 183.01839777 89.45238177 183.01385307 91.8633709 C183.00482265 95.23193282 182.98244094 98.60013319 182.95596313 101.96859741 C182.95529846 102.96873367 182.95463379 103.96886993 182.95394897 104.99931335 C182.93898628 106.37677231 182.93898628 106.37677231 182.92372131 107.78205872 C182.91907081 108.57827857 182.9144203 109.37449842 182.90962887 110.19484615 C182.62031379 112.62685296 181.86148317 114.26927715 180.64956665 116.38095093 C156.18926116 116.47430148 131.72898227 116.54488459 107.26853466 116.58819962 C95.91167949 116.60884414 84.55493486 116.63700082 73.19815063 116.68270874 C63.30210893 116.72251866 53.40614726 116.74836998 43.51002771 116.75730491 C38.26778116 116.76252957 33.02576362 116.77484857 27.78359032 116.80387115 C22.85309495 116.83094795 17.92292372 116.83941163 12.99236107 116.83338165 C11.17947633 116.83448537 9.36658115 116.84248518 7.55376053 116.85777283 C5.08461665 116.8775802 2.61670775 116.87292472 0.14753723 116.86196899 C-0.9366024 116.87944604 -0.9366024 116.87944604 -2.04264385 116.89727616 C-5.18192419 116.8594434 -6.91270894 116.77316995 -9.29524708 114.63831806 C-10.46217766 112.14189557 -10.72748218 110.52893247 -10.73138428 107.78205872 C-10.73984375 106.86375275 -10.74830322 105.94544678 -10.75701904 104.99931335 C-10.75094635 103.99917709 -10.74487366 102.99904083 -10.73861694 101.96859741 C-10.7438739 100.90969299 -10.74913086 99.85078857 -10.75454712 98.75979614 C-10.76775906 95.25706262 -10.75900513 91.75478288 -10.74887085 88.25204468 C-10.75089108 85.82114067 -10.75380209 83.39023726 -10.75756836 80.95933533 C-10.76199322 75.86421947 -10.7555547 70.76926135 -10.74154663 65.67416382 C-10.72444579 59.1345157 -10.73430091 52.59523668 -10.75226402 46.05560207 C-10.76308961 41.03626204 -10.75966127 36.01700995 -10.75188065 30.99766731 C-10.74987573 28.58585631 -10.75234809 26.1740374 -10.75931931 23.76223564 C-10.76691445 20.39591096 -10.75535663 17.03018952 -10.73861694 13.66390991 C-10.74468964 12.66174942 -10.75076233 11.65958893 -10.75701904 10.62705994 C-10.74855957 9.71157379 -10.7401001 8.79608765 -10.73138428 7.8528595 C-10.7302532 7.05701667 -10.72912212 6.26117384 -10.72795677 5.44121456 C-10.35043335 3.38095093 -10.35043335 3.38095093 -9.286026 1.62526608 C-6.3414945 -0.26765553 -3.38872406 -0.03204558 0 0 Z " fill="#FDB707" transform="translate(195.35043334960938,83.61904907226563)"/>
<path d="M0 0 C9.57 0 19.14 0 29 0 C29 14.19 29 28.38 29 43 C32.3 43 35.6 43 39 43 C42.625 44.9375 42.625 44.9375 45 48 C45.89040593 52.20511036 45.69050225 55.68475762 43.6875 59.5 C39.28647887 63.41201878 35.18181571 62 29 62 C29 73.55 29 85.1 29 97 C32.96 97 36.92 97 41 97 C45.58475894 101.58475894 45.58475894 101.58475894 45.625 105.9375 C45.43916818 109.86900451 45.10793906 110.85797492 42.625 114.125 C39 116 39 116 29 116 C29 127.55 29 139.1 29 151 C32.96 151 36.92 151 41 151 C45 154 45 154 45.6796875 156.12109375 C45.74414062 156.88550781 45.80859375 157.64992187 45.875 158.4375 C45.99488281 159.58025391 45.99488281 159.58025391 46.1171875 160.74609375 C45.9793151 163.39783957 45.49785828 164.80903338 44 167 C40 169 40 169 28 169 C28.33 180.55 28.66 192.1 29 204 C32.96 204.33 36.92 204.66 41 205 C45 208 45 208 45.53125 210.55859375 C45.5209375 211.50863281 45.510625 212.45867187 45.5 213.4375 C45.5103125 214.38496094 45.520625 215.33242187 45.53125 216.30859375 C45 219 45 219 41 223 C37.04 223 33.08 223 29 223 C29 234.55 29 246.1 29 258 C31.97 258 34.94 258 38 258 C41.21932007 258.9589464 42.63128979 259.63128979 45 262 C45.62712744 265.40699041 45.58897579 268.58929472 45 272 C42.625 275.125 42.625 275.125 39 277 C35.7 277 32.4 277 29 277 C29 288.22 29 299.44 29 311 C32.63 311 36.26 311 40 311 C44.24712552 314.52727374 45.62939305 316.23961697 46.75 321.5625 C45.63258683 326.68397701 44.36409871 327.96732124 40 331 C36.37 331 32.74 331 29 331 C29 342.22 29 353.44 29 365 C32.3 365 35.6 365 39 365 C44.42857143 367.85714286 44.42857143 367.85714286 46 371 C46.46343537 376.74659864 46.46343537 376.74659864 46 379 C42 383 42 383 29 385 C28.67 394.57 28.34 404.14 28 414 C18.76 414 9.52 414 0 414 C0 404.43 0 394.86 0 385 C-8.99011448 385.15787042 -8.99011448 385.15787042 -17.97924805 385.36035156 C-19.10371338 385.3703418 -20.22817871 385.38033203 -21.38671875 385.390625 C-22.53358154 385.41157227 -23.68044434 385.43251953 -24.86206055 385.45410156 C-28.66442415 384.90384899 -30.28125209 383.65728809 -33 381 C-34.61429923 377.77140153 -34.59570657 374.49006347 -34 371 C-32.26397895 367.97491855 -30.16419863 365.58209931 -27 364 C-24.96767366 363.91472372 -22.93252994 363.89283865 -20.8984375 363.90234375 C-19.26140869 363.90609009 -19.26140869 363.90609009 -17.59130859 363.90991211 C-15.50423584 363.92356812 -15.50423584 363.92356812 -13.375 363.9375 C-8.96125 363.958125 -4.5475 363.97875 0 364 C0 353.11 0 342.22 0 331 C-8.99011448 331.15787042 -8.99011448 331.15787042 -17.97924805 331.36035156 C-19.10371338 331.3703418 -20.22817871 331.38033203 -21.38671875 331.390625 C-22.53358154 331.41157227 -23.68044434 331.43251953 -24.86206055 331.45410156 C-28.66442415 330.90384899 -30.28125209 329.65728809 -33 327 C-34.60847182 323.78305636 -34.61309149 320.47862778 -34 317 C-31.82425584 314.30894802 -30.08934144 312.54467072 -27 311 C-24.9692523 310.84588894 -22.93393579 310.75017547 -20.8984375 310.68359375 C-19.80708496 310.64548584 -18.71573242 310.60737793 -17.59130859 310.56811523 C-16.19992676 310.52501221 -14.80854492 310.48190918 -13.375 310.4375 C-8.96125 310.293125 -4.5475 310.14875 0 310 C0 299.44 0 288.88 0 278 C-8.98931052 277.82975743 -8.98931052 277.82975743 -17.97924805 277.70214844 C-19.10371338 277.6715332 -20.22817871 277.64091797 -21.38671875 277.609375 C-23.10701294 277.5779541 -23.10701294 277.5779541 -24.86206055 277.54589844 C-28.61266583 276.89341626 -30.2944466 275.62718056 -33 273 C-34.60847182 269.78305636 -34.61309149 266.47862778 -34 263 C-31.82425584 260.30894802 -30.08934144 258.54467072 -27 257 C-24.89471067 256.91456105 -22.78668843 256.89285275 -20.6796875 256.90234375 C-19.54772949 256.90484131 -18.41577148 256.90733887 -17.24951172 256.90991211 C-15.08412842 256.92356812 -15.08412842 256.92356812 -12.875 256.9375 C-8.29625 256.958125 -3.7175 256.97875 1 257 C0.67 246.44 0.34 235.88 0 225 C-8.98931052 224.82975743 -8.98931052 224.82975743 -17.97924805 224.70214844 C-19.66594604 224.65622559 -19.66594604 224.65622559 -21.38671875 224.609375 C-22.53358154 224.58842773 -23.68044434 224.56748047 -24.86206055 224.54589844 C-28.61266583 223.89341626 -30.2944466 222.62718056 -33 220 C-34.61429923 216.77140153 -34.59570657 213.49006347 -34 210 C-32.26397895 206.97491855 -30.16419863 204.58209931 -27 203 C-24.89471067 202.91456105 -22.78668843 202.89285275 -20.6796875 202.90234375 C-19.54772949 202.90484131 -18.41577148 202.90733887 -17.24951172 202.90991211 C-15.80592285 202.91901611 -14.36233398 202.92812012 -12.875 202.9375 C-8.29625 202.958125 -3.7175 202.97875 1 203 C0.67 192.11 0.34 181.22 0 170 C-8.99011448 170.15787042 -8.99011448 170.15787042 -17.97924805 170.36035156 C-19.10371338 170.3703418 -20.22817871 170.38033203 -21.38671875 170.390625 C-22.53358154 170.41157227 -23.68044434 170.43251953 -24.86206055 170.45410156 C-28.66442415 169.90384899 -30.28125209 168.65728809 -33 166 C-34.60086627 162.79826746 -34.49917089 159.47422941 -34 156 C-32.20636089 153.1899654 -30.98119065 151.49059532 -28 150 C-25.89625004 149.84558791 -23.78804881 149.75007361 -21.6796875 149.68359375 C-20.54772949 149.64548584 -19.41577148 149.60737793 -18.24951172 149.56811523 C-16.80592285 149.52501221 -15.36233398 149.48190918 -13.875 149.4375 C-9.29625 149.293125 -4.7175 149.14875 0 149 C0 138.11 0 127.22 0 116 C-8.99011448 116.15787042 -8.99011448 116.15787042 -17.97924805 116.36035156 C-19.10371338 116.3703418 -20.22817871 116.38033203 -21.38671875 116.390625 C-22.53358154 116.41157227 -23.68044434 116.43251953 -24.86206055 116.45410156 C-28.66442415 115.90384899 -30.28125209 114.65728809 -33 112 C-34.53214888 108.93570224 -34.22938548 106.3834358 -34 103 C-32.76500627 100.22126411 -31.84244365 98.55655414 -29.29785156 96.87548828 C-26.2637713 95.71949468 -23.72848206 95.77519562 -20.484375 95.8046875 C-19.35741211 95.80968262 -18.23044922 95.81467773 -17.06933594 95.81982422 C-14.93126465 95.84713623 -14.93126465 95.84713623 -12.75 95.875 C-5.94375 95.936875 -5.94375 95.936875 1 96 C0.67 85.44 0.34 74.88 0 64 C-8.98931052 63.82975743 -8.98931052 63.82975743 -17.97924805 63.70214844 C-19.66594604 63.65622559 -19.66594604 63.65622559 -21.38671875 63.609375 C-22.53358154 63.58842773 -23.68044434 63.56748047 -24.86206055 63.54589844 C-28.61266583 62.89341626 -30.2944466 61.62718056 -33 59 C-34.61540873 55.76918255 -34.5896275 52.49240902 -34 49 C-32.04342803 45.47212699 -29.89144937 43.29714979 -26 42 C-23.93501108 41.91684248 -21.8674211 41.89264122 -19.80078125 41.90234375 C-18.71192627 41.90484131 -17.62307129 41.90733887 -16.5012207 41.90991211 C-15.11894287 41.91901611 -13.73666504 41.92812012 -12.3125 41.9375 C-5.7228125 41.9684375 -5.7228125 41.9684375 1 42 C0.505 21.21 0.505 21.21 0 0 Z " fill="#767574" transform="translate(79,17)"/>
<path d="M0 0 C47.75576074 -0.02286424 95.5115209 -0.04049714 143.26728603 -0.05106533 C148.8989752 -0.05231611 154.53066436 -0.05361043 160.16235352 -0.05493164 C161.28357174 -0.05519395 162.40478997 -0.05545626 163.55998451 -0.05572652 C181.73994975 -0.06008369 199.91991184 -0.06797149 218.0998752 -0.0771528 C236.73943438 -0.08648805 255.3789919 -0.09205534 274.01855332 -0.09408849 C285.52999737 -0.09546399 297.04143254 -0.09981601 308.55287386 -0.10791647 C316.43530701 -0.11318234 324.31773554 -0.11480466 332.20017033 -0.11350138 C336.75512467 -0.11285775 341.31006343 -0.1138783 345.86501503 -0.11920547 C350.0279104 -0.12403887 354.19077956 -0.12433905 358.35367609 -0.12089889 C359.86647041 -0.12047314 361.3792663 -0.12176938 362.89205747 -0.12488318 C364.93484729 -0.12884627 366.97764689 -0.12615675 369.02043819 -0.12304783 C370.15921946 -0.12342755 371.29800074 -0.12380727 372.47129053 -0.1241985 C375 0 375 0 376 1 C376.09807972 3.19440529 376.12371125 5.3920433 376.12304783 7.58863926 C376.12420167 8.28877981 376.12535552 8.98892036 376.12654433 9.71027729 C376.12921772 12.08597318 376.12468294 14.46160299 376.12025452 16.83729553 C376.12069007 18.5458261 376.12156469 20.25435661 376.12284368 21.96288675 C376.12509174 26.6808874 376.12106314 31.39886558 376.11606562 36.11686337 C376.11176574 41.19596619 376.11320721 46.27506763 376.1139679 51.35417175 C376.11449343 60.16173162 376.11134361 68.96928411 376.10573006 77.77684212 C376.09761897 90.51124975 376.09500024 103.24565379 376.09374207 115.98006373 C376.09155093 136.63848527 376.08488918 157.29690287 376.07543945 177.95532227 C376.06626693 198.02856425 376.05918532 218.10180517 376.05493164 238.17504883 C376.05453756 240.029579 376.05453756 240.029579 376.05413551 241.92157442 C376.05283052 248.12370928 376.0515668 254.32584415 376.05032361 260.52797902 C376.03994907 312.01865543 376.02225499 363.50932746 376 415 C367.75 415 359.5 415 351 415 C352 409 352 409 353.5234375 407.50390625 C355.31271614 406.59416753 357.15667338 405.79453733 359 405 C359.99 405.33 360.98 405.66 362 406 C362 275.98 362 145.96 362 12 C251.78 12 141.56 12 28 12 C28 8.37 28 4.74 28 1 C18.76 1 9.52 1 0 1 C0 0.67 0 0.34 0 0 Z " fill="#DDAB2E" transform="translate(80,16)"/>
<path d="M0 0 C0.75449263 -0.00467997 1.50898526 -0.00935994 2.28634131 -0.01418173 C4.82214443 -0.02617645 7.35741157 -0.01665719 9.89321899 -0.00723267 C11.70818905 -0.01129646 13.52315663 -0.01663725 15.33811951 -0.02316284 C20.27413199 -0.03686713 25.20995686 -0.03152446 30.14597273 -0.02202559 C35.30730167 -0.01444277 40.46861429 -0.02147097 45.62994385 -0.02618408 C54.30057668 -0.03164664 62.97113294 -0.02443794 71.64175415 -0.01016235 C81.66820496 0.00615482 91.69447267 0.00088443 101.72091901 -0.01564157 C110.32397478 -0.02925447 118.92697542 -0.03117674 127.53003848 -0.02332556 C132.67051165 -0.01864665 137.81089877 -0.01803 142.95136642 -0.02793503 C147.78587856 -0.03659917 152.62015471 -0.03059281 157.45464134 -0.01325226 C159.22957785 -0.00928403 161.00453419 -0.01042721 162.77946281 -0.01704025 C165.20163233 -0.02523288 167.62304479 -0.01496208 170.04516602 0 C170.74838088 -0.00669217 171.45159575 -0.01338433 172.17612016 -0.02027929 C176.460325 0.03108417 179.3474854 0.57096315 182.64956665 3.38095093 C183.27039242 5.44121456 183.27039242 5.44121456 183.26429749 7.8528595 C183.27406113 8.76834564 183.28382477 9.68383179 183.29388428 10.62705994 C183.27904999 11.62922043 183.2642157 12.63138092 183.24893188 13.66390991 C183.2528746 14.72106201 183.25681732 15.77821411 183.26087952 16.86740112 C183.26760668 20.37109355 183.23838759 23.87349114 183.2081604 27.37704468 C183.20391177 29.80697883 183.20158189 32.23691704 183.20109558 34.66685486 C183.19492243 39.76387881 183.17218582 44.86046465 183.1366272 49.95736694 C183.0913783 56.49578187 183.07660302 63.0337992 183.07289028 69.57235622 C183.06846381 74.59175043 183.05316325 79.6110609 183.03401375 84.63041878 C183.0251242 87.04139579 183.01839777 89.45238177 183.01385307 91.8633709 C183.00482265 95.23193282 182.98244094 98.60013319 182.95596313 101.96859741 C182.95529846 102.96873367 182.95463379 103.96886993 182.95394897 104.99931335 C182.93898628 106.37677231 182.93898628 106.37677231 182.92372131 107.78205872 C182.91907081 108.57827857 182.9144203 109.37449842 182.90962887 110.19484615 C182.62031379 112.62685296 181.86148317 114.26927715 180.64956665 116.38095093 C156.18926116 116.47430148 131.72898227 116.54488459 107.26853466 116.58819962 C95.91167949 116.60884414 84.55493486 116.63700082 73.19815063 116.68270874 C63.30210893 116.72251866 53.40614726 116.74836998 43.51002771 116.75730491 C38.26778116 116.76252957 33.02576362 116.77484857 27.78359032 116.80387115 C22.85309495 116.83094795 17.92292372 116.83941163 12.99236107 116.83338165 C11.17947633 116.83448537 9.36658115 116.84248518 7.55376053 116.85777283 C5.08461665 116.8775802 2.61670775 116.87292472 0.14753723 116.86196899 C-0.9366024 116.87944604 -0.9366024 116.87944604 -2.04264385 116.89727616 C-5.18192419 116.8594434 -6.91270894 116.77316995 -9.29524708 114.63831806 C-10.46217766 112.14189557 -10.72748218 110.52893247 -10.73138428 107.78205872 C-10.73984375 106.86375275 -10.74830322 105.94544678 -10.75701904 104.99931335 C-10.75094635 103.99917709 -10.74487366 102.99904083 -10.73861694 101.96859741 C-10.7438739 100.90969299 -10.74913086 99.85078857 -10.75454712 98.75979614 C-10.76775906 95.25706262 -10.75900513 91.75478288 -10.74887085 88.25204468 C-10.75089108 85.82114067 -10.75380209 83.39023726 -10.75756836 80.95933533 C-10.76199322 75.86421947 -10.7555547 70.76926135 -10.74154663 65.67416382 C-10.72444579 59.1345157 -10.73430091 52.59523668 -10.75226402 46.05560207 C-10.76308961 41.03626204 -10.75966127 36.01700995 -10.75188065 30.99766731 C-10.74987573 28.58585631 -10.75234809 26.1740374 -10.75931931 23.76223564 C-10.76691445 20.39591096 -10.75535663 17.03018952 -10.73861694 13.66390991 C-10.74468964 12.66174942 -10.75076233 11.65958893 -10.75701904 10.62705994 C-10.74855957 9.71157379 -10.7401001 8.79608765 -10.73138428 7.8528595 C-10.7302532 7.05701667 -10.72912212 6.26117384 -10.72795677 5.44121456 C-10.35043335 3.38095093 -10.35043335 3.38095093 -9.286026 1.62526608 C-6.3414945 -0.26765553 -3.38872406 -0.03204558 0 0 Z M2.64956665 14.38095093 C2.62894165 28.88032593 2.60831665 43.37970093 2.58706665 58.31845093 C2.57796265 62.90356567 2.56885864 67.48868042 2.55947876 72.21273804 C2.55613517 76.30820427 2.55613517 76.30820427 2.55412292 80.40367126 C2.55258323 82.23362979 2.54905777 84.06358727 2.54399109 85.89353943 C2.53671479 88.65881118 2.53565919 91.42402071 2.53604126 94.18930054 C2.53244315 95.01011832 2.52884504 95.83093611 2.5251379 96.67662716 C2.18433284 100.32818068 2.18433284 100.32818068 3.64956665 103.38095093 C5.78849932 103.47787156 7.93069632 103.50281895 10.07182312 103.50120544 C10.75054724 103.50205987 11.42927135 103.50291429 12.12856287 103.50379461 C14.41952591 103.50545134 16.71041691 103.49992493 19.00137329 103.49447632 C20.63696796 103.49419446 22.27256275 103.49435215 23.90815735 103.49491882 C28.36251251 103.49520686 32.81684099 103.48930917 37.27118993 103.48234487 C41.92103139 103.47611232 46.57087339 103.47550761 51.22071838 103.47431946 C60.03218368 103.47120585 68.84363663 103.46299206 77.65509647 103.45296997 C89.55755888 103.43972478 101.46002464 103.43430916 113.36249256 103.42846775 C132.12485984 103.41905219 150.88720108 103.39913347 169.64956665 103.38095093 C169.64956665 74.01095093 169.64956665 44.64095093 169.64956665 14.38095093 C114.53956665 14.38095093 59.42956665 14.38095093 2.64956665 14.38095093 Z " fill="#FEDF7E" transform="translate(195.35043334960938,83.61904907226563)"/>
<path d="M0 0 C0.88320419 -0.00701431 1.76640839 -0.01402863 2.67637634 -0.02125549 C4.11811974 -0.00978989 4.11811974 -0.00978989 5.58898926 0.00190735 C6.6072731 -0.00174332 7.62555695 -0.00539398 8.67469788 -0.00915527 C12.04278203 -0.01726538 15.41038578 -0.00364647 18.77844238 0.01094055 C21.11726888 0.0114591 23.45609581 0.0109416 25.79492188 0.00942993 C30.69753523 0.00951968 35.59998422 0.01995383 40.50256348 0.03804016 C46.79095103 0.06072723 53.07909835 0.0612716 59.36751556 0.05452251 C64.19730774 0.05118311 69.02704501 0.05781211 73.85682678 0.06765175 C76.17570203 0.07150452 78.49458339 0.07265165 80.8134613 0.0710659 C84.05255801 0.07069559 87.29134523 0.08330628 90.53039551 0.0995636 C91.49155777 0.09708618 92.45272003 0.09460876 93.44300842 0.09205627 C94.76781471 0.10268349 94.76781471 0.10268349 96.11938477 0.11352539 C97.26752026 0.1166047 97.26752026 0.1166047 98.4388504 0.11974621 C100.55969238 0.3742218 100.55969238 0.3742218 104.55969238 2.3742218 C104.55969238 5.6742218 104.55969238 8.9742218 104.55969238 12.3742218 C103.89969238 12.3742218 103.23969238 12.3742218 102.55969238 12.3742218 C102.55969238 13.0342218 102.55969238 13.6942218 102.55969238 14.3742218 C88.53009042 14.44427331 74.50051554 14.49699161 60.47077465 14.52965832 C53.95665115 14.54533431 47.44264489 14.56660801 40.92858887 14.60054016 C34.64570776 14.63306441 28.36293963 14.65106024 22.07998085 14.65885353 C19.67931654 14.6644095 17.27865862 14.6752585 14.87804222 14.69141197 C11.5233344 14.71309375 8.16909732 14.71619257 4.81433105 14.71479797 C3.31569016 14.73097672 3.31569016 14.73097672 1.78677368 14.7474823 C0.87392105 14.74335831 -0.03893158 14.73923431 -0.97944641 14.73498535 C-1.77311017 14.73775073 -2.56677393 14.74051611 -3.38448811 14.74336529 C-5.96533019 14.27994861 -6.84573218 13.41620757 -8.44030762 11.3742218 C-8.87390137 9.4367218 -8.87390137 9.4367218 -8.87780762 7.3742218 C-8.89714355 6.6935968 -8.91647949 6.0129718 -8.93640137 5.3117218 C-7.83147313 0.99641153 -4.03303338 -0.00088383 0 0 Z " fill="#FEE080" transform="translate(233.4403076171875,151.6257781982422)"/>
<path d="M0 0 C1.26819077 -0.00960754 2.53638153 -0.01921509 3.84300232 -0.02911377 C5.22874776 -0.03396116 6.6144953 -0.03824014 8.00024414 -0.04199219 C9.42126975 -0.04774551 10.84229535 -0.05350322 12.26332092 -0.05926514 C15.24163168 -0.06976496 18.21991553 -0.07561458 21.19824219 -0.07910156 C25.01269078 -0.08459042 28.82678317 -0.10863065 32.64111996 -0.13707352 C35.57594339 -0.1557036 38.51068097 -0.16090563 41.44555855 -0.16243744 C42.85177118 -0.16546266 44.25798235 -0.17348685 45.66413689 -0.18662262 C47.63148809 -0.20369212 49.59898648 -0.19995674 51.56640625 -0.1953125 C53.24493935 -0.20078094 53.24493935 -0.20078094 54.9573822 -0.20635986 C58.17342927 0.20251968 59.55501857 0.90536402 61.84790039 3.16113281 C62.37589715 5.92255584 62.0338902 8.32478826 61.84790039 11.16113281 C60.85790039 11.49113281 59.86790039 11.82113281 58.84790039 12.16113281 C58.84790039 12.82113281 58.84790039 13.48113281 58.84790039 14.16113281 C50.16403789 14.23060455 41.48027086 14.28392951 32.79619122 14.31656933 C28.76393006 14.33223383 24.73185886 14.35348612 20.69970703 14.38745117 C16.80936119 14.42001711 12.91919819 14.43797992 9.02872658 14.44576454 C7.54352756 14.45131307 6.05833869 14.46214792 4.57321739 14.47832298 C2.49487967 14.50006132 0.41730007 14.50310137 -1.66113281 14.50170898 C-2.84471878 14.50837082 -4.02830475 14.51503265 -5.24775696 14.52189636 C-8.15209961 14.16113281 -8.15209961 14.16113281 -10.03947449 12.76753235 C-12.09977567 9.79288546 -11.32446508 6.6658973 -11.15209961 3.16113281 C-10.49209961 3.16113281 -9.83209961 3.16113281 -9.15209961 3.16113281 C-9.15209961 2.50113281 -9.15209961 1.84113281 -9.15209961 1.16113281 C-5.87858721 0.06996201 -3.44625388 0.02104317 0 0 Z " fill="#FEDF7C" transform="translate(256.152099609375,124.8388671875)"/>
<path d="M0 0 C110.22 0 220.44 0 334 0 C333.67 0.66 333.34 1.32 333 2 C332.30710111 1.99886084 331.61420223 1.99772168 330.9003064 1.996548 C289.86602052 1.92946579 248.83174099 1.87796667 207.79741133 1.84680401 C202.87429952 1.84305173 197.95118782 1.83916878 193.02807617 1.83520508 C192.04794146 1.83441815 191.06780674 1.83363122 190.05797098 1.83282044 C174.17172493 1.8197538 158.28551134 1.79609306 142.39928456 1.76854161 C126.10788333 1.74052237 109.81649913 1.72383113 93.52507478 1.71773452 C83.46615814 1.71361083 73.40733321 1.70056994 63.3484448 1.6762506 C56.45789046 1.66043634 49.56738379 1.65558982 42.67681261 1.65949587 C38.69672928 1.66142416 34.71680659 1.65839452 30.73675156 1.64238358 C27.09672691 1.62784683 23.45697183 1.62700668 19.8169351 1.63730332 C17.86861565 1.63918272 15.92029963 1.62618814 13.97202557 1.61275607 C12.24923523 1.62171579 12.24923523 1.62171579 10.49164104 1.63085651 C9.49639406 1.62971735 8.50114707 1.62857819 7.47574109 1.62740451 C4.96143666 1.80693327 4.96143666 1.80693327 3.18379575 3.35261554 C1.39997576 5.83500098 1.56207372 7.95497739 1.48828125 10.98046875 C1.45283203 12.14384766 1.41738281 13.30722656 1.38085938 14.50585938 C1.35830078 15.72080078 1.33574219 16.93574219 1.3125 18.1875 C1.27833984 19.41404297 1.24417969 20.64058594 1.20898438 21.90429688 C1.1264059 24.93610678 1.05728631 27.96762379 1 31 C4.3 31 7.6 31 11 31 C11.33 31.66 11.66 32.32 12 33 C8.04 32.67 4.08 32.34 0 32 C0 21.44 0 10.88 0 0 Z " fill="#F1B90F" transform="translate(108,28)"/>
<path d="M0 0 C13.62120244 -0.04630062 27.24238622 -0.08185767 40.86365128 -0.10362434 C47.1882632 -0.11407021 53.51282136 -0.12824414 59.83740234 -0.15087891 C65.93873372 -0.17257852 72.04001333 -0.18456258 78.14138031 -0.18975449 C80.47143113 -0.19345541 82.80147905 -0.20068221 85.13150787 -0.21146011 C88.39014351 -0.2259366 91.64856404 -0.22797954 94.90722656 -0.22705078 C95.874673 -0.23424133 96.84211945 -0.24143188 97.83888245 -0.24884033 C99.1723597 -0.24471634 99.1723597 -0.24471634 100.53277588 -0.24050903 C101.30339481 -0.24235262 102.07401375 -0.24419621 102.86798477 -0.24609566 C105 0 105 0 109 2 C109 5.3 109 8.6 109 12 C108.67 12 108.34 12 108 12 C107.505 8.535 107.505 8.535 107 5 C101.60057312 3.20472379 96.87938128 2.7012507 91.20996094 2.69702148 C89.93282982 2.68436249 89.93282982 2.68436249 88.62989807 2.67144775 C85.83138424 2.64578199 83.032976 2.63355006 80.234375 2.62109375 C78.27532132 2.60489929 76.31627557 2.58771728 74.35723877 2.56959534 C69.20603132 2.5239945 64.05481275 2.48916052 58.90350342 2.45739746 C50.67400811 2.40547234 42.4446317 2.33986032 34.21527863 2.26918221 C31.35558589 2.24655823 28.49590752 2.23014869 25.63616943 2.21446228 C17.04716184 2.15514232 8.53833273 2.05978711 0 1 C0 0.67 0 0.34 0 0 Z " fill="#FCD65C" transform="translate(229,152)"/>
<path d="M0 0 C3.3 0 6.6 0 10 0 C10 0.33 10 0.66 10 1 C7.03 1 4.06 1 1 1 C1 11.56 1 22.12 1 33 C3.97 33 6.94 33 10 33 C11.32 33.33 12.64 33.66 14 34 C14 34.66 14 35.32 14 36 C14.99 36.33 15.98 36.66 17 37 C18.3461031 41.0383093 18.57269422 44.77733461 18 49 C16.12379387 51.50160818 14.76108697 52.61945652 12 54 C8.37 54 4.74 54 1 54 C1 64.89 1 75.78 1 87 C3.64 87 6.28 87 9 87 C12 87.5 12 87.5 14 88 C14.33 89.32 14.66 90.64 15 92 C14.01 91.34 13.02 90.68 12 90 C9.06439861 89.57796044 9.06439861 89.57796044 5.875 89.4375 C0.09808917 89.09808917 0.09808917 89.09808917 -1 88 C-1.08851529 85.40640678 -1.11525945 82.83960309 -1.09765625 80.24609375 C-1.09553383 79.08292381 -1.09553383 79.08292381 -1.09336853 77.89625549 C-1.08775345 75.40996506 -1.07519846 72.9237634 -1.0625 70.4375 C-1.05748694 68.75586067 -1.0529237 67.07421994 -1.04882812 65.39257812 C-1.03777913 61.26168434 -1.02050445 57.13085724 -1 53 C-0.18015625 52.95101562 0.6396875 52.90203125 1.484375 52.8515625 C3.10085937 52.73941406 3.10085937 52.73941406 4.75 52.625 C6.35101563 52.52058594 6.35101563 52.52058594 7.984375 52.4140625 C10.8230135 52.02430125 12.62443542 51.56906093 15 50 C15.73796999 47.92072133 15.73796999 47.92072133 15.8125 45.5625 C15.91498047 44.38880859 15.91498047 44.38880859 16.01953125 43.19140625 C16.11080464 40.81948017 16.11080464 40.81948017 15 38 C10.92898075 34.93665831 10.92898075 34.93665831 0 35 C0 23.45 0 11.9 0 0 Z " fill="#D0A333" transform="translate(108,133)"/>
<path d="M0 0 C9.34984403 -1.04811419 9.34984403 -1.04811419 13.06640625 1.3125 C15.83633076 4.30268356 16.90470565 6.54735182 17.75 10.5625 C16.90672348 14.4275174 15.96470426 16.27724456 13.06640625 18.91015625 C8.99042251 21.05987168 4.4660899 20.42912608 0 20 C0 19.34 0 18.68 0 18 C0.66 18 1.32 18 2 18 C2 17.34 2 16.68 2 16 C4.64 16 7.28 16 10 16 C10.33 14.02 10.66 12.04 11 10 C10.01 10 9.02 10 8 10 C8 10.66 8 11.32 8 12 C7.34 12 6.68 12 6 12 C6.875 6.125 6.875 6.125 8 5 C6.02 4.34 4.04 3.68 2 3 C2 3.66 2 4.32 2 5 C1.34 5 0.68 5 0 5 C0 3.35 0 1.7 0 0 Z " fill="#757572" transform="translate(108,328)"/>
<path d="M0 0 C0.66 0 1.32 0 2 0 C2.15365214 11.30877642 2.30183393 22.61760987 2.4429636 33.92654991 C2.50866373 39.17731027 2.57627323 44.42803179 2.64819336 49.67871094 C2.71748507 54.74256139 2.78183049 59.80645241 2.84269524 64.87041092 C2.86683633 66.8057955 2.89278272 68.74115841 2.92053413 70.6764946 C2.95899476 73.37983559 2.99113025 76.08318132 3.02172852 78.78662109 C3.03467453 79.59294479 3.04762054 80.39926849 3.06095886 81.23002625 C3.11405216 86.77189568 3.11405216 86.77189568 2 89 C1.34 89 0.68 89 0 89 C0 59.63 0 30.26 0 0 Z " fill="#FEDC67" transform="translate(365,98)"/>
<path d="M0 0 C2.375 0.25 2.375 0.25 5 1 C7.66011341 4.29347375 7.35664501 7.93424686 7 12 C5.75 14.875 5.75 14.875 4 17 C1.8125 17.8125 1.8125 17.8125 0 18 C0 18.66 0 19.32 0 20 C-3.63 20 -7.26 20 -11 20 C-11 30.56 -11 41.12 -11 52 C-6.71 52 -2.42 52 2 52 C2 52.66 2 53.32 2 54 C2.66 54 3.32 54 4 54 C5.48520725 56.97041449 5.1705822 59.69764447 5.1875 63 C5.20167969 64.258125 5.21585938 65.51625 5.23046875 66.8125 C5 70 5 70 3 72 C0.375 72.125 0.375 72.125 -2 72 C-1.195625 71.38125 -0.39125 70.7625 0.4375 70.125 C4.15135247 66.50556751 3.89481263 61.92468119 4 57 C2.68 56.34 1.36 55.68 0 55 C0 54.34 0 53.68 0 53 C-3.96 53 -7.92 53 -12 53 C-12 41.45 -12 29.9 -12 18 C-7.71 17.34 -3.42 16.68 1 16 C3.67548031 11.98677954 3.58740465 8.71626345 3 4 C1.68236671 1.4810733 1.68236671 1.4810733 0 0 Z " fill="#E5B62A" transform="translate(120,61)"/>
<path d="M0 0 C0.33 0 0.66 0 1 0 C1 2.64 1 5.28 1 8 C0.01 8.33 -0.98 8.66 -2 9 C-2 9.66 -2 10.32 -2 11 C-24.11 11 -46.22 11 -69 11 C-69 10.67 -69 10.34 -69 10 C-62.02609512 8.94197484 -55.15551512 8.8167111 -48.109375 8.75390625 C-45.60155862 8.72099785 -43.0937462 8.68778575 -40.5859375 8.65429688 C-36.65334535 8.60672917 -32.72077264 8.56221003 -28.78808594 8.52319336 C-24.97835746 8.48357788 -21.16893545 8.43204511 -17.359375 8.37890625 C-15.5905899 8.36628502 -15.5905899 8.36628502 -13.78607178 8.35340881 C-12.69103333 8.33676682 -11.59599487 8.32012482 -10.46777344 8.30297852 C-9.50595154 8.29267105 -8.54412964 8.28236359 -7.55316162 8.27174377 C-4.86390124 7.98551443 -3.22380937 7.53420717 -1 6 C-0.18415432 2.94091587 -0.18415432 2.94091587 0 0 Z " fill="#FFDB63" transform="translate(317,128)"/>
<path d="M0 0 C1.485 0.99 1.485 0.99 3 2 C3.37473011 3.94280243 3.37473011 3.94280243 3.3742218 6.3651123 C3.38123611 7.28211411 3.38825043 8.19911591 3.39547729 9.14390564 C3.38783356 10.1528035 3.38018982 11.16170135 3.37231445 12.20117188 C3.37596512 13.26139053 3.37961578 14.32160919 3.38337708 15.41395569 C3.39150926 18.93238141 3.37785004 22.45035043 3.36328125 25.96875 C3.36276297 28.40490722 3.36327944 30.84106487 3.36479187 33.27722168 C3.36470203 38.38849106 3.35424779 43.4996031 3.33618164 48.61083984 C3.31349419 55.17524575 3.31294912 61.73942158 3.31969929 68.3038559 C3.32303464 73.33601948 3.31641736 78.36813024 3.30657005 83.40028381 C3.30271027 85.82129134 3.30157304 88.24230473 3.3031559 90.66331482 C3.30352517 94.04193394 3.29094509 97.42025379 3.2746582 100.79882812 C3.27837433 102.31217491 3.27837433 102.31217491 3.28216553 103.85609436 C3.27508072 104.77309616 3.26799591 105.69009796 3.26069641 106.6348877 C3.25864354 107.43424995 3.25659067 108.23361221 3.25447559 109.05719757 C3 111 3 111 1 113 C1.00092179 112.44800588 1.00184359 111.89601175 1.00279331 111.32729053 C1.02488742 97.88976626 1.04136668 84.45224517 1.05181217 71.01470661 C1.0570332 64.51638932 1.06411676 58.01808514 1.07543945 51.51977539 C1.08629596 45.24986327 1.09228272 38.97996375 1.09487724 32.71004295 C1.09672649 30.31662993 1.10033755 27.92321761 1.10573006 25.52980995 C1.11297708 22.18042122 1.11398938 18.83108475 1.11352539 15.48168945 C1.11712067 14.48978607 1.12071594 13.49788269 1.12442017 12.47592163 C1.12235817 11.10251869 1.12235817 11.10251869 1.12025452 9.70137024 C1.12117631 8.90955007 1.1220981 8.11772989 1.12304783 7.30191517 C0.98887581 4.79189439 0.54702518 2.45049021 0 0 Z " fill="#FEDF6E" transform="translate(375,85)"/>
<path d="M0 0 C1.05960938 0.00676758 1.05960938 0.00676758 2.140625 0.01367188 C3.88545275 0.02546125 5.630237 0.04339676 7.375 0.0625 C7.045 0.7225 6.715 1.3825 6.375 2.0625 C3.375 3.0625 3.375 3.0625 -6.625 3.0625 C-6.625 14.6125 -6.625 26.1625 -6.625 38.0625 C-7.615 38.0625 -8.605 38.0625 -9.625 38.0625 C-9.625 25.8525 -9.625 13.6425 -9.625 1.0625 C-6.55966836 -0.47016582 -3.35745728 -0.04026471 0 0 Z " fill="#8A7B58" transform="translate(114.625,75.9375)"/>
<path d="M0 0 C0.33 0 0.66 0 1 0 C1.10867302 1.58179615 1.18589827 3.16577153 1.25 4.75 C1.29640625 5.63171875 1.3428125 6.5134375 1.390625 7.421875 C1 10 1 10 -3 14 C-6.96 14 -10.92 14 -15 14 C-14.67 24.56 -14.34 35.12 -14 46 C-10.04 46.66 -6.08 47.32 -2 48 C-1.34 49.32 -0.68 50.64 0 52 C-0.969375 51.525625 -1.93875 51.05125 -2.9375 50.5625 C-7.68763406 48.5383288 -7.68763406 48.5383288 -16 48 C-16 36.45 -16 24.9 -16 13 C-12.04 13 -8.08 13 -4 13 C-3.34 11.68 -2.68 10.36 -2 9 C-1.34 9 -0.68 9 0 9 C0 6.03 0 3.06 0 0 Z " fill="#DAA62D" transform="translate(124,227)"/>
<path d="M0 0 C0.33 0.99 0.66 1.98 1 3 C-1 4 -1 4 -12 4 C-12 13.24 -12 22.48 -12 32 C-12.66 32 -13.32 32 -14 32 C-14.02465746 27.8882744 -14.04283959 23.77657722 -14.05493164 19.66479492 C-14.0599708 18.26504772 -14.06680216 16.8653058 -14.07543945 15.46557617 C-14.0875232 13.45754223 -14.09269807 11.44947043 -14.09765625 9.44140625 C-14.10289307 8.23170166 -14.10812988 7.02199707 -14.11352539 5.77563477 C-14 3 -14 3 -13 2 C-10.81980521 1.60333773 -8.6303537 1.25684763 -6.4375 0.9375 C-4.64119141 0.67259766 -4.64119141 0.67259766 -2.80859375 0.40234375 C-1.41833984 0.20318359 -1.41833984 0.20318359 0 0 Z " fill="#C2923A" transform="translate(121,399)"/>
<path d="M0 0 C9.34984403 -1.04811419 9.34984403 -1.04811419 13.06640625 1.3125 C16.06850041 4.5533149 16.94870608 6.46141382 17.375 10.9375 C17.25125 11.948125 17.1275 12.95875 17 14 C16.01 14.495 16.01 14.495 15 15 C14.92652344 14.06027344 14.92652344 14.06027344 14.8515625 13.1015625 C14.77679688 12.28429687 14.70203125 11.46703125 14.625 10.625 C14.55539063 9.81289063 14.48578125 9.00078125 14.4140625 8.1640625 C14.17107412 5.79665809 14.17107412 5.79665809 12 4 C9.56747339 3.53837573 9.56747339 3.53837573 6.875 3.375 C5.96492188 3.30023438 5.05484375 3.22546875 4.1171875 3.1484375 C3.41851562 3.09945313 2.71984375 3.05046875 2 3 C2 3.66 2 4.32 2 5 C1.34 5 0.68 5 0 5 C0 3.35 0 1.7 0 0 Z " fill="#917C51" transform="translate(108,328)"/>
<path d="M0 0 C9.67907548 -0.68862988 9.67907548 -0.68862988 13.5625 1.875 C16.87481959 4.76266323 16.95153534 5.39903824 17.3125 9.875 C17.29452307 13.17076982 17.16211381 13.79735774 15 16.5 C14.34 16.995 13.68 17.49 13 18 C12.01 17.67 11.02 17.34 10 17 C10.66 17 11.32 17 12 17 C12 16.01 12 15.02 12 14 C12.99 14 13.98 14 15 14 C14.91291331 12.54054712 14.80473093 11.08234132 14.6875 9.625 C14.62949219 8.81289063 14.57148437 8.00078125 14.51171875 7.1640625 C14.17009472 4.62078662 14.17009472 4.62078662 11 3 C8.26127045 2.54227937 8.26127045 2.54227937 5.3125 2.375 C4.31863281 2.30023438 3.32476562 2.22546875 2.30078125 2.1484375 C1.54152344 2.09945313 0.78226562 2.05046875 0 2 C0 1.34 0 0.68 0 0 Z " fill="#967C4A" transform="translate(108,382)"/>
<path d="M0 0 C0 0.99 0 1.98 0 3 C-4.27010907 3.22551667 -8.54101182 3.42747453 -12.8125 3.625 C-14.02744141 3.68945312 -15.24238281 3.75390625 -16.49414062 3.8203125 C-17.65751953 3.871875 -18.82089844 3.9234375 -20.01953125 3.9765625 C-21.09307861 4.02893066 -22.16662598 4.08129883 -23.27270508 4.13525391 C-26 4 -26 4 -29 2 C-26.26321275 0.63160637 -23.95735576 0.78365182 -20.8984375 0.68359375 C-19.08085938 0.62075195 -19.08085938 0.62075195 -17.2265625 0.55664062 C-15.32003906 0.49766602 -15.32003906 0.49766602 -13.375 0.4375 C-11.456875 0.37272461 -11.456875 0.37272461 -9.5 0.30664062 C-6.33344652 0.20030114 -3.16681247 0.09827167 0 0 Z " fill="#B3B3B3" transform="translate(79,327)"/>
<path d="M0 0 C0.33 1.32 0.66 2.64 1 4 C-1.34877419 6.50535913 -3.0911787 7.90564909 -6.55859375 8.265625 C-9.04963675 8.25149142 -11.51524028 8.17369194 -14 8 C-13.01 7.67 -12.02 7.34 -11 7 C-11.33 6.01 -11.66 5.02 -12 4 C-10.4221875 3.566875 -10.4221875 3.566875 -8.8125 3.125 C-5.77181289 2.22774807 -2.91287656 1.23576581 0 0 Z " fill="#79746D" transform="translate(122,286)"/>
<path d="M0 0 C1.18851563 0.00902344 2.37703125 0.01804687 3.6015625 0.02734375 C4.51679687 0.03894531 5.43203125 0.05054687 6.375 0.0625 C6.705 1.0525 7.035 2.0425 7.375 3.0625 C4.075 2.7325 0.775 2.4025 -2.625 2.0625 C-2.295 4.0425 -1.965 6.0225 -1.625 8.0625 C-3.605 8.0625 -5.585 8.0625 -7.625 8.0625 C-6.965 7.7325 -6.305 7.4025 -5.625 7.0625 C-5.625 6.4025 -5.625 5.7425 -5.625 5.0625 C-6.615 4.4025 -7.605 3.7425 -8.625 3.0625 C-8.625 2.4025 -8.625 1.7425 -8.625 1.0625 C-5.74084117 -0.37957941 -3.20778472 -0.03144887 0 0 Z " fill="#7C766A" transform="translate(113.625,113.9375)"/>
<path d="M0 0 C4.62 0 9.24 0 14 0 C14 0.66 14 1.32 14 2 C14.66 2 15.32 2 16 2 C17.48520725 4.97041449 17.1705822 7.69764447 17.1875 11 C17.20167969 12.258125 17.21585938 13.51625 17.23046875 14.8125 C17 18 17 18 15 20 C12.375 20.125 12.375 20.125 10 20 C10.804375 19.38125 11.60875 18.7625 12.4375 18.125 C16.15135247 14.50556751 15.89481263 9.92468119 16 5 C14.68 4.34 13.36 3.68 12 3 C12 2.34 12 1.68 12 1 C8.04 1 4.08 1 0 1 C0 0.67 0 0.34 0 0 Z " fill="#CDA32E" transform="translate(108,113)"/>
<path d="M0 0 C0.33 0 0.66 0 1 0 C1.92141895 8.78760665 1.92141895 8.78760665 -1.375 13.125 C-5.51399229 15.9606077 -10.1970188 15.4271426 -15 15 C-15 14.34 -15 13.68 -15 13 C-14.39671875 12.93941406 -13.7934375 12.87882813 -13.171875 12.81640625 C-12.37265625 12.73261719 -11.5734375 12.64882812 -10.75 12.5625 C-9.96109375 12.48128906 -9.1721875 12.40007812 -8.359375 12.31640625 C-5.70381637 12.00488803 -5.70381637 12.00488803 -2 11 C-1.34 7.37 -0.68 3.74 0 0 Z " fill="#87764F" transform="translate(123,118)"/>
<path d="M0 0 C7.42857143 -0.28571429 7.42857143 -0.28571429 11 2 C9 4 9 4 6.3984375 4.1953125 C5.40070313 4.17210937 4.40296875 4.14890625 3.375 4.125 C1.87066406 4.09792969 1.87066406 4.09792969 0.3359375 4.0703125 C-0.43492188 4.04710937 -1.20578125 4.02390625 -2 4 C-2 3.34 -2 2.68 -2 2 C-1.34 2 -0.68 2 0 2 C0 1.34 0 0.68 0 0 Z " fill="#877A5C" transform="translate(110,344)"/>
<path d="M0 0 C9.64297299 -0.85757665 9.64297299 -0.85757665 13.625 1.9375 C16.79905607 6.03036177 16.58773468 9.00425526 16 14 C15.67 14 15.34 14 15 14 C14.8046875 11.98177083 14.609375 9.96354167 14.4140625 7.9453125 C14.13625251 5.77331755 14.13625251 5.77331755 12 4 C11.175 4 10.35 4 9.5 4 C8.675 4 7.85 4 7 4 C6.34 3.34 5.68 2.68 5 2 C2.42938689 1.35232207 2.42938689 1.35232207 0 1 C0 0.67 0 0.34 0 0 Z " fill="#857956" transform="translate(108,60)"/>
<path d="M0 0 C0.66 0.33 1.32 0.66 2 1 C2.02698189 2.62490954 2.04638757 4.24994633 2.0625 5.875 C2.07410156 6.77992188 2.08570312 7.68484375 2.09765625 8.6171875 C2 11 2 11 1 13 C-1.5625 13.625 -1.5625 13.625 -4 14 C-3.51917969 13.44828125 -3.03835937 12.8965625 -2.54296875 12.328125 C-0.76045839 9.63856507 -0.52248591 7.94178582 -0.3125 4.75 C-0.21388672 3.41195313 -0.21388672 3.41195313 -0.11328125 2.046875 C-0.05720703 1.03367187 -0.05720703 1.03367187 0 0 Z " fill="#D3A028" transform="translate(124,279)"/>
<path d="M0 0 C1.98 0 3.96 0 6 0 C6 0.99 6 1.98 6 3 C6.99 3.66 7.98 4.32 9 5 C6.03 5 3.06 5 0 5 C0 3.35 0 1.7 0 0 Z " fill="#FCA409" transform="translate(109,376)"/>
<path d="M0 0 C2.375 0.25 2.375 0.25 5 1 C6.66137306 3.18999177 7.0813873 4.32855477 6.75 7.0625 C6 9 6 9 4 12 C3.896875 10.7625 3.79375 9.525 3.6875 8.25 C3.26198318 4.7207134 2.51887408 2.62839034 0 0 Z " fill="#D8AA27" transform="translate(120,61)"/>
<path d="M0 0 C0.99 0.66 1.98 1.32 3 2 C4.65549531 2.38499891 6.3222433 2.72793135 8 3 C6 5 6 5 3.6171875 5.1953125 C2.71226563 5.17210937 1.80734375 5.14890625 0.875 5.125 C-0.49011719 5.09792969 -0.49011719 5.09792969 -1.8828125 5.0703125 C-2.58148438 5.04710937 -3.28015625 5.02390625 -4 5 C-3.01 4.67 -2.02 4.34 -1 4 C-1.33 3.01 -1.66 2.02 -2 1 C-1.34 0.67 -0.68 0.34 0 0 Z " fill="#81765D" transform="translate(112,289)"/>
<path d="M0 0 C0.66 0.33 1.32 0.66 2 1 C1 8.42857143 1 8.42857143 0 12 C-2 10 -2 10 -2.265625 8.125 C-2.26046875 7.42375 -2.2553125 6.7225 -2.25 6 C-2.25515625 5.29875 -2.2603125 4.5975 -2.265625 3.875 C-2 2 -2 2 0 0 Z " fill="#FED457" transform="translate(227,153)"/>
<path d="M0 0 C0.66 0 1.32 0 2 0 C1.42655063 2.86724686 1.1385485 3.8614515 -1 6 C-1.02308597 8.22128555 -1.02308597 8.22128555 -0.625 10.625 C-0.51414063 11.44226563 -0.40328125 12.25953125 -0.2890625 13.1015625 C-0.19367187 13.72804687 -0.09828125 14.35453125 0 15 C-2.60535808 12.72548104 -2.96986767 12.271191 -3.375 8.625 C-2.98580829 4.86281342 -2.32350376 2.94906247 0 0 Z " fill="#DDDDDD" transform="translate(48,115)"/>
<path d="M0 0 C0.33 0 0.66 0 1 0 C1.63019694 9.17286652 1.63019694 9.17286652 -1 12.625 C-1.66 13.07875 -2.32 13.5325 -3 14 C-3.66 13.67 -4.32 13.34 -5 13 C-3.625 11 -3.625 11 -2 9 C-1.34 9 -0.68 9 0 9 C0 6.03 0 3.06 0 0 Z " fill="#CE9E2A" transform="translate(124,227)"/>
<path d="M0 0 C0.33 0 0.66 0 1 0 C1 3.63 1 7.26 1 11 C0.34 11 -0.32 11 -1 11 C-1 10.34 -1 9.68 -1 9 C-1.66 9 -2.32 9 -3 9 C-2.67 7.68 -2.34 6.36 -2 5 C-1.34 5 -0.68 5 0 5 C0 3.35 0 1.7 0 0 Z " fill="#81765F" transform="translate(123,225)"/>
<path d="M0 0 C2.97 0.495 2.97 0.495 6 1 C5.0409375 1.804375 5.0409375 1.804375 4.0625 2.625 C1.61470596 5.44367193 1.33285388 7.33860732 1 11 C0.67 11 0.34 11 0 11 C0 7.37 0 3.74 0 0 Z " fill="#CFA428" transform="translate(108,17)"/>
<path d="M0 0 C0.33 0.99 0.66 1.98 1 3 C-1.64458379 4.32229189 -3.67761301 4.09677194 -6.625 4.0625 C-7.62789063 4.05347656 -8.63078125 4.04445313 -9.6640625 4.03515625 C-10.43492188 4.02355469 -11.20578125 4.01195312 -12 4 C-12 3.67 -12 3.34 -12 3 C-9.03 3 -6.06 3 -3 3 C-3 2.34 -3 1.68 -3 1 C-2.01 0.67 -1.02 0.34 0 0 Z " fill="#E4A123" transform="translate(121,399)"/>
<path d="M0 0 C-0.33 1.32 -0.66 2.64 -1 4 C-6.94 3.01 -6.94 3.01 -13 2 C-13 1.67 -13 1.34 -13 1 C-11.20843648 0.83222817 -9.4167455 0.66581706 -7.625 0.5 C-6.62726563 0.4071875 -5.62953125 0.314375 -4.6015625 0.21875 C-2 0 -2 0 0 0 Z " fill="#F7AF11" transform="translate(123,272)"/>
<path d="M0 0 C0.33 0.66 0.66 1.32 1 2 C1.66 2 2.32 2 3 2 C3 2.66 3 3.32 3 4 C4.65 3.67 6.3 3.34 8 3 C8.33 3.66 8.66 4.32 9 5 C6.03 5 3.06 5 0 5 C0 3.35 0 1.7 0 0 Z " fill="#FCB512" transform="translate(109,161)"/>
<path d="M0 0 C0.33 0 0.66 0 1 0 C1.125 2.375 1.125 2.375 1 5 C-1 7 -1 7 -3.625 7.125 C-4.40875 7.08375 -5.1925 7.0425 -6 7 C-5.02433888 5.83040013 -4.044375 4.66438823 -3.0625 3.5 C-2.51722656 2.8503125 -1.97195312 2.200625 -1.41015625 1.53125 C-0.71212891 0.77328125 -0.71212891 0.77328125 0 0 Z " fill="#DBAD29" transform="translate(124,126)"/>
<path d="M0 0 C0.66 0 1.32 0 2 0 C3.23076923 5.41538462 3.23076923 5.41538462 2.0625 8.375 C1.711875 8.91125 1.36125 9.4475 1 10 C0.67 10 0.34 10 0 10 C0 6.7 0 3.4 0 0 Z " fill="#F6B91B" transform="translate(125,120)"/>
<path d="M0 0 C0.66 0 1.32 0 2 0 C2 1.65 2 3.3 2 5 C0.02 5.99 0.02 5.99 -2 7 C-2.125 4.625 -2.125 4.625 -2 2 C-1.34 1.34 -0.68 0.68 0 0 Z " fill="#777377" transform="translate(104,57)"/>
<path d="M0 0 C0.33 0 0.66 0 1 0 C1.29296875 6.0546875 1.29296875 6.0546875 1 8 C-2 10 -2 10 -5 10 C-5 9.34 -5 8.68 -5 8 C-4.0409375 7.690625 -4.0409375 7.690625 -3.0625 7.375 C-0.65074923 6.10461791 -0.65074923 6.10461791 -0.25 2.875 C-0.1675 1.92625 -0.085 0.9775 0 0 Z " fill="#FEDD64" transform="translate(317,128)"/>
<path d="M0 0 C1.32 0.33 2.64 0.66 4 1 C3.67 2.98 3.34 4.96 3 7 C2.34 7 1.68 7 1 7 C0.67 4.69 0.34 2.38 0 0 Z " fill="#76727A" transform="translate(115,169)"/>
<path d="M0 0 C3.63 0 7.26 0 11 0 C11 0.66 11 1.32 11 2 C6.74938644 3.41687119 4.28148375 2.19320039 0 1 C0 0.67 0 0.34 0 0 Z " fill="#D2A61F" transform="translate(442,18)"/>
</svg>
