<?xml version="1.0" encoding="UTF-8"?>
<!DOCTYPE svg PUBLIC "-//W3C//DTD SVG 1.1//EN" "http://www.w3.org/Graphics/SVG/1.1/DTD/svg11.dtd">
<svg xmlns="http://www.w3.org/2000/svg" version="1.1" width="105px" height="113px" style="shape-rendering:geometricPrecision; text-rendering:geometricPrecision; image-rendering:optimizeQuality; fill-rule:evenodd; clip-rule:evenodd" xmlns:xlink="http://www.w3.org/1999/xlink">
<g><path style="opacity:0.004" fill="#fefffe" d="M 32.5,0.5 C 33.8333,1.16667 33.8333,1.16667 32.5,0.5 Z"/></g>
<g><path style="opacity:0.004" fill="#fefffe" d="M 26.5,4.5 C 27.8333,5.16667 27.8333,5.16667 26.5,4.5 Z"/></g>
<g><path style="opacity:0.004" fill="#fefffe" d="M 35.5,4.5 C 36.8333,5.16667 36.8333,5.16667 35.5,4.5 Z"/></g>
<g><path style="opacity:0.004" fill="#fefffe" d="M 62.5,4.5 C 63.8333,5.16667 63.8333,5.16667 62.5,4.5 Z"/></g>
<g><path style="opacity:0.004" fill="#fefffe" d="M 17.5,6.5 C 18.8333,7.16667 18.8333,7.16667 17.5,6.5 Z"/></g>
<g><path style="opacity:0.068" fill="#fbe0a0" d="M 91.5,7.5 C 68.6605,7.1692 45.9939,7.50253 23.5,8.5C 22.8826,8.61071 22.3826,8.94404 22,9.5C 21.5026,12.146 21.3359,14.8127 21.5,17.5C 19.9505,18.4408 18.2838,19.1075 16.5,19.5C 18.6824,15.4189 20.6824,11.2523 22.5,7C 45.6703,6.1703 68.6703,6.33697 91.5,7.5 Z"/></g>
<g><path style="opacity:0.004" fill="#fefffe" d="M 8.5,9.5 C 9.83333,10.1667 9.83333,10.1667 8.5,9.5 Z"/></g>
<g><path style="opacity:0.004" fill="#fefffe" d="M 14.5,10.5 C 15.8333,11.1667 15.8333,11.1667 14.5,10.5 Z"/></g>
<g><path style="opacity:0.004" fill="#fefffe" d="M 11.5,11.5 C 12.8333,12.1667 12.8333,12.1667 11.5,11.5 Z"/></g>
<g><path style="opacity:0.004" fill="#fefffe" d="M 101.5,11.5 C 102.833,12.1667 102.833,12.1667 101.5,11.5 Z"/></g>
<g><path style="opacity:1" fill="#fdecbf" d="M 87.5,12.5 C 88.1667,12.5 88.5,12.8333 88.5,13.5C 88.5,38.8333 88.5,64.1667 88.5,89.5C 89.5,89.5 90.5,89.5 91.5,89.5C 88.9795,91.0192 86.4795,92.6859 84,94.5C 83.8019,96.3817 83.3019,98.0484 82.5,99.5C 82.5,97.1667 82.5,94.8333 82.5,92.5C 83.8289,68.33 83.8289,43.9967 82.5,19.5C 81.5832,18.8728 80.5832,18.5394 79.5,18.5C 79.5,18.1667 79.5,17.8333 79.5,17.5C 63.0084,16.5035 46.3417,16.1702 29.5,16.5C 29.5,15.5 29.5,14.5 29.5,13.5C 48.7572,12.513 68.0906,12.1797 87.5,12.5 Z"/></g>
<g><path style="opacity:0.004" fill="#fefffe" d="M 5.5,15.5 C 6.83333,16.1667 6.83333,16.1667 5.5,15.5 Z"/></g>
<g><path style="opacity:1" fill="#f4cd5b" d="M 24.5,17.5 C 42.8333,17.5 61.1667,17.5 79.5,17.5C 79.5,17.8333 79.5,18.1667 79.5,18.5C 79.5,18.8333 79.5,19.1667 79.5,19.5C 61.4969,19.6666 43.4969,19.4999 25.5,19C 24.944,18.6174 24.6107,18.1174 24.5,17.5 Z"/></g>
<g><path style="opacity:0.004" fill="#fefffe" d="M 8.5,20.5 C 9.83333,21.1667 9.83333,21.1667 8.5,20.5 Z"/></g>
<g><path style="opacity:1" fill="#f0c84a" d="M 21.5,17.5 C 21.2969,19.0443 20.6302,20.3777 19.5,21.5C 20.6302,22.6223 21.2969,23.9557 21.5,25.5C 18.1991,25.2078 16.1991,23.5411 15.5,20.5C 15.5,19.8333 15.8333,19.5 16.5,19.5C 18.2838,19.1075 19.9505,18.4408 21.5,17.5 Z"/></g>
<g><path style="opacity:0.004" fill="#fefffe" d="M 98.5,23.5 C 99.8333,24.1667 99.8333,24.1667 98.5,23.5 Z"/></g>
<g><path style="opacity:1" fill="#fdc929" d="M 21.5,17.5 C 22.5,17.5 23.5,17.5 24.5,17.5C 24.6107,18.1174 24.944,18.6174 25.5,19C 43.4969,19.4999 61.4969,19.6666 79.5,19.5C 80.4828,46.789 80.8161,74.1224 80.5,101.5C 79.8333,101.5 79.5,101.833 79.5,102.5C 59.4972,102.667 39.4972,102.5 19.5,102C 18.9747,101.308 18.3081,100.808 17.5,100.5C 16.3364,94.5276 16.1697,88.5276 17,82.5C 17.6708,81.7476 18.5041,81.4142 19.5,81.5C 20.1667,81.5 20.8333,81.5 21.5,81.5C 21.5,82.1667 21.5,82.8333 21.5,83.5C 22.5676,84.4345 23.901,84.7678 25.5,84.5C 26.5905,81.3188 26.5905,77.9855 25.5,74.5C 22.8333,74.1667 20.1667,73.8333 17.5,73.5C 16.3852,68.2501 16.2185,62.9167 17,57.5C 19.546,60.1976 22.3793,60.8642 25.5,59.5C 27.1667,58.8333 28.8333,58.1667 30.5,57.5C 30.8333,57.5 31.1667,57.5 31.5,57.5C 41.3194,58.494 51.3194,58.8274 61.5,58.5C 62.4959,58.5858 63.3292,58.2524 64,57.5C 64.6667,52.1667 64.6667,46.8333 64,41.5C 63.6121,40.572 62.9454,39.9054 62,39.5C 50.8674,38.366 39.7007,38.1993 28.5,39C 29.2524,39.6708 29.5858,40.5041 29.5,41.5C 28.5206,44.6248 28.1872,47.9581 28.5,51.5C 25.5739,50.5392 22.5739,49.8726 19.5,49.5C 18.828,48.7326 17.9947,48.0659 17,47.5C 16.5006,41.8431 16.3339,36.1764 16.5,30.5C 17.5,30.5 18.5,30.5 19.5,30.5C 20.9063,30.9731 21.573,31.9731 21.5,33.5C 22.1834,35.1765 23.5168,35.8432 25.5,35.5C 25.5,32.5 25.5,29.5 25.5,26.5C 24.1667,26.5 22.8333,26.5 21.5,26.5C 21.5,26.1667 21.5,25.8333 21.5,25.5C 21.2969,23.9557 20.6302,22.6223 19.5,21.5C 20.6302,20.3777 21.2969,19.0443 21.5,17.5 Z"/></g>
<g><path style="opacity:0.802" fill="#e1b151" d="M 23.5,8.5 C 45.9939,7.50253 68.6605,7.1692 91.5,7.5C 93.5,7.5 94.5,8.5 94.5,10.5C 94.5,35.8333 94.5,61.1667 94.5,86.5C 94.6716,87.4916 94.3382,88.1583 93.5,88.5C 93.8311,62.328 93.4978,36.328 92.5,10.5C 69.8576,8.5103 46.8576,7.84363 23.5,8.5 Z"/></g>
<g><path style="opacity:0.004" fill="#fefffe" d="M 98.5,27.5 C 99.8333,28.1667 99.8333,28.1667 98.5,27.5 Z"/></g>
<g><path style="opacity:1" fill="#f4d876" d="M 21.5,26.5 C 22.8333,26.5 24.1667,26.5 25.5,26.5C 25.5,29.5 25.5,32.5 25.5,35.5C 23.5168,35.8432 22.1834,35.1765 21.5,33.5C 22.5,33.5 23.5,33.5 24.5,33.5C 24.8337,30.509 23.8337,28.1757 21.5,26.5 Z"/></g>
<g><path style="opacity:1" fill="#faecc1" d="M 15.5,20.5 C 16.1991,23.5411 18.1991,25.2078 21.5,25.5C 21.5,25.8333 21.5,26.1667 21.5,26.5C 23.8337,28.1757 24.8337,30.509 24.5,33.5C 23.5,33.5 22.5,33.5 21.5,33.5C 21.573,31.9731 20.9063,30.9731 19.5,30.5C 18.713,28.8958 17.3797,28.2291 15.5,28.5C 15.5,34.8333 15.5,41.1667 15.5,47.5C 14.5206,44.3752 14.1872,41.0419 14.5,37.5C 14.5,35.5 14.5,33.5 14.5,31.5C 15.8333,28.1667 15.8333,24.8333 14.5,21.5C 14.5,20.8333 14.8333,20.5 15.5,20.5 Z"/></g>
<g><path style="opacity:1" fill="#efc53e" d="M 79.5,19.5 C 80.5,19.8333 81.1667,20.5 81.5,21.5C 81.8312,48.3386 81.4979,75.0052 80.5,101.5C 80.8161,74.1224 80.4828,46.789 79.5,19.5 Z"/></g>
<g><path style="opacity:1" fill="#f6b235" d="M 23.5,8.5 C 46.8576,7.84363 69.8576,8.5103 92.5,10.5C 92.4408,36.2668 92.4408,61.9335 92.5,87.5C 91.5,87.5 90.5,87.5 89.5,87.5C 89.831,62.661 89.4977,37.9944 88.5,13.5C 88.5,12.8333 88.1667,12.5 87.5,12.5C 78.0059,11.8335 68.3392,11.5002 58.5,11.5C 48.4761,11.5015 38.8095,12.1682 29.5,13.5C 27.246,14.1237 25.5794,15.457 24.5,17.5C 23.5,17.5 22.5,17.5 21.5,17.5C 21.3359,14.8127 21.5026,12.146 22,9.5C 22.3826,8.94404 22.8826,8.61071 23.5,8.5 Z"/></g>
<g><path style="opacity:1" fill="#feeeb1" d="M 29.5,13.5 C 29.5,14.5 29.5,15.5 29.5,16.5C 46.3417,16.1702 63.0084,16.5035 79.5,17.5C 61.1667,17.5 42.8333,17.5 24.5,17.5C 25.5794,15.457 27.246,14.1237 29.5,13.5 Z"/></g>
<g><path style="opacity:1" fill="#fdd893" d="M 87.5,12.5 C 68.0906,12.1797 48.7572,12.513 29.5,13.5C 38.8095,12.1682 48.4761,11.5015 58.5,11.5C 68.3392,11.5002 78.0059,11.8335 87.5,12.5 Z"/></g>
<g><path style="opacity:1" fill="#f1b33e" d="M 92.5,10.5 C 93.4978,36.328 93.8311,62.328 93.5,88.5C 91.901,88.7678 90.5676,88.4345 89.5,87.5C 90.5,87.5 91.5,87.5 92.5,87.5C 92.4408,61.9335 92.4408,36.2668 92.5,10.5 Z"/></g>
<g><path style="opacity:0.984" fill="#ebc756" d="M 19.5,30.5 C 18.5,30.5 17.5,30.5 16.5,30.5C 16.3339,36.1764 16.5006,41.8431 17,47.5C 17.9947,48.0659 18.828,48.7326 19.5,49.5C 18.1667,49.5 16.8333,49.5 15.5,49.5C 15.5,48.8333 15.5,48.1667 15.5,47.5C 15.5,41.1667 15.5,34.8333 15.5,28.5C 17.3797,28.2291 18.713,28.8958 19.5,30.5 Z"/></g>
<g><path style="opacity:1" fill="#fbdf86" d="M 58.5,40.5 C 49.6506,40.1736 40.9839,40.507 32.5,41.5C 31.8826,41.6107 31.3826,41.944 31,42.5C 30.501,46.8206 30.3343,51.1539 30.5,55.5C 29.5139,51.03 29.1805,46.3633 29.5,41.5C 30.2891,41.2172 30.9558,40.7172 31.5,40C 40.6762,39.176 49.6762,39.3427 58.5,40.5 Z"/></g>
<g><path style="opacity:1" fill="#feefaf" d="M 32.5,41.5 C 40.9839,40.507 49.6506,40.1736 58.5,40.5C 60.153,40.6596 61.4863,41.3263 62.5,42.5C 52.5393,41.5756 42.5393,41.2423 32.5,41.5 Z"/></g>
<g><path style="opacity:1" fill="#fdecc9" d="M 32.5,41.5 C 42.5393,41.2423 52.5393,41.5756 62.5,42.5C 63.1257,47.4447 62.1257,51.9447 59.5,56C 49.756,56.8057 40.0893,56.639 30.5,55.5C 30.3343,51.1539 30.501,46.8206 31,42.5C 31.3826,41.944 31.8826,41.6107 32.5,41.5 Z"/></g>
<g><path style="opacity:0.004" fill="#fefffe" d="M -0.5,45.5 C 0.833333,46.1667 0.833333,46.1667 -0.5,45.5 Z"/></g>
<g><path style="opacity:0.004" fill="#fefffe" d="M -0.5,47.5 C 0.833333,48.1667 0.833333,48.1667 -0.5,47.5 Z"/></g>
<g><path style="opacity:0.004" fill="#fefffe" d="M 5.5,47.5 C 6.83333,48.1667 6.83333,48.1667 5.5,47.5 Z"/></g>
<g><path style="opacity:1" fill="#eabc62" d="M 88.5,13.5 C 89.4977,37.9944 89.831,62.661 89.5,87.5C 90.5676,88.4345 91.901,88.7678 93.5,88.5C 93.1583,89.3382 92.4916,89.6716 91.5,89.5C 90.5,89.5 89.5,89.5 88.5,89.5C 88.5,64.1667 88.5,38.8333 88.5,13.5 Z"/></g>
<g><path style="opacity:1" fill="#f2c847" d="M 61.5,58.5 C 61.8333,57.8333 62.1667,57.1667 62.5,56.5C 63.8333,51.8333 63.8333,47.1667 62.5,42.5C 61.4863,41.3263 60.153,40.6596 58.5,40.5C 49.6762,39.3427 40.6762,39.176 31.5,40C 30.9558,40.7172 30.2891,41.2172 29.5,41.5C 29.5858,40.5041 29.2524,39.6708 28.5,39C 39.7007,38.1993 50.8674,38.366 62,39.5C 62.9454,39.9054 63.6121,40.572 64,41.5C 64.6667,46.8333 64.6667,52.1667 64,57.5C 63.3292,58.2524 62.4959,58.5858 61.5,58.5 Z"/></g>
<g><path style="opacity:0.855" fill="#f9f6dc" d="M 14.5,37.5 C 14.1872,41.0419 14.5206,44.3752 15.5,47.5C 15.5,48.1667 15.5,48.8333 15.5,49.5C 16.8083,50.2323 18.1416,51.0656 19.5,52C 17.9419,52.21 16.6085,52.71 15.5,53.5C 14.6618,53.8417 14.3284,54.5084 14.5,55.5C 13.8333,55.5 13.5,55.1667 13.5,54.5C 13.5,49.5 13.5,44.5 13.5,39.5C 13.3284,38.5084 13.6618,37.8417 14.5,37.5 Z"/></g>
<g><path style="opacity:0.998" fill="#f6ca40" d="M 29.5,41.5 C 29.1805,46.3633 29.5139,51.03 30.5,55.5C 30.5,56.1667 30.5,56.8333 30.5,57.5C 28.8333,58.1667 27.1667,58.8333 25.5,59.5C 25.628,57.3453 25.128,55.3453 24,53.5C 22.3333,52.2668 20.8333,50.9335 19.5,49.5C 22.5739,49.8726 25.5739,50.5392 28.5,51.5C 28.1872,47.9581 28.5206,44.6248 29.5,41.5 Z"/></g>
<g><path style="opacity:1" fill="#fbeebe" d="M 15.5,49.5 C 16.8333,49.5 18.1667,49.5 19.5,49.5C 20.8333,50.9335 22.3333,52.2668 24,53.5C 25.128,55.3453 25.628,57.3453 25.5,59.5C 24.1667,59.5 22.8333,59.5 21.5,59.5C 21.205,55.8715 19.205,53.8715 15.5,53.5C 16.6085,52.71 17.9419,52.21 19.5,52C 18.1416,51.0656 16.8083,50.2323 15.5,49.5 Z"/></g>
<g><path style="opacity:1" fill="#feecab" d="M 62.5,42.5 C 63.8333,47.1667 63.8333,51.8333 62.5,56.5C 52.2185,57.4522 41.8852,57.7855 31.5,57.5C 31.1667,57.5 30.8333,57.5 30.5,57.5C 30.5,56.8333 30.5,56.1667 30.5,55.5C 40.0893,56.639 49.756,56.8057 59.5,56C 62.1257,51.9447 63.1257,47.4447 62.5,42.5 Z"/></g>
<g><path style="opacity:1" fill="#fdda70" d="M 62.5,56.5 C 62.1667,57.1667 61.8333,57.8333 61.5,58.5C 51.3194,58.8274 41.3194,58.494 31.5,57.5C 41.8852,57.7855 52.2185,57.4522 62.5,56.5 Z"/></g>
<g><path style="opacity:0.827" fill="#f0c74b" d="M 15.5,53.5 C 19.205,53.8715 21.205,55.8715 21.5,59.5C 22.8333,59.5 24.1667,59.5 25.5,59.5C 22.3793,60.8642 19.546,60.1976 17,57.5C 16.2185,62.9167 16.3852,68.2501 17.5,73.5C 15.5411,67.2504 14.8745,60.5837 15.5,53.5 Z"/></g>
<g><path style="opacity:1" fill="#f4d574" d="M 81.5,21.5 C 82.4976,44.9941 82.8309,68.6608 82.5,92.5C 82.5,94.8333 82.5,97.1667 82.5,99.5C 82.9118,101.973 81.9118,103.306 79.5,103.5C 79.5,103.167 79.5,102.833 79.5,102.5C 79.5,101.833 79.8333,101.5 80.5,101.5C 81.4979,75.0052 81.8312,48.3386 81.5,21.5 Z"/></g>
<g><path style="opacity:0.203" fill="#ffebad" d="M 94.5,10.5 C 95.1764,21.9019 95.843,33.4019 96.5,45C 95.1667,58.6667 95.1667,72.3333 96.5,86C 95.9056,86.4643 95.2389,86.631 94.5,86.5C 94.5,61.1667 94.5,35.8333 94.5,10.5 Z"/></g>
<g><path style="opacity:1" fill="#feeea8" d="M 79.5,19.5 C 79.5,19.1667 79.5,18.8333 79.5,18.5C 80.5832,18.5394 81.5832,18.8728 82.5,19.5C 83.8289,43.9967 83.8289,68.33 82.5,92.5C 82.8309,68.6608 82.4976,44.9941 81.5,21.5C 81.1667,20.5 80.5,19.8333 79.5,19.5 Z"/></g>
<g><path style="opacity:0.004" fill="#fefffe" d="M 101.5,66.5 C 102.525,66.8966 102.692,67.5632 102,68.5C 101.536,67.9056 101.369,67.2389 101.5,66.5 Z"/></g>
<g><path style="opacity:1" fill="#f5ca4c" d="M 17.5,73.5 C 20.1667,73.8333 22.8333,74.1667 25.5,74.5C 26.5905,77.9855 26.5905,81.3188 25.5,84.5C 25.6621,82.4727 25.4955,80.4727 25,78.5C 24.6174,77.944 24.1174,77.6107 23.5,77.5C 21.2228,76.5514 19.2228,75.2181 17.5,73.5 Z"/></g>
<g><path style="opacity:1" fill="#f9efc8" d="M 15.5,53.5 C 14.8745,60.5837 15.5411,67.2504 17.5,73.5C 19.2228,75.2181 21.2228,76.5514 23.5,77.5C 24.1495,79.4352 24.4828,81.4352 24.5,83.5C 23.5,83.5 22.5,83.5 21.5,83.5C 21.5,82.8333 21.5,82.1667 21.5,81.5C 20.4522,79.4662 18.7855,78.1329 16.5,77.5C 15.0815,78.0047 14.4148,79.0047 14.5,80.5C 13.8333,80.1667 13.1667,79.8333 12.5,79.5C 13.8333,74.8333 13.8333,70.1667 12.5,65.5C 14.1745,62.4928 14.8412,59.1595 14.5,55.5C 14.3284,54.5084 14.6618,53.8417 15.5,53.5 Z"/></g>
<g><path style="opacity:0.004" fill="#fefffe" d="M 101.5,77.5 C 102.833,78.1667 102.833,78.1667 101.5,77.5 Z"/></g>
<g><path style="opacity:0.502" fill="#f4f3f2" d="M 14.5,21.5 C 15.8333,24.8333 15.8333,28.1667 14.5,31.5C 11.4952,29.0801 9.8285,30.0801 9.5,34.5C 9.57697,36.299 10.077,37.9656 11,39.5C 11.7697,38.4019 12.603,38.4019 13.5,39.5C 13.5,44.5 13.5,49.5 13.5,54.5C 10.8732,54.2933 9.20651,55.46 8.5,58C 9.57334,59.4162 9.57334,60.7496 8.5,62C 9.10287,64.0714 10.4362,65.2381 12.5,65.5C 13.8333,70.1667 13.8333,74.8333 12.5,79.5C 7.58158,82.5215 7.24824,86.0215 11.5,90C 12.788,90.2387 13.788,89.7387 14.5,88.5C 14.5,91.5 14.5,94.5 14.5,97.5C 10.3631,94.9825 6.86309,91.6492 4,87.5C 2.35224,80.2961 4.85224,75.1294 11.5,72C -0.375521,63.4715 -0.375521,55.1381 11.5,47C 1.53237,41.4723 0.199039,34.4723 7.5,26C 10.2018,24.9879 12.5351,23.4879 14.5,21.5 Z"/></g>
<g><path style="opacity:1" fill="#f8e391" d="M 23.5,77.5 C 24.1174,77.6107 24.6174,77.944 25,78.5C 25.4955,80.4727 25.6621,82.4727 25.5,84.5C 23.901,84.7678 22.5676,84.4345 21.5,83.5C 22.5,83.5 23.5,83.5 24.5,83.5C 24.4828,81.4352 24.1495,79.4352 23.5,77.5 Z"/></g>
<g><path style="opacity:0.286" fill="#f8e39d" d="M 21.5,81.5 C 20.8333,81.5 20.1667,81.5 19.5,81.5C 18.713,79.8958 17.3797,79.2291 15.5,79.5C 15.5,86.8333 15.5,94.1667 15.5,101.5C 14.5655,100.432 14.2322,99.099 14.5,97.5C 14.5,94.5 14.5,91.5 14.5,88.5C 14.5,85.8333 14.5,83.1667 14.5,80.5C 14.4148,79.0047 15.0815,78.0047 16.5,77.5C 18.7855,78.1329 20.4522,79.4662 21.5,81.5 Z"/></g>
<g><path style="opacity:0.004" fill="#fefffe" d="M 89.5,92.5 C 90.8333,93.1667 90.8333,93.1667 89.5,92.5 Z"/></g>
<g><path style="opacity:0.004" fill="#fefffe" d="M 98.5,93.5 C 99.8333,94.1667 99.8333,94.1667 98.5,93.5 Z"/></g>
<g><path style="opacity:0.004" fill="#fefffe" d="M 86.5,98.5 C 87.8333,99.1667 87.8333,99.1667 86.5,98.5 Z"/></g>
<g><path style="opacity:0.725" fill="#eec447" d="M 19.5,81.5 C 18.5041,81.4142 17.6708,81.7476 17,82.5C 16.1697,88.5276 16.3364,94.5276 17.5,100.5C 18.3081,100.808 18.9747,101.308 19.5,102C 39.4972,102.5 59.4972,102.667 79.5,102.5C 79.5,102.833 79.5,103.167 79.5,103.5C 59.1639,103.667 38.8306,103.5 18.5,103C 17.7562,101.961 16.7562,101.461 15.5,101.5C 15.5,94.1667 15.5,86.8333 15.5,79.5C 17.3797,79.2291 18.713,79.8958 19.5,81.5 Z"/></g>
<g><path style="opacity:0.122" fill="#f9e598" d="M 15.5,101.5 C 16.7562,101.461 17.7562,101.961 18.5,103C 38.8306,103.5 59.1639,103.667 79.5,103.5C 59.0041,104.663 38.3374,104.829 17.5,104C 16.6195,103.292 15.9528,102.458 15.5,101.5 Z"/></g>
<g><path style="opacity:0.004" fill="#fefffe" d="M 86.5,103.5 C 87.8333,104.167 87.8333,104.167 86.5,103.5 Z"/></g>
<g><path style="opacity:0.004" fill="#fefffe" d="M 26.5,109.5 C 27.8333,110.167 27.8333,110.167 26.5,109.5 Z"/></g>
<g><path style="opacity:0.004" fill="#fefffe" d="M 8.5,110.5 C 9.83333,111.167 9.83333,111.167 8.5,110.5 Z"/></g>
</svg>
