<?xml version="1.0" encoding="UTF-8"?>
<svg version="1.1" xmlns="http://www.w3.org/2000/svg" width="500" height="500">
<path d="M0 0 C24.75 0 49.5 0 75 0 C75.17633814 45.59833013 75.3240608 91.19633892 75.40852264 136.7949124 C75.41852839 142.17724038 75.42888295 147.55956763 75.43945312 152.94189453 C75.44155161 154.01342675 75.44365009 155.08495897 75.44581217 156.18896186 C75.48063035 173.54306012 75.5437111 190.89694655 75.61722237 208.2509191 C75.6920135 226.0554199 75.73646577 243.85980969 75.75270796 261.66446114 C75.76368942 272.65254561 75.79838229 283.64003135 75.86333174 294.62793154 C75.90559362 302.16100234 75.91840675 309.69376326 75.90801102 317.22694403 C75.90288265 321.57456795 75.91078635 325.92114514 75.9536438 330.2685833 C75.99261057 334.25043446 75.99452309 338.23053649 75.96719116 342.21246862 C75.96381404 343.65139848 75.97393849 345.09043798 75.99906546 346.52915239 C76.17441107 357.19058406 76.17441107 357.19058406 73.40074825 361.46396828 C71.3726522 363.54177778 69.31163048 365.24398583 67 367 C64.69 368.98 62.38 370.96 60 373 C40.2 373 20.4 373 0 373 C0 249.91 0 126.82 0 0 Z " fill="#FCC641" transform="translate(243,107)"/>
<path d="M0 0 C0.72030396 -0.00175232 1.44060791 -0.00350464 2.18273926 -0.00531006 C4.57497534 -0.00972835 6.9671381 -0.00679068 9.359375 -0.00341797 C11.01464858 -0.00409101 12.66992207 -0.00506105 14.32519531 -0.00631714 C17.79883767 -0.00779408 21.27245437 -0.00563968 24.74609375 -0.00097656 C29.20869998 0.00472073 33.67124608 0.0014417 38.1338501 -0.00454903 C41.5532273 -0.00815474 44.97259015 -0.00701601 48.39196777 -0.00442123 C50.03788256 -0.00375199 51.68379863 -0.00458029 53.32971191 -0.00690079 C55.62609331 -0.00942749 57.92237599 -0.0055865 60.21875 0 C61.52811523 0.00079559 62.83748047 0.00159119 64.18652344 0.00241089 C67.109375 0.12939453 67.109375 0.12939453 68.109375 1.12939453 C68.23412632 4.23922993 68.29290899 7.32764278 68.31037903 10.43881226 C68.32436085 11.92303222 68.32436085 11.92303222 68.33862513 13.43723643 C68.36856672 16.78040122 68.39103585 20.12357291 68.41333008 23.46679688 C68.43267735 25.85300921 68.45230147 28.23921931 68.47218323 30.62542725 C68.64582273 52.44403939 68.73938182 74.26338409 68.81325245 96.08254051 C68.82332083 99.00457193 68.83357175 101.92660264 68.84399414 104.84863281 C68.84657636 105.5748919 68.84915859 106.30115099 68.85181906 107.04941793 C68.89488936 118.798466 68.98326465 130.54673911 69.08934406 142.29536884 C69.19737633 154.36057254 69.25969969 166.42537467 69.27910727 178.49105036 C69.29124331 185.26437913 69.32384322 192.03628096 69.40870094 198.80912399 C69.48642235 205.18723154 69.50723749 211.56303338 69.48496056 217.94155121 C69.48666127 220.27847522 69.50882075 222.61549071 69.55329895 224.95199203 C69.88877586 243.53065137 69.88877586 243.53065137 65.45078087 248.92216873 C62.62491889 251.75662206 59.46152959 253.94670569 56.109375 256.12939453 C55.25953742 256.99078883 55.25953742 256.99078883 54.39253139 257.86958504 C52.28745095 259.93636376 50.14088157 259.49572531 47.27685547 259.48583984 C46.07906464 259.48884094 44.8812738 259.49184204 43.64718628 259.49493408 C41.70647751 259.47641388 41.70647751 259.47641388 39.7265625 259.45751953 C38.38803316 259.45446172 37.04950064 259.45258577 35.71096802 259.45184326 C32.90826204 259.44724295 30.10584383 259.4328254 27.30322266 259.41064453 C23.70382523 259.38230763 20.10465394 259.37142737 16.50515556 259.36696243 C13.74286623 259.36281442 10.98062297 259.35300305 8.21835709 259.34108734 C6.24346694 259.33259225 4.26856848 259.326108 2.29367065 259.31964111 C0.50644089 259.3052298 0.50644089 259.3052298 -1.31689453 259.29052734 C-2.89883102 259.28028534 -2.89883102 259.28028534 -4.51272583 259.26983643 C-6.890625 259.12939453 -6.890625 259.12939453 -7.890625 258.12939453 C-7.9879612 256.75422378 -8.01617911 255.37408697 -8.01646614 253.99547577 C-8.02037776 252.65056525 -8.02037776 252.65056525 -8.02436841 251.27848482 C-8.02213768 250.28210607 -8.01990696 249.28572732 -8.01760864 248.25915527 C-8.01916863 247.20953346 -8.02072862 246.15991164 -8.02233589 245.0784831 C-8.02635084 241.5322886 -8.02315433 237.98613629 -8.02001953 234.43994141 C-8.02137335 231.90942866 -8.02315318 229.37891611 -8.02532959 226.84840393 C-8.02943007 220.67124168 -8.02881057 214.49409527 -8.02591695 208.3169328 C-8.02366314 203.29884753 -8.0233503 198.28076568 -8.02444077 193.26268005 C-8.024594 192.54983643 -8.02474723 191.8369928 -8.02490511 191.10254785 C-8.02522482 189.65464612 -8.02554903 188.20674438 -8.0258777 186.75884265 C-8.02873266 173.16592402 -8.02544522 159.57301213 -8.02007733 145.98009461 C-8.01560928 134.30410918 -8.01638521 122.62813369 -8.02099609 110.95214844 C-8.02634158 97.40952468 -8.02845796 83.86690683 -8.02538383 70.32428217 C-8.02506526 68.88155778 -8.02475089 67.4388334 -8.02444077 65.99610901 C-8.02428649 65.28616837 -8.02413221 64.57622773 -8.02397326 63.84477374 C-8.02310803 58.82981822 -8.02457112 53.81486644 -8.02692032 48.7999115 C-8.03000965 42.05639339 -8.02782595 35.31289704 -8.02202606 28.56937981 C-8.0206977 26.08646107 -8.02109385 23.60354076 -8.02328873 21.12062263 C-8.02599727 17.74693785 -8.02262274 14.37331459 -8.01760864 10.99963379 C-8.01983936 10.00325504 -8.02207009 9.00687629 -8.02436841 7.98030424 C-8.02176066 7.08369723 -8.01915291 6.18709022 -8.01646614 5.26331329 C-8.01630379 4.48353009 -8.01614144 3.70374688 -8.01597416 2.90033388 C-7.71151661 -1.40105789 -3.39491237 0.00206281 0 0 Z " fill="#FCC744" transform="translate(345.890625,220.87060546875)"/>
<path d="M0 0 C1.31238144 0.00222061 2.62476288 0.00444122 3.97691345 0.00672913 C4.6988237 0.0065831 5.42073395 0.00643707 6.16452026 0.00628662 C8.56156879 0.00698583 10.95854054 0.01477857 13.35557556 0.02259827 C15.0132442 0.02446242 16.67091338 0.02588633 18.32858276 0.02688599 C22.69996145 0.03071139 27.07130712 0.04054186 31.44267273 0.05158997 C35.89996392 0.0618036 40.35726043 0.0663835 44.81455994 0.07142639 C53.56652824 0.08216412 62.31846968 0.0992408 71.07041931 0.12025452 C71.28071006 28.1275501 71.43939318 56.13472727 71.53672886 84.14265347 C71.58312596 97.14741859 71.64637565 110.15169303 71.74937439 123.15614319 C71.83911098 134.49154539 71.89715087 145.82659221 71.91721576 157.16233975 C71.92894397 163.16412892 71.95648345 169.1649015 72.02198982 175.16636467 C72.08317476 180.81781212 72.10190442 186.46782638 72.08838844 192.11957359 C72.09086023 194.19123377 72.10870817 196.26294289 72.14326859 198.33431625 C72.39047066 213.91745011 72.39047066 213.91745011 69.2090435 219.2263813 C66.9652388 221.52514333 64.7054459 223.2962183 62.07041931 225.12025452 C61.16549501 226.12816848 60.26319253 227.13844975 59.36485291 228.15223694 C53.98491432 231.36608643 48.49798165 230.73215482 42.35948181 230.60853577 C41.02285591 230.59919933 39.68621279 230.59208714 38.3495636 230.58709717 C34.84745766 230.56809172 31.3464041 230.51905023 27.8447113 230.46357727 C24.26514418 230.4122431 20.68540542 230.38955316 17.10557556 230.36439514 C10.09342707 230.31092249 3.08197384 230.22569035 -3.92958069 230.12025452 C-3.95237081 200.96403175 -3.97007874 171.80780984 -3.98064602 142.65157995 C-3.98189679 139.21299685 -3.98319111 135.77441376 -3.98451233 132.33583069 C-3.98477464 131.65124222 -3.98503695 130.96665374 -3.98530721 130.26132017 C-3.98966395 119.16220033 -3.99755152 108.06308565 -4.00673348 96.96396888 C-4.01606992 85.58360925 -4.02156138 74.20325345 -4.02366918 62.82288975 C-4.02497672 56.42720498 -4.02806528 50.03153193 -4.03531075 43.63585091 C-4.04206698 37.62366047 -4.04419846 31.61148663 -4.04268837 25.59929276 C-4.04296488 23.3856707 -4.04497234 21.17204812 -4.04878616 18.95842934 C-4.05371721 15.9503436 -4.05258116 12.94232164 -4.04983521 9.93423462 C-4.05274805 9.0461203 -4.05566089 8.15800598 -4.058662 7.24297911 C-4.04104158 0.16587818 -4.04104158 0.16587818 0 0 Z " fill="#FCC53C" transform="translate(152.92958068847656,249.87974548339844)"/>
<path d="M0 0 C1.31238144 0.00222061 2.62476288 0.00444122 3.97691345 0.00672913 C4.6988237 0.0065831 5.42073395 0.00643707 6.16452026 0.00628662 C8.56156879 0.00698583 10.95854054 0.01477857 13.35557556 0.02259827 C15.0132442 0.02446242 16.67091338 0.02588633 18.32858276 0.02688599 C22.69996145 0.03071139 27.07130712 0.04054186 31.44267273 0.05158997 C35.89996392 0.0618036 40.35726043 0.0663835 44.81455994 0.07142639 C53.56652824 0.08216412 62.31846968 0.0992408 71.07041931 0.12025452 C71.28089873 19.26139424 71.43948419 38.40229834 71.53672886 57.54435635 C71.58308685 66.4329242 71.64625877 75.32077198 71.74937439 84.20887756 C71.83923437 91.95811695 71.89717937 99.70683476 71.91721576 107.4565807 C71.92892412 111.55827334 71.9563278 115.65847421 72.02198982 119.75968742 C72.08337464 123.62530065 72.10186714 127.4888174 72.08838844 131.35487175 C72.09085166 132.76864547 72.10858655 134.18249387 72.14326859 135.59584427 C72.39029364 146.18776402 72.39029364 146.18776402 69.2090435 150.84558296 C66.9505853 153.15029596 64.60343113 155.12649556 62.07041931 157.12025452 C61.59271874 157.66036887 61.11501818 158.20048323 60.62284184 158.75696468 C58.44662087 161.17067491 56.40331945 162.071821 53.24015808 162.5320282 C49.60086729 162.7009015 46.00193161 162.68188857 42.35948181 162.60853577 C41.02285591 162.59919933 39.68621279 162.59208714 38.3495636 162.58709717 C34.84745766 162.56809172 31.3464041 162.51905023 27.8447113 162.46357727 C24.26514418 162.4122431 20.68540542 162.38955316 17.10557556 162.36439514 C10.09342707 162.31092249 3.08197384 162.22569035 -3.92958069 162.12025452 C-3.95290777 141.14573466 -3.97055892 120.17121693 -3.98139286 99.19668674 C-3.98655622 89.45855845 -3.99359969 79.7204382 -4.00502014 69.98231506 C-4.01496575 61.49775959 -4.02143382 53.01320994 -4.02366918 44.52864879 C-4.0249765 40.03326792 -4.02806367 35.5379037 -4.03531075 31.04252815 C-4.04206902 26.81634406 -4.04419805 22.59018358 -4.04268837 18.3639946 C-4.04296479 16.80829554 -4.04497105 15.25259573 -4.04878616 13.69690132 C-4.05372042 11.58213518 -4.05257999 9.46745965 -4.04983521 7.35269165 C-4.050757 6.16634408 -4.05167879 4.97999651 -4.05262852 3.75769901 C-3.87913838 0.03905875 -3.75618488 0.15418527 0 0 Z " fill="#FCC53C" transform="translate(53.92958068847656,317.87974548339844)"/>
<path d="M0 0 C3.63006559 1.27052296 5.99121912 2.65061845 8.75 5.3125 C12.9994433 9.21663199 17.46192411 12.71496733 22.0625 16.1875 C29.85190893 22.08156313 37.45543824 28.17198831 45.00732422 34.36621094 C54.99492665 42.55501705 65.04140072 50.65958613 75.22070312 58.60888672 C78.44375766 61.1287776 81.65878237 63.65889317 84.875 66.1875 C86.05986345 67.1185308 87.24475613 68.0495244 88.4296875 68.98046875 C89.70199219 69.98013672 89.70199219 69.98013672 91 71 C95.14688239 69.33923399 98.06720903 66.34021298 101.25 63.3125 C102.42114488 62.21406478 103.59301623 61.11640359 104.765625 60.01953125 C105.32701172 59.49311035 105.88839844 58.96668945 106.46679688 58.42431641 C108.27738849 56.7423114 110.12737966 55.11253418 112 53.5 C116.10458175 49.94962338 120.07364129 46.25798294 124.0534668 42.56933594 C128.99134328 37.99618487 133.98219878 33.48543857 139 29 C138.40251953 28.11248047 138.40251953 28.11248047 137.79296875 27.20703125 C137.26316406 26.41683594 136.73335938 25.62664063 136.1875 24.8125 C135.66542969 24.03519531 135.14335937 23.25789063 134.60546875 22.45703125 C133.004517 20.00691287 131.49919063 17.51329516 130 15 C137.49204167 13.29996776 144.98511675 11.60455883 152.47953415 9.91503143 C155.95953055 9.13035532 159.43915339 8.34409638 162.91796875 7.55419922 C166.91821122 6.64598051 170.91998597 5.744686 174.921875 4.84375 C176.16990906 4.55939087 177.41794312 4.27503174 178.70379639 3.98205566 C179.86469788 3.72178589 181.02559937 3.46151611 182.22167969 3.19335938 C183.75390167 2.84694397 183.75390167 2.84694397 185.31707764 2.49353027 C188 2 188 2 192 2 C190.67977581 5.45064709 189.17793551 8.68240276 187.41796875 11.9296875 C186.90403564 12.87948486 186.39010254 13.82928223 185.8605957 14.80786133 C185.30847412 15.82001709 184.75635254 16.83217285 184.1875 17.875 C183.33321411 19.44640747 183.33321411 19.44640747 182.46166992 21.04956055 C166.68462391 49.97306414 166.68462391 49.97306414 162 57 C158.69713914 55.89904638 158.21489099 55.3103981 156.3125 52.5625 C155.87550781 51.94503906 155.43851562 51.32757813 154.98828125 50.69140625 C154 49 154 49 154 47 C146.36188272 52.78699709 139.4321971 59.17896909 132.46875 65.74609375 C129.40351056 68.63442975 126.26984263 71.42422243 123.078125 74.171875 C120.21484659 76.69069887 117.42243545 79.28348856 114.625 81.875 C112.95116064 83.42269003 111.27710846 84.9701496 109.60302734 86.51757812 C108.09524867 87.91191746 106.5886016 89.30748018 105.08203125 90.703125 C104.20933594 91.50234375 103.33664062 92.3015625 102.4375 93.125 C101.29087891 94.18074219 101.29087891 94.18074219 100.12109375 95.2578125 C98.14432067 96.88146037 96.33224967 97.97402169 94 99 C94 99.66 94 100.32 94 101 C91.23344582 99.70891619 88.95037933 98.2935196 86.6015625 96.34765625 C85.96460449 95.82413574 85.32764648 95.30061523 84.67138672 94.76123047 C83.9960791 94.20064941 83.32077148 93.64006836 82.625 93.0625 C81.18303853 91.87799647 79.7403167 90.69441802 78.296875 89.51171875 C77.2130957 88.62299072 77.2130957 88.62299072 76.10742188 87.71630859 C73.05812524 85.23292637 69.97234828 82.79803251 66.875 80.375 C66.02156006 79.70706421 66.02156006 79.70706421 65.15087891 79.02563477 C64.00679802 78.13097974 62.86243112 77.23669036 61.71777344 76.34277344 C58.80728405 74.06766093 55.90398433 71.78340575 53 69.5 C49.46773596 66.72284826 45.93413392 63.94748272 42.39453125 61.1796875 C34.51363881 55.01249823 26.73246957 48.73797509 19.01855469 42.36230469 C16.84895428 40.57088247 14.6746979 38.78522883 12.5 37 C11.45706787 36.1349585 11.45706787 36.1349585 10.39306641 35.25244141 C9.73741699 34.71538574 9.08176758 34.17833008 8.40625 33.625 C7.52936523 32.90183594 7.52936523 32.90183594 6.63476562 32.1640625 C4.88798766 30.80006266 4.88798766 30.80006266 2 30 C1.19823837 30.80268342 0.39647675 31.60536684 -0.42958069 32.432374 C-19.9488763 51.97388073 -39.47106364 71.51249491 -58.99627686 91.04808903 C-68.43849605 100.49546193 -77.87977722 109.94376818 -87.31884766 119.39428711 C-95.54705844 127.63247298 -103.77703245 135.86889261 -112.00911808 144.10320657 C-116.36683629 148.46222708 -120.72367358 152.82211985 -125.07839966 157.18412971 C-129.18013257 161.2926674 -133.28422524 165.39883313 -137.39011192 169.5032196 C-138.8937596 171.0071416 -140.39655534 172.51191595 -141.89841652 174.01762199 C-143.95583535 176.08004774 -146.0163548 178.13932743 -148.07763672 180.19789124 C-148.95900095 181.08362472 -148.95900095 181.08362472 -149.85817051 181.98725182 C-153.48648547 185.60273118 -157.24135072 189.01935499 -161.12832165 192.35548013 C-164.39814345 195.22845609 -167.45556223 198.31293691 -170.52734375 201.39453125 C-171.20172989 202.06796066 -171.87611603 202.74139008 -172.57093811 203.43522644 C-173.97959068 204.8432044 -175.38700499 206.25242224 -176.79321289 207.6628418 C-178.95279773 209.82783604 -181.11773882 211.98737256 -183.28320312 214.14648438 C-184.6565712 215.52051237 -186.02962951 216.89485006 -187.40234375 218.26953125 C-188.05017319 218.91533646 -188.69800262 219.56114166 -189.36546326 220.22651672 C-189.9602095 220.82441513 -190.55495575 221.42231354 -191.16772461 222.03833008 C-191.69208603 222.56348709 -192.21644745 223.0886441 -192.75669861 223.62971497 C-194.11251362 225.00017992 -194.11251362 225.00017992 -195 227 C-198.26488369 226.41787177 -199.90649106 225.47004122 -202.234375 223.12890625 C-202.80800781 222.55462891 -203.38164062 221.98035156 -203.97265625 221.38867188 C-204.85244141 220.4847168 -204.85244141 220.4847168 -205.75 219.5625 C-206.35199219 218.96373047 -206.95398438 218.36496094 -207.57421875 217.74804688 C-212 213.26706881 -212 213.26706881 -212 211 C-210.51024187 209.52992481 -210.51024187 209.52992481 -208.46265221 207.83097744 C-204.31026174 204.29719338 -200.43853049 200.57112491 -196.5975647 196.70436096 C-195.89793653 196.00417609 -195.19830836 195.30399121 -194.47747934 194.58258861 C-192.15528579 192.25738125 -189.83669164 189.92861868 -187.51806641 187.59985352 C-185.84550704 185.92373476 -184.17271025 184.24785288 -182.49969482 182.57218933 C-178.90907081 178.97503413 -175.31996051 175.37637783 -171.73198318 171.77658272 C-166.54324478 166.57107012 -161.35100591 161.36906031 -156.15754203 156.16826283 C-147.72829917 147.72710054 -139.30056998 139.28442908 -130.87451172 130.84008789 C-130.37115584 130.33564189 -129.86779996 129.83119589 -129.34919088 129.31146365 C-122.18964674 122.13627451 -115.03158473 114.95960855 -107.87409513 107.78237002 C-107.3689201 107.27580169 -106.86374508 106.76923335 -106.34326172 106.24731445 C-105.58642674 105.48838918 -105.58642674 105.48838918 -104.81430216 104.71413208 C-96.41262115 96.28944718 -88.00710658 87.86859932 -79.59841669 79.45091003 C-73.95148255 73.79759339 -68.30926895 68.13961397 -62.67023778 62.4784137 C-59.17268793 58.96917964 -55.67100849 55.46408976 -52.16811371 51.96019173 C-50.53850212 50.32842303 -48.91062427 48.69492087 -47.28456497 47.05961227 C-45.0744357 44.83739323 -42.85832499 42.62132159 -40.64053345 40.40675354 C-39.99035488 39.75006717 -39.34017631 39.0933808 -38.67029536 38.41679484 C-34.22821514 34 -34.22821514 34 -32 34 C-32 33.34 -32 32.68 -32 32 C-30.66967773 30.6887207 -30.66967773 30.6887207 -28.74609375 29.11328125 C-23.43575715 24.59651049 -18.5399746 19.69053778 -13.62475586 14.75512695 C-12.04460356 13.16954204 -10.45908024 11.58946558 -8.87304688 10.00976562 C-7.86426194 9.00032108 -6.85578662 7.99056701 -5.84765625 6.98046875 C-4.94023682 6.07192139 -4.03281738 5.16337402 -3.09790039 4.22729492 C-0.97253466 2.18483415 -0.97253466 2.18483415 0 0 Z " fill="#E1A931" transform="translate(260,20)"/>
<path d="M0 0 C4.95 0 9.9 0 15 0 C15.15964031 45.61526339 15.2835429 91.23048993 15.35745731 136.84597773 C15.3662124 142.22959434 15.37527264 147.61321039 15.38452148 152.99682617 C15.38635766 154.0686207 15.38819383 155.14041523 15.39008565 156.24468838 C15.42055641 173.60590228 15.47575479 190.96695416 15.54006957 208.3280719 C15.60549822 226.13822104 15.64440469 243.94828524 15.65861946 261.75854963 C15.66823102 272.75118204 15.69860273 283.74335653 15.75541527 294.735848 C15.79237756 302.27076484 15.80360967 309.80544446 15.79450964 317.34044541 C15.79001979 321.68987415 15.79696829 326.03850196 15.83443832 330.38778877 C15.86849631 334.37007436 15.87023074 338.35102034 15.84629226 342.33336752 C15.84333371 343.77361717 15.85222317 345.2139503 15.87418228 346.65403558 C16.02853679 357.40194116 16.02853679 357.40194116 13.48200238 361.35854423 C11.74386033 363.12542508 10.01516038 364.56502639 8 366 C6.63875 367.2065625 6.63875 367.2065625 5.25 368.4375 C3 370 3 370 0 370 C0 247.9 0 125.8 0 0 Z " fill="#DFA82E" transform="translate(302,108)"/>
<path d="M0 0 C4.62 0 9.24 0 14 0 C14.18252031 31.21970514 14.32408698 62.43926914 14.40852264 93.65938118 C14.41852823 97.34559419 14.42888281 101.03180615 14.43945312 104.71801758 C14.44155161 105.45187264 14.44365009 106.1857277 14.44581217 106.94182079 C14.4806182 118.82273199 14.54369194 130.70333337 14.61722237 142.5840608 C14.69204795 154.77577905 14.73647294 166.96733511 14.75270796 179.15927356 C14.76368254 186.68191854 14.79833574 194.2036878 14.86333174 201.72606318 C14.91063955 207.49534091 14.91563834 213.26405816 14.90486145 219.03349113 C14.90706388 221.39945239 14.92299831 223.76544653 14.9536438 226.13121033 C14.9934414 229.36173005 14.9838884 232.58850099 14.96203613 235.81910706 C14.98533886 236.75589045 15.0086416 237.69267384 15.03265047 238.6578446 C14.96094608 242.57813857 14.75252277 245.03629398 12.2952795 248.18312252 C7.10299342 253 7.10299342 253 2 253 C-0.07172478 249.89241283 -0.24961833 249.2439031 -0.24609566 245.72651386 C-0.25007775 244.84969182 -0.25405985 243.97286978 -0.25816262 243.06947738 C-0.25233693 242.10547883 -0.24651125 241.14148028 -0.24050903 240.14826965 C-0.24221788 239.12481829 -0.24392673 238.10136692 -0.24568737 237.04690188 C-0.24899402 233.60126611 -0.23795916 230.15582305 -0.22705078 226.71020508 C-0.22648692 224.24673975 -0.22680273 221.78327409 -0.22793579 219.31980896 C-0.22839192 214.00779025 -0.22270177 208.69583207 -0.21146011 203.38382912 C-0.19521708 195.70354183 -0.18999834 188.0232783 -0.18748413 180.3429757 C-0.18310514 167.88268974 -0.16979053 155.42242995 -0.15087891 142.9621582 C-0.13252537 130.85701631 -0.11836629 118.75188151 -0.10986328 106.64672852 C-0.10933783 105.90076779 -0.10881239 105.15480707 -0.10827102 104.38624147 C-0.10566097 100.64403561 -0.10313355 96.90182969 -0.10064721 93.15962374 C-0.07990837 62.1063968 -0.04452881 31.05320237 0 0 Z " fill="#E0A72C" transform="translate(398,222)"/>
<path d="M0 0 C4.95 0 9.9 0 15 0 C15.18688621 27.89421785 15.32795787 55.78834187 15.41449738 83.68305969 C15.45574737 96.63511076 15.51198529 109.58677283 15.60351562 122.53857422 C15.68325607 133.82745434 15.73486657 145.11605275 15.75270796 156.40520668 C15.76313718 162.38283792 15.78764451 168.35966322 15.84584045 174.33703613 C15.90018617 179.9646 15.91688347 185.59102685 15.90486145 191.2188282 C15.90706037 193.28282923 15.92294856 195.34686869 15.9536438 197.41064262 C16.17371161 212.97147519 16.17371161 212.97147519 13.29856873 217.94058228 C11.29687107 219.99635007 9.42583427 221.484717 7 223 C5.97308422 223.83213264 5.97308422 223.83213264 4.92542267 224.68107605 C3 226 3 226 0 226 C0 151.42 0 76.84 0 0 Z " fill="#E0A82A" transform="translate(208,252)"/>
<path d="M0 0 C4.95 0 9.9 0 15 0 C15 48.51 15 97.02 15 147 C14.01 147 13.02 147 12 147 C12 146.34 12 145.68 12 145 C11.34 145 10.68 145 10 145 C10 145.99 10 146.98 10 148 C9.01 148 8.02 148 7 148 C6.505 149.98 6.505 149.98 6 152 C5.34 151.67 4.68 151.34 4 151 C4 150.34 4 149.68 4 149 C3.34 149.33 2.68 149.66 2 150 C1.59270772 152.32156597 1.25561323 154.6568787 1 157 C0.67 157 0.34 157 0 157 C0 105.19 0 53.38 0 0 Z " fill="#E1A82D" transform="translate(109,320)"/>
<path d="M0 0 C24.42 0 48.84 0 74 0 C74 71.28 74 142.56 74 216 C73.67 216 73.34 216 73 216 C73 145.38 73 74.76 73 2 C49.24 2 25.48 2 1 2 C1 76.58 1 151.16 1 228 C20.47 228 39.94 228 60 228 C59.67 228.66 59.34 229.32 59 230 C39.2 230 19.4 230 -1 230 C-1.02202669 200.84377528 -1.04049805 171.68755638 -1.05106533 142.53132543 C-1.0523161 139.09274233 -1.05361042 135.65415925 -1.05493164 132.21557617 C-1.05519395 131.5309877 -1.05545626 130.84639923 -1.05572652 130.14106565 C-1.06008326 119.04194581 -1.06797083 107.94283114 -1.0771528 96.84371436 C-1.08648923 85.46335473 -1.09198069 74.08299893 -1.09408849 62.70263523 C-1.09539603 56.30695047 -1.0984846 49.91127741 -1.10573006 43.51559639 C-1.11248629 37.50340595 -1.11461778 31.49123211 -1.11310768 25.47903824 C-1.11338419 23.26541618 -1.11539165 21.05179361 -1.11920547 18.83817482 C-1.12413652 15.83008909 -1.12300048 12.82206713 -1.12025452 9.8139801 C-1.12316736 8.92586578 -1.1260802 8.03775147 -1.12908131 7.12272459 C-1.11412121 1.11412121 -1.11412121 1.11412121 0 0 Z " fill="#F7DE98" transform="translate(150,250)"/>
<path d="M0 0 C24.42 0 48.84 0 74 0 C74 48.84 74 97.68 74 148 C73.67 148 73.34 148 73 148 C73 99.82 73 51.64 73 2 C49.24 2 25.48 2 1 2 C1 54.14 1 106.28 1 160 C20.47 160 39.94 160 60 160 C59.67 160.66 59.34 161.32 59 162 C39.2 162 19.4 162 -1 162 C-1.02254542 141.02547716 -1.04097823 120.05096409 -1.05181217 99.07643223 C-1.05697554 89.33830393 -1.064019 79.60018368 -1.07543945 69.86206055 C-1.08538506 61.37750507 -1.09185313 52.89295542 -1.09408849 44.40839428 C-1.09539581 39.9130134 -1.09848298 35.41764919 -1.10573006 30.92227364 C-1.11248833 26.69608954 -1.11461736 22.46992907 -1.11310768 18.24374008 C-1.1133841 16.68804102 -1.11539036 15.13234121 -1.11920547 13.5766468 C-1.12413973 11.46188066 -1.1229993 9.34720513 -1.12025452 7.23243713 C-1.12117631 6.04608956 -1.1220981 4.85974199 -1.12304783 3.6374445 C-1 1 -1 1 0 0 Z " fill="#F5DE9E" transform="translate(51,318)"/>
<path d="M0 0 C4.62 0 9.24 0 14 0 C14.06999127 27.99795867 14.12293962 55.99590428 14.15543652 83.99393272 C14.17092449 96.99305516 14.1920508 109.99212333 14.22631836 122.99121094 C14.25616171 134.31738686 14.27556095 145.6435235 14.28226548 156.96973765 C14.28618634 162.97034671 14.2954408 168.97084335 14.31719017 174.97141647 C14.33747539 180.61347784 14.34385 186.25537992 14.33932304 191.89747429 C14.34015183 193.97361681 14.34616465 196.04976437 14.35761642 198.12587547 C14.37243602 200.94986915 14.36899241 203.77325316 14.36076355 206.59725952 C14.36950207 207.42798772 14.3782406 208.25871592 14.38724393 209.11461771 C14.36914349 211.39616966 14.36914349 211.39616966 14 215 C12.515 215.99 12.515 215.99 11 217 C11 145.72 11 74.44 11 1 C7.37 1 3.74 1 0 1 C0 0.67 0 0.34 0 0 Z " fill="#DAA934" transform="translate(209,252)"/>
<path d="M0 0 C19.14 0 38.28 0 58 0 C58 0.33 58 0.66 58 1 C39.19 1 20.38 1 1 1 C1 84.82 1 168.64 1 255 C19.48 254.67 37.96 254.34 57 254 C57.66 254.33 58.32 254.66 59 255 C58.505 252.525 58.505 252.525 58 250 C59.32 251.32 60.64 252.64 62 254 C61.34 254.99 60.68 255.98 60 257 C40.2 257 20.4 257 0 257 C0 172.19 0 87.38 0 0 Z " fill="#F2C458" transform="translate(340,222)"/>
<path d="M0 0 C0.33 0 0.66 0 1 0 C1 121.11 1 242.22 1 367 C1.99 367 2.98 367 4 367 C4 365.02 4 363.04 4 361 C4.66 360.67 5.32 360.34 6 360 C6 360.99 6 361.98 6 363 C6.99 363 7.98 363 9 363 C9 361.68 9 360.36 9 359 C9.99 359 10.98 359 12 359 C12.33 358.01 12.66 357.02 13 356 C13.33 357.32 13.66 358.64 14 360 C12.23722805 361.67598012 10.46575711 363.34059236 8.6875 365 C8.18798828 365.47695313 7.68847656 365.95390625 7.17382812 366.4453125 C3.33984375 370 3.33984375 370 0 370 C0 247.9 0 125.8 0 0 Z " fill="#E9B12E" transform="translate(302,108)"/>
<path d="M0 0 C18.81 0 37.62 0 57 0 C57 0.33 57 0.66 57 1 C38.52 1 20.04 1 1 1 C1 52.48 1 103.96 1 157 C19.81 157 38.62 157 58 157 C58 154.36 58 151.72 58 149 C59.32 148.67 60.64 148.34 62 148 C61.67 148.99 61.34 149.98 61 151 C61.66 151 62.32 151 63 151 C63.33 150.01 63.66 149.02 64 148 C64.99 148 65.98 148 67 148 C67 147.01 67 146.02 67 145 C67.66 145 68.32 145 69 145 C69 145.66 69 146.32 69 147 C69.66 147.33 70.32 147.66 71 148 C69.91993807 149.10736686 68.83578674 150.21074581 67.75 151.3125 C67.14671875 151.92738281 66.5434375 152.54226563 65.921875 153.17578125 C49.94167958 168.34397487 22.03271984 158 0 158 C0 105.86 0 53.72 0 0 Z " fill="#F6C450" transform="translate(52,320)"/>
<path d="M0 0 C0.33 0 0.66 0 1 0 C1.33 72.93 1.66 145.86 2 221 C2.66 221 3.32 221 4 221 C4.33 221.99 4.66 222.98 5 224 C4.01 224.99 4.01 224.99 3 226 C2.01 226 1.02 226 0 226 C0 151.42 0 76.84 0 0 Z " fill="#EBB534" transform="translate(208,252)"/>
<path d="M0 0 C0.33 0 0.66 0 1 0 C1.0699917 27.60680697 1.12293983 55.2136007 1.15543652 82.82047844 C1.1709244 95.63799882 1.19205053 108.45546416 1.22631836 121.27294922 C1.25616199 132.44091201 1.27556101 143.60883496 1.28226548 154.77683651 C1.2861863 160.69360924 1.29544046 166.61026795 1.31719017 172.52700424 C1.33747584 178.09027172 1.34384992 183.65337767 1.33932304 189.21667862 C1.34015181 191.26379523 1.34616437 193.31091696 1.35761642 195.35800171 C1.37243674 198.14258664 1.36899217 200.92655332 1.36076355 203.71115112 C1.36950207 204.53020648 1.3782406 205.34926183 1.38724393 206.19313705 C1.36914349 208.44302177 1.36914349 208.44302177 1 212 C-0.485 212.99 -0.485 212.99 -2 214 C-2 212.35 -2 210.7 -2 209 C-1.67 209 -1.34 209 -1 209 C-0.505 105.545 -0.505 105.545 0 0 Z " fill="#D8AD4D" transform="translate(222,255)"/>
<path d="M0 0 C0.495 1.98 0.495 1.98 1 4 C-0.32 4.33 -1.64 4.66 -3 5 C-3 5.99 -3 6.98 -3 8 C-3.66 8 -4.32 8 -5 8 C-5.268125 8.639375 -5.53625 9.27875 -5.8125 9.9375 C-7 12 -7 12 -10 13 C-10.71727778 14.64551962 -11.38325228 16.31422289 -12 18 C-14 20 -14 20 -16 20.375 C-18.20265017 20.82123176 -18.20265017 20.82123176 -19.25 23.0625 C-19.4975 23.701875 -19.745 24.34125 -20 25 C-20.99 25 -21.98 25 -23 25 C-23.12375 25.928125 -23.12375 25.928125 -23.25 26.875 C-24.24258118 29.68731335 -25.39700558 29.69850279 -28 31 C-28.495 31.845625 -28.99 32.69125 -29.5 33.5625 C-31 36 -31 36 -33.1875 36.8125 C-33.785625 36.874375 -34.38375 36.93625 -35 37 C-35 37.99 -35 38.98 -35 40 C-36.32 39.67 -37.64 39.34 -39 39 C-26.13 26.13 -13.26 13.26 0 0 Z " fill="#E4C477" transform="translate(189,91)"/>
<path d="M0 0 C3.91402949 1.26941497 5.79072873 2.51167694 8 6 C2.125 4.125 2.125 4.125 1 3 C-1.39362307 5.06946823 -1.39362307 5.06946823 -2.375 8 C-3 10 -3 10 -5.375 11.3125 C-8.34008696 12.86902918 -8.34008696 12.86902918 -9.5 16.5625 C-11 20 -11 20 -13.5625 21.4375 C-16 22 -16 22 -18 22 C-19.6446674 24.46326712 -19.6446674 24.46326712 -21 27 C-22.32 26.67 -23.64 26.34 -25 26 C-24.27820557 25.28344238 -23.55641113 24.56688477 -22.81274414 23.82861328 C-20.13964596 21.17359277 -17.46984029 18.51528247 -14.80102539 15.85595703 C-13.64469755 14.70466305 -12.48747446 13.55426751 -11.3293457 12.40478516 C-9.66642789 10.75397424 -8.0067389 9.09997663 -6.34765625 7.4453125 C-5.56794212 6.6733403 -5.56794212 6.6733403 -4.7724762 5.88577271 C-2.04458311 3.20150686 -2.04458311 3.20150686 0 0 Z " fill="#DFAE42" transform="translate(260,20)"/>
<path d="M0 0 C0.495 0.99 0.495 0.99 1 2 C0.3125 4.0625 0.3125 4.0625 -1 6 C-1.66 6.144375 -2.32 6.28875 -3 6.4375 C-3.66 6.623125 -4.32 6.80875 -5 7 C-5.433125 8.11375 -5.433125 8.11375 -5.875 9.25 C-7.03972113 12.09709611 -7.72947395 12.79626224 -10.0625 14.625 C-13.2107551 16.73408995 -13.2107551 16.73408995 -14 20 C-14.99 20.33 -15.98 20.66 -17 21 C-17.33 21.66 -17.66 22.32 -18 23 C-18.99 23 -19.98 23 -21 23 C-21.061875 23.61875 -21.12375 24.2375 -21.1875 24.875 C-22 27 -22 27 -24.5625 28.25 C-25.366875 28.4975 -26.17125 28.745 -27 29 C-27 29.99 -27 30.98 -27 32 C-29.475 32.495 -29.475 32.495 -32 33 C-28.10023279 28.33125463 -24.04785356 23.90872191 -19.7265625 19.62890625 C-19.15795502 19.06171371 -18.58934753 18.49452118 -18.00350952 17.91014099 C-16.21303764 16.12520087 -14.41909516 14.34379744 -12.625 12.5625 C-11.39950677 11.34203061 -10.17424428 10.12132947 -8.94921875 8.90039062 C-5.96880226 5.93091244 -2.98527106 2.96459743 0 0 Z " fill="#DFBC62" transform="translate(133,147)"/>
<path d="M0 0 C-0.33 1.32 -0.66 2.64 -1 4 C0.32 4 1.64 4 3 4 C3 2.68 3 1.36 3 0 C3.66 0 4.32 0 5 0 C5.33 0.99 5.66 1.98 6 3 C4.35718838 4.66964521 2.71067239 6.3356464 1.0625 8 C-0.31228516 9.3921875 -0.31228516 9.3921875 -1.71484375 10.8125 C-4 13 -4 13 -5 13 C-5 10.69 -5 8.38 -5 6 C-5.66 5.67 -6.32 5.34 -7 5 C-2.25 0 -2.25 0 0 0 Z " fill="#E1B34A" transform="translate(209,94)"/>
<path d="M0 0 C0.66 0 1.32 0 2 0 C2 0.66 2 1.32 2 2 C2.66 2.33 3.32 2.66 4 3 C2.89902432 4.12812303 1.79408444 5.25237811 0.6875 6.375 C0.07261719 7.00148438 -0.54226562 7.62796875 -1.17578125 8.2734375 C-3.83060972 10.78614453 -5.27217906 12 -9 12 C-9 9.36 -9 6.72 -9 4 C-7.68 3.67 -6.36 3.34 -5 3 C-5.33 3.99 -5.66 4.98 -6 6 C-5.34 6 -4.68 6 -4 6 C-3.67 5.01 -3.34 4.02 -3 3 C-2.01 3 -1.02 3 0 3 C0 2.01 0 1.02 0 0 Z " fill="#DFAE43" transform="translate(119,465)"/>
<path d="M0 0 C0.89203125 0.01804688 1.7840625 0.03609375 2.703125 0.0546875 C3.71632813 0.08949219 3.71632813 0.08949219 4.75 0.125 C3.375 2.125 3.375 2.125 1.75 4.125 C1.09 4.125 0.43 4.125 -0.25 4.125 C-0.25 4.785 -0.25 5.445 -0.25 6.125 C-3.14234315 6.95138376 -5.13742431 7.125 -8.25 7.125 C-8.58 5.475 -8.91 3.825 -9.25 2.125 C-6.03817851 0.21891902 -3.71117397 -0.09766247 0 0 Z " fill="#DDA82F" transform="translate(404.25,33.875)"/>
<path d="M0 0 C0.99 0.33 1.98 0.66 3 1 C1.43358249 5.30764815 -0.68336156 9.06171464 -3 13 C-6.26782914 11.91072362 -6.81937333 11.31652071 -8.75 8.625 C-9.19859375 8.01914063 -9.6471875 7.41328125 -10.109375 6.7890625 C-11 5 -11 5 -10 2 C-9.34 2 -8.68 2 -8 2 C-7.67 3.65 -7.34 5.3 -7 7 C-6.401875 6.67 -5.80375 6.34 -5.1875 6 C-3 5 -3 5 0 5 C0 3.35 0 1.7 0 0 Z " fill="#E4BE6C" transform="translate(425,64)"/>
<path d="M0 0 C1.32 0 2.64 0 4 0 C4 0.66 4 1.32 4 2 C4.61875 1.835 5.2375 1.67 5.875 1.5 C8 1 8 1 10 1 C12.33491639 0.67794257 14.66842508 0.34541851 17 0 C15.38405168 2.04119788 13.7143618 4.04072937 12 6 C11.34 6 10.68 6 10 6 C10 6.66 10 7.32 10 8 C6.05205855 6.32971708 3.18203882 3.8204435 0 1 C0 0.67 0 0.34 0 0 Z " fill="#E6C679" transform="translate(344,113)"/>
<path d="M0 0 C2.64 0 5.28 0 8 0 C7.49477778 4.37859255 4.82172778 6.81651224 2 10 C1.34 9.67 0.68 9.34 0 9 C0.33 8.01 0.66 7.02 1 6 C0.01 6 -0.98 6 -2 6 C-1.34 4.02 -0.68 2.04 0 0 Z " fill="#E2A62D" transform="translate(230,52)"/>
<path d="M0 0 C5.51175932 1.18881083 8.23216888 2.5672575 12 7 C12.33 7.66 12.66 8.32 13 9 C13.66 8.67 14.32 8.34 15 8 C15.66 9.98 16.32 11.96 17 14 C10.92457005 10.22338138 5.37354208 5.71380115 0 1 C0 0.67 0 0.34 0 0 Z " fill="#E3BB68" transform="translate(314,89)"/>
<path d="M0 0 C3.91402949 1.26941497 5.79072873 2.51167694 8 6 C2.125 4.125 2.125 4.125 1 3 C-0.90425248 4.65587173 -1.90466718 5.55057385 -2.4375 8.0625 C-3 10 -3 10 -4.875 11.3125 C-7 12 -7 12 -10 11 C-9.36191406 10.37351562 -8.72382813 9.74703125 -8.06640625 9.1015625 C-7.24011719 8.28429688 -6.41382813 7.46703125 -5.5625 6.625 C-4.73878906 5.81289063 -3.91507812 5.00078125 -3.06640625 4.1640625 C-0.96565328 2.17651485 -0.96565328 2.17651485 0 0 Z " fill="#DFB65D" transform="translate(260,20)"/>
<path d="M0 0 C2.375 -0.125 2.375 -0.125 5 0 C5.66 0.66 6.32 1.32 7 2 C6.67 2.99 6.34 3.98 6 5 C4.68 4.34 3.36 3.68 2 3 C1.50628906 3.5053125 1.01257813 4.010625 0.50390625 4.53125 C-0.13675781 5.1809375 -0.77742188 5.830625 -1.4375 6.5 C-2.07558594 7.1496875 -2.71367187 7.799375 -3.37109375 8.46875 C-5 10 -5 10 -6 10 C-6.33 8.02 -6.66 6.04 -7 4 C-6.01 3.67 -5.02 3.34 -4 3 C-3.34 3.33 -2.68 3.66 -2 4 C-2 3.34 -2 2.68 -2 2 C-1.34 2 -0.68 2 0 2 C0 1.34 0 0.68 0 0 Z " fill="#E1B04A" transform="translate(260,47)"/>
<path d="M0 0 C3.94139078 1.66751148 6.7892812 4.22710649 10 7 C7 8 7 8 4 8 C3.01 8.33 2.02 8.66 1 9 C0.34 8.67 -0.32 8.34 -1 8 C-0.67 5.36 -0.34 2.72 0 0 Z " fill="#E1B651" transform="translate(274,31)"/>
<path d="M0 0 C0.33 0.66 0.66 1.32 1 2 C0.3125 4.0625 0.3125 4.0625 -1 6 C-3.125 6.75 -3.125 6.75 -5 7 C-5.0825 7.61875 -5.165 8.2375 -5.25 8.875 C-6 11 -6 11 -8.0625 12.25 C-8.701875 12.4975 -9.34125 12.745 -10 13 C-10 13.66 -10 14.32 -10 15 C-11.65 15.33 -13.3 15.66 -15 16 C-10.30233025 10.33870569 -5.25276628 5.14771096 0 0 Z " fill="#E2BF68" transform="translate(149,131)"/>
<path d="M0 0 C1.65 0.33 3.3 0.66 5 1 C1.0580583 5.88049925 -3.11950075 10.0580583 -8 14 C-7.68289062 13.40703125 -7.36578125 12.8140625 -7.0390625 12.203125 C-5.76662181 9.50516805 -5.40121626 6.94225259 -5 4 C-3.68 4.33 -2.36 4.66 -1 5 C-0.67 3.35 -0.34 1.7 0 0 Z " fill="#E8CA7B" transform="translate(113,192)"/>
<path d="M0 0 C4.56767338 2.92799575 8.75743318 6.1632784 12.94921875 9.609375 C15.00086112 11.28061576 15.00086112 11.28061576 18 11 C18 11.66 18 12.32 18 13 C16.02 13 14.04 13 12 13 C12 12.34 12 11.68 12 11 C11.01 11.33 10.02 11.66 9 12 C8.67 10.68 8.34 9.36 8 8 C7.38125 7.87625 6.7625 7.7525 6.125 7.625 C3.29577578 6.79287523 2.06309516 5.06309516 0 3 C0 2.01 0 1.02 0 0 Z " fill="#E6C273" transform="translate(336,80)"/>
<path d="M0 0 C0 4.07746885 -1.52068051 5.83198065 -4 9 C-6.25 9.875 -6.25 9.875 -8 10 C-8.04125 10.61875 -8.0825 11.2375 -8.125 11.875 C-8.41375 12.57625 -8.7025 13.2775 -9 14 C-12.0625 15.25 -12.0625 15.25 -15 16 C-10.30233025 10.33870569 -5.25276628 5.14771096 0 0 Z " fill="#E5CD7F" transform="translate(210,70)"/>
<path d="M0 0 C-1.07401108 2.91517292 -1.77810176 4.77810176 -4 7 C-4 5.35 -4 3.7 -4 2 C-4.6290625 2.2165625 -5.258125 2.433125 -5.90625 2.65625 C-11.51445928 4.48060724 -16.10968596 5.32723967 -22 5 C-18.47773428 2.97469721 -14.95941784 2.20547112 -11 1.375 C-9.783125 1.11460938 -8.56625 0.85421875 -7.3125 0.5859375 C-4 0 -4 0 0 0 Z " fill="#ECD396" transform="translate(452,22)"/>
<path d="M0 0 C0.66 0.99 1.32 1.98 2 3 C0.52651292 6.42527887 -1.40907846 8.64955058 -4.0625 11.25 C-4.77535156 11.95640625 -5.48820312 12.6628125 -6.22265625 13.390625 C-8 15 -8 15 -9 15 C-9 13.02 -9 11.04 -9 9 C-7.68 9.33 -6.36 9.66 -5 10 C-4.67 8.35 -4.34 6.7 -4 5 C-2.68 5 -1.36 5 0 5 C-0.2784375 4.0409375 -0.2784375 4.0409375 -0.5625 3.0625 C-0.706875 2.381875 -0.85125 1.70125 -1 1 C-0.67 0.67 -0.34 0.34 0 0 Z " fill="#DEB34F" transform="translate(91,213)"/>
<path d="M0 0 C1.32 0.66 2.64 1.32 4 2 C1.03 4.97 -1.94 7.94 -5 11 C-5.33 10.01 -5.66 9.02 -6 8 C-5.34 8 -4.68 8 -4 8 C-4 6.02 -4 4.04 -4 2 C-3.34 1.67 -2.68 1.34 -2 1 C-1.34 1.33 -0.68 1.66 0 2 C0 1.34 0 0.68 0 0 Z " fill="#E0B755" transform="translate(230,76)"/>
<path d="M0 0 C1.32 0.33 2.64 0.66 4 1 C1.03 3.97 -1.94 6.94 -5 10 C-7 6 -7 6 -7 4 C-5.68 3.34 -4.36 2.68 -3 2 C-3 2.66 -3 3.32 -3 4 C-2.34 4 -1.68 4 -1 4 C-0.67 2.68 -0.34 1.36 0 0 Z " fill="#E3BB5F" transform="translate(199,108)"/>
<path d="M0 0 C0.66 0.33 1.32 0.66 2 1 C0.84371094 2.12148438 0.84371094 2.12148438 -0.3359375 3.265625 C-1.34922356 4.26014651 -2.36222975 5.25495323 -3.375 6.25 C-3.88289062 6.74113281 -4.39078125 7.23226562 -4.9140625 7.73828125 C-7.51583648 10.30582136 -9.64588097 12.57391571 -11 16 C-12.32 15.67 -13.64 15.34 -15 15 C-10.05 10.05 -5.1 5.1 0 0 Z " fill="#EFDFA1" transform="translate(226,54)"/>
<path d="M0 0 C1.44319692 0.90767102 2.87934106 1.82656106 4.3125 2.75 C5.11300781 3.26046875 5.91351563 3.7709375 6.73828125 4.296875 C9.00368861 6.00277761 10.42684167 7.65808145 12 10 C8.71823412 10 6.89111788 9.52164099 4 8 C3.1875 5.875 3.1875 5.875 3 4 C2.34 4 1.68 4 1 4 C0.67 2.68 0.34 1.36 0 0 Z " fill="#E5C87D" transform="translate(285,39)"/>
<path d="M0 0 C0.99 0.66 1.98 1.32 3 2 C1.02 2.99 1.02 2.99 -1 4 C-1.204437 7.67986596 -0.74565111 9.78360346 1 13 C-0.1725131 12.04882866 -1.33787015 11.08882991 -2.5 10.125 C-3.1496875 9.59132812 -3.799375 9.05765625 -4.46875 8.5078125 C-4.9740625 8.01023438 -5.479375 7.51265625 -6 7 C-6 6.34 -6 5.68 -6 5 C-4.04072937 3.2856382 -2.04119788 1.61594832 0 0 Z " fill="#E7CA84" transform="translate(54,226)"/>
<path d="M0 0 C0.94875 0.04125 1.8975 0.0825 2.875 0.125 C1.92078192 1.27426266 0.96147955 2.41930541 0 3.5625 C-0.53367188 4.20058594 -1.06734375 4.83867187 -1.6171875 5.49609375 C-3.125 7.125 -3.125 7.125 -5.125 8.125 C-5.25 5.25 -5.25 5.25 -5.125 2.125 C-3.125 0.125 -3.125 0.125 0 0 Z " fill="#E5C168" transform="translate(153.125,154.875)"/>
<path d="M0 0 C-0.99 0.66 -1.98 1.32 -3 2 C-2.67 4.64 -2.34 7.28 -2 10 C-4.96404505 7.19195732 -7.44499019 4.81684226 -9 1 C-5.92677456 0.08941469 -3.19902639 -0.08886184 0 0 Z " fill="#E6C580" transform="translate(399,34)"/>
<path d="M0 0 C1.67542976 0.28604898 3.34385343 0.61781233 5 1 C4.04578192 2.14926266 3.08647955 3.29430541 2.125 4.4375 C1.59132812 5.07558594 1.05765625 5.71367187 0.5078125 6.37109375 C-1 8 -1 8 -3 9 C-3 6.69 -3 4.38 -3 2 C-1.02 2.99 -1.02 2.99 1 4 C1 3.34 1 2.68 1 2 C0.34 1.67 -0.32 1.34 -1 1 C-0.67 0.67 -0.34 0.34 0 0 Z " fill="#E3BD61" transform="translate(175,130)"/>
<path d="M0 0 C-1.30986273 1.16962686 -2.6229626 2.33562944 -3.9375 3.5 C-4.66839844 4.1496875 -5.39929688 4.799375 -6.15234375 5.46875 C-8 7 -8 7 -9 7 C-9 5.35 -9 3.7 -9 2 C-8.01 2 -7.02 2 -6 2 C-6 1.34 -6 0.68 -6 0 C-3.50907189 -1.24546405 -2.58919267 -0.7767578 0 0 Z " fill="#E2BE69" transform="translate(405,74)"/>
<path d="M0 0 C0.66 0 1.32 0 2 0 C2 0.66 2 1.32 2 2 C2.66 2.33 3.32 2.66 4 3 C1.69 4.98 -0.62 6.96 -3 9 C-3 7.02 -3 5.04 -3 3 C-2.01 3 -1.02 3 0 3 C0 2.01 0 1.02 0 0 Z " fill="#E3BC5A" transform="translate(119,465)"/>
<path d="M0 0 C0 3.17370278 -0.30933342 4.3794668 -2 7 C-4.125 8.25 -4.125 8.25 -6 9 C-6 9.66 -6 10.32 -6 11 C-6.66 10.67 -7.32 10.34 -8 10 C-5.83735988 6.01618925 -3.28788824 3.11016455 0 0 Z " fill="#DEB456" transform="translate(73,207)"/>
<path d="M0 0 C0.66 0.33 1.32 0.66 2 1 C1.01 2.485 1.01 2.485 0 4 C0 4.66 0 5.32 0 6 C-5.75 7.125 -5.75 7.125 -8 6 C-5.54080489 3.3651481 -3.42227589 1.25483449 0 0 Z " fill="#E2B95E" transform="translate(198,84)"/>
<path d="M0 0 C0.99 0 1.98 0 3 0 C1.74194623 4.50802601 0.09592835 7.4912812 -3 11 C-3 8.69 -3 6.38 -3 4 C-2.01 3.67 -1.02 3.34 0 3 C0 2.01 0 1.02 0 0 Z " fill="#E2C171" transform="translate(431,54)"/>
<path d="M0 0 C0.66 0 1.32 0 2 0 C2.375 2.6875 2.375 2.6875 2 6 C0.176017 8.06398076 -1.72763839 9.39041053 -4 11 C-4 9.68 -4 8.36 -4 7 C-3.01 7 -2.02 7 -1 7 C-0.67 4.69 -0.34 2.38 0 0 Z " fill="#DFB24C" transform="translate(73,230)"/>
<path d="M0 0 C3.94139078 1.66751148 6.7892812 4.22710649 10 7 C9.34 7.66 8.68 8.32 8 9 C5.125 7.875 5.125 7.875 2 6 C0.625 2.8125 0.625 2.8125 0 0 Z " fill="#E2C271" transform="translate(313,62)"/>
<path d="M0 0 C0.66 1.32 1.32 2.64 2 4 C1.0479279 5.00596297 0.08812654 6.00461563 -0.875 7 C-1.40867187 7.556875 -1.94234375 8.11375 -2.4921875 8.6875 C-4 10 -4 10 -6 10 C-6.33 9.01 -6.66 8.02 -7 7 C-5.68 7 -4.36 7 -3 7 C-3 5.68 -3 4.36 -3 3 C-2.01 3 -1.02 3 0 3 C0 2.01 0 1.02 0 0 Z " fill="#E6C170" transform="translate(314,464)"/>
<path d="M0 0 C1.65 0 3.3 0 5 0 C4.04578192 1.14926266 3.08647955 2.29430541 2.125 3.4375 C1.59132812 4.07558594 1.05765625 4.71367187 0.5078125 5.37109375 C-1 7 -1 7 -3 8 C-3 6.35 -3 4.7 -3 3 C-2.01 2.67 -1.02 2.34 0 2 C0 1.34 0 0.68 0 0 Z " fill="#E5C876" transform="translate(140,166)"/>
<path d="M0 0 C0.66 0 1.32 0 2 0 C2.33 1.98 2.66 3.96 3 6 C1.68 6.99 0.36 7.98 -1 9 C-1.625 5.625 -1.625 5.625 -2 2 C-1.34 1.34 -0.68 0.68 0 0 Z " fill="#E2B145" transform="translate(221,82)"/>
<path d="M0 0 C0.99 0 1.98 0 3 0 C1.74194623 4.50802601 0.09592835 7.4912812 -3 11 C-3 9.02 -3 7.04 -3 5 C-2.01 5 -1.02 5 0 5 C0 3.35 0 1.7 0 0 Z " fill="#E5C779" transform="translate(437,43)"/>
<path d="M0 0 C1.32 0 2.64 0 4 0 C4 0.66 4 1.32 4 2 C4.8971875 1.6596875 4.8971875 1.6596875 5.8125 1.3125 C6.8953125 1.1578125 6.8953125 1.1578125 8 1 C9.75 2.4375 9.75 2.4375 11 4 C5.62694301 4.35233161 5.62694301 4.35233161 3 4 C1 2 1 2 0 0 Z " fill="#E3B65A" transform="translate(344,113)"/>
<path d="M0 0 C0 4.05480631 -1.54870092 5.84832975 -4 9 C-4.99 9 -5.98 9 -7 9 C-5.44499019 5.18315774 -2.96404505 2.80804268 0 0 Z " fill="#DEB660" transform="translate(62,218)"/>
<path d="M0 0 C2.125 0.9375 2.125 0.9375 4 2 C1.03 4.475 1.03 4.475 -2 7 C-2 5.02 -2 3.04 -2 1 C-1.34 0.67 -0.68 0.34 0 0 Z " fill="#E5C169" transform="translate(158,148)"/>
<path d="M0 0 C2.31 0 4.62 0 7 0 C5.35 1.98 3.7 3.96 2 6 C0 2.25 0 2.25 0 0 Z " fill="#E5BE67" transform="translate(164,140)"/>
<path d="M0 0 C2.31 0 4.62 0 7 0 C5.35 1.98 3.7 3.96 2 6 C0 2.25 0 2.25 0 0 Z " fill="#E5BD62" transform="translate(180,124)"/>
<path d="M0 0 C0.33 1.32 0.66 2.64 1 4 C-0.32 4.33 -1.64 4.66 -3 5 C-3 5.99 -3 6.98 -3 8 C-4.32 7.67 -5.64 7.34 -7 7 C-4.69 4.69 -2.38 2.38 0 0 Z " fill="#E6CA80" transform="translate(189,91)"/>
<path d="M0 0 C2.97 0.495 2.97 0.495 6 1 C4.35830472 3.02054804 2.69088222 5.02043058 1 7 C0.67 7 0.34 7 0 7 C0 4.69 0 2.38 0 0 Z " fill="#E0B554" transform="translate(244,60)"/>
<path d="M0 0 C0.97687451 3.03916514 1.105817 4.98413546 0 8 C-0.66 8.66 -1.32 9.32 -2 10 C-2.99 9.67 -3.98 9.34 -5 9 C-4.67 8.34 -4.34 7.68 -4 7 C-3.01 7 -2.02 7 -1 7 C-1.020625 6.030625 -1.04125 5.06125 -1.0625 4.0625 C-1 1 -1 1 0 0 Z " fill="#DFB34D" transform="translate(307,468)"/>
<path d="M0 0 C0.86625 0.495 0.86625 0.495 1.75 1 C4.19883862 2.27075898 4.19883862 2.27075898 8 2 C8.66 3.98 9.32 5.96 10 8 C6.05205855 6.32971708 3.18203882 3.8204435 0 1 C0 0.67 0 0.34 0 0 Z " fill="#E8CB85" transform="translate(300,78)"/>
<path d="M0 0 C2.25 0.125 2.25 0.125 5 1 C7.3125 4.0625 7.3125 4.0625 9 7 C5.18315774 5.44499019 2.80804268 2.96404505 0 0 Z " fill="#EACB86" transform="translate(291,71)"/>
<path d="M0 0 C2.125 0.9375 2.125 0.9375 4 2 C-0.75 6 -0.75 6 -3 6 C-2.625 3.5625 -2.625 3.5625 -2 1 C-1.34 0.67 -0.68 0.34 0 0 Z " fill="#E4C46E" transform="translate(410,65)"/>
<path d="M0 0 C0 3.57575896 -1.08840607 5.05295935 -3 8 C-4.32 7.67 -5.64 7.34 -7 7 C-4.69 4.69 -2.38 2.38 0 0 Z " fill="#DDB75E" transform="translate(242,39)"/>
<path d="M0 0 C0.66 0 1.32 0 2 0 C3.6875 1.8125 3.6875 1.8125 5 4 C4.67 4.99 4.34 5.98 4 7 C2.02 5.35 0.04 3.7 -2 2 C-1.34 1.34 -0.68 0.68 0 0 Z " fill="#E4BE6A" transform="translate(277,57)"/>
<path d="M0 0 C1.98 0 3.96 0 6 0 C6.66 1.98 7.32 3.96 8 6 C4.63408134 4.55746343 2.48952921 2.66735273 0 0 Z " fill="#E4C46D" transform="translate(267,52)"/>
<path d="M0 0 C2.375 -0.125 2.375 -0.125 5 0 C5.66 0.66 6.32 1.32 7 2 C6.67 2.99 6.34 3.98 6 5 C5.38125 4.649375 4.7625 4.29875 4.125 3.9375 C3.42375 3.628125 2.7225 3.31875 2 3 C1.01 3.495 1.01 3.495 0 4 C0 2.68 0 1.36 0 0 Z " fill="#E1B85D" transform="translate(260,47)"/>
<path d="M0 0 C1 2 1 2 0.4375 4 C-1.57302108 6.79724672 -3.74418077 7.15065585 -7 8 C-6.02133662 6.85373678 -5.04205413 5.70800212 -4.0625 4.5625 C-3.51722656 3.92441406 -2.97195312 3.28632813 -2.41015625 2.62890625 C-1.63204305 1.73008851 -0.84063472 0.84063472 0 0 Z " fill="#E4C576" transform="translate(133,147)"/>
<path d="M0 0 C1 2 1 2 0.4375 4 C-1.57302108 6.79724672 -3.74418077 7.15065585 -7 8 C-6.02133662 6.85373678 -5.04205413 5.70800212 -4.0625 4.5625 C-3.51722656 3.92441406 -2.97195312 3.28632813 -2.41015625 2.62890625 C-1.63204305 1.73008851 -0.84063472 0.84063472 0 0 Z " fill="#E6C87C" transform="translate(149,131)"/>
<path d="M0 0 C1 2 1 2 0.4375 4 C-1.57302108 6.79724672 -3.74418077 7.15065585 -7 8 C-6.02133662 6.85373678 -5.04205413 5.70800212 -4.0625 4.5625 C-3.51722656 3.92441406 -2.97195312 3.28632812 -2.41015625 2.62890625 C-1.63204305 1.73008851 -0.84063472 0.84063472 0 0 Z " fill="#E9D48B" transform="translate(202,78)"/>
<path d="M0 0 C0 3.99904969 -1.72586967 5.80200422 -4 9 C-4.99 8.34 -5.98 7.68 -7 7 C-4.69 4.69 -2.38 2.38 0 0 Z " fill="#E6C478" transform="translate(399,49)"/>
<path d="M0 0 C1.65 0 3.3 0 5 0 C3.75 2 3.75 2 2 4 C0.68 4 -0.64 4 -2 4 C-1.34 2.68 -0.68 1.36 0 0 Z " fill="#DEB95A" transform="translate(173,107)"/>
<path d="M0 0 C1.32 0 2.64 0 4 0 C2.63016497 3.16115776 2.0109362 3.9927092 -1 6 C-0.67 4.02 -0.34 2.04 0 0 Z " fill="#DDBA60" transform="translate(404,469)"/>
<path d="M0 0 C0.66 0.99 1.32 1.98 2 3 C1.01 3.33 0.02 3.66 -1 4 C-1 4.66 -1 5.32 -1 6 C-2.32 5.67 -3.64 5.34 -5 5 C-3.35 3.35 -1.7 1.7 0 0 Z " fill="#E0BB60" transform="translate(100,180)"/>
<path d="M0 0 C1 2 1 2 0.375 4.0625 C-1 6 -1 6 -3.625 6.75 C-4.800625 6.87375 -4.800625 6.87375 -6 7 C-4.02 4.69 -2.04 2.38 0 0 Z " fill="#E8CB83" transform="translate(170,110)"/>
<path d="M0 0 C0.66 0.33 1.32 0.66 2 1 C1.74438677 3.3431213 1.40729228 5.67843403 1 8 C0.01 8.495 0.01 8.495 -1 9 C-1 8.34 -1 7.68 -1 7 C-1.99 6.67 -2.98 6.34 -4 6 C-3.525625 5.566875 -3.05125 5.13375 -2.5625 4.6875 C-0.76313043 2.97690387 -0.76313043 2.97690387 0 0 Z " fill="#DDB251" transform="translate(228,52)"/>
<path d="M0 0 C1.32 0 2.64 0 4 0 C2.92598892 2.91517292 2.22189824 4.77810176 0 7 C-0.38133299 5.0085944 -0.71325582 3.00720923 -1 1 C-0.67 0.67 -0.34 0.34 0 0 Z " fill="#E7D7A2" transform="translate(448,22)"/>
<path d="M0 0 C3.91402949 1.26941497 5.79072873 2.51167694 8 6 C6.02 5.34 4.04 4.68 2 4 C2 3.34 2 2.68 2 2 C1.34 2 0.68 2 0 2 C0 1.34 0 0.68 0 0 Z " fill="#E9D095" transform="translate(260,20)"/>
<path d="M0 0 C1.65 0 3.3 0 5 0 C5 0.99 5 1.98 5 3 C3.02 3.99 3.02 3.99 1 5 C0.67 3.35 0.34 1.7 0 0 Z " fill="#DFB65A" transform="translate(100,204)"/>
<path d="M0 0 C0.99 0.33 1.98 0.66 3 1 C1.68 2.32 0.36 3.64 -1 5 C-1.99 4.67 -2.98 4.34 -4 4 C-2.68 2.68 -1.36 1.36 0 0 Z " fill="#DEBD67" transform="translate(125,155)"/>
<path d="M0 0 C0.33 0.66 0.66 1.32 1 2 C1.66 2.33 2.32 2.66 3 3 C1.35 4.32 -0.3 5.64 -2 7 C-2.33 5.68 -2.66 4.36 -3 3 C-2.01 3 -1.02 3 0 3 C0 2.01 0 1.02 0 0 Z " fill="#E4B95B" transform="translate(236,70)"/>
<path d="M0 0 C0.33 0.66 0.66 1.32 1 2 C0.22265625 3.7265625 0.22265625 3.7265625 -0.9375 5.625 C-1.618125 6.73875 -2.29875 7.8525 -3 9 C-3.33 9 -3.66 9 -4 9 C-4 7.02 -4 5.04 -4 3 C-3.01 3 -2.02 3 -1 3 C-0.67 2.01 -0.34 1.02 0 0 Z " fill="#EED090" transform="translate(447,29)"/>
<path d="" fill="#FFFFFF" transform="translate(0,0)"/>
<path d="" fill="#FFFFFF" transform="translate(0,0)"/>
<path d="" fill="#FFFFFF" transform="translate(0,0)"/>
<path d="" fill="#FFFFFF" transform="translate(0,0)"/>
<path d="" fill="#FFFFFF" transform="translate(0,0)"/>
<path d="" fill="#FFFFFF" transform="translate(0,0)"/>
<path d="" fill="#FFFFFF" transform="translate(0,0)"/>
<path d="" fill="#FFFFFF" transform="translate(0,0)"/>
<path d="" fill="#FFFFFF" transform="translate(0,0)"/>
<path d="" fill="#FFFFBF" transform="translate(0,0)"/>
<path d="" fill="#FFFFFF" transform="translate(0,0)"/>
</svg>
